<svg width="380" height="280" viewBox="0 0 380 280" fill="none" xmlns="http://www.w3.org/2000/svg">
<path opacity="0.1" d="M220.787 41.9302C196.426 41.0861 173.222 33.2169 151.068 24.6147C128.913 16.0124 106.963 6.4786 83.1876 1.91852C67.8932 -1.01392 50.4028 -1.42083 38.0811 6.77117C26.2202 14.6605 22.3899 28.2937 20.3318 40.9213C18.7815 50.4316 17.8701 60.4261 22.1141 69.3411C25.0634 75.5187 30.2994 80.7144 33.9212 86.6331C46.5153 107.234 37.6204 132.634 23.9603 152.744C17.5709 162.18 10.1288 171.18 5.18869 181.224C0.2486 191.269 -2.03817 202.774 2.28315 213.017C6.57084 223.173 16.7806 230.8 27.8411 236.164C50.3086 247.06 76.7846 250.181 102.602 251.946C159.754 255.84 217.209 254.159 274.509 252.477C295.716 251.849 317.013 251.213 337.876 247.934C349.458 246.115 361.416 243.226 369.824 236.248C380.501 227.39 383.147 212.392 375.991 201.274C363.992 182.647 330.811 178.02 322.424 158.027C317.806 147.024 322.548 134.766 329.257 124.56C343.65 102.664 367.776 83.4585 369.047 58.4319C369.921 41.2442 358.322 24.0295 340.392 15.8981C321.593 7.37313 295.531 8.44589 281.662 22.5566C267.39 37.0876 242.296 42.6768 220.787 41.9302Z" fill="#7EC845"/>
<path d="M223.356 254.196L157.78 253.355L157.972 251.674L161.143 223.93H218.732L222.969 251.674L223.292 253.776L223.356 254.196Z" fill="#D0D2D5"/>
<path opacity="0.1" d="M223.292 253.776H190.568L157.78 253.355L157.972 251.674H222.969L223.292 253.776Z" fill="black"/>
<path d="M233.865 252.094H146.85V254.196H233.865V252.094Z" fill="#D0D2D5"/>
<path d="M316.885 57.2918C316.888 56.5733 316.75 55.8611 316.479 55.196C316.207 54.5308 315.807 53.9256 315.301 53.4151C314.796 52.9045 314.195 52.4985 313.532 52.2203C312.87 51.9421 312.159 51.797 311.44 51.7935H68.4345C67.7157 51.7966 67.0046 51.9413 66.3417 52.2193C65.6788 52.4973 65.0773 52.9033 64.5713 53.4139C64.0654 53.9245 63.665 54.5298 63.3931 55.1952C63.1212 55.8606 62.9831 56.573 62.9866 57.2918V204.586H316.885V57.2918Z" fill="#444053"/>
<path d="M62.9866 203.124V220.375C62.9866 221.82 63.5605 223.206 64.5822 224.227C65.6039 225.249 66.9896 225.823 68.4345 225.823H311.44C312.885 225.822 314.269 225.248 315.29 224.226C316.311 223.205 316.885 221.82 316.885 220.375V203.124H62.9866Z" fill="#D0D2D5"/>
<path opacity="0.1" d="M307.637 61.0415H73.4956V193.455H307.637V61.0415Z" fill="#7EC845"/>
<path d="M191.197 219.276C192.057 219.276 192.905 219.082 193.679 218.706C194.452 218.331 195.131 217.785 195.663 217.11C195.824 216.904 195.971 216.687 196.103 216.461L192.989 215.95L196.352 215.977C196.676 215.274 196.853 214.512 196.872 213.738C196.89 212.964 196.75 212.195 196.46 211.477L191.943 213.831L196.11 210.771C195.719 210.099 195.193 209.515 194.567 209.055C193.94 208.595 193.226 208.269 192.468 208.096C191.71 207.924 190.925 207.909 190.161 208.053C189.397 208.196 188.671 208.495 188.027 208.931C187.383 209.367 186.836 209.931 186.42 210.587C186.003 211.243 185.726 211.978 185.605 212.746C185.484 213.514 185.522 214.298 185.717 215.051C185.912 215.803 186.259 216.507 186.738 217.12C187.27 217.793 187.947 218.337 188.72 218.71C189.492 219.083 190.339 219.277 191.197 219.276Z" fill="#7EC845"/>
<path opacity="0.1" d="M196.873 225.823L223.033 252.094L219.021 225.823H196.873Z" fill="black"/>
<path d="M233.183 84.9315H81.2471C80.7642 84.9315 80.3727 85.3229 80.3727 85.8058V176.2C80.3727 176.683 80.7642 177.075 81.2471 177.075H233.183C233.665 177.075 234.057 176.683 234.057 176.2V85.8058C234.057 85.3229 233.665 84.9315 233.183 84.9315Z" fill="white"/>
<path d="M307.704 61.0549H73.647V68.7896H307.704V61.0549Z" fill="white"/>
<path d="M81.1193 62.4001H74.9181C74.7733 62.4001 74.6558 62.5175 74.6558 62.6624V66.8458C74.6558 66.9907 74.7733 67.1081 74.9181 67.1081H81.1193C81.2642 67.1081 81.3816 66.9907 81.3816 66.8458V62.6624C81.3816 62.5175 81.2642 62.4001 81.1193 62.4001Z" fill="#7EC845"/>
<path opacity="0.3" d="M225.118 62.4001H154.888C154.78 62.4001 154.693 62.4874 154.693 62.5951V66.9131C154.693 67.0208 154.78 67.1081 154.888 67.1081H225.118C225.226 67.1081 225.313 67.0208 225.313 66.9131V62.5951C225.313 62.4874 225.226 62.4001 225.118 62.4001Z" fill="#7EC845"/>
<path d="M223.218 65.2384H223.047L222.983 65.1845C223.199 64.9285 223.318 64.6047 223.319 64.2698C223.317 63.9948 223.234 63.7265 223.079 63.4988C222.925 63.2711 222.707 63.0942 222.452 62.9905C222.197 62.8868 221.917 62.8608 221.648 62.9159C221.378 62.9711 221.131 63.1048 220.938 63.3002C220.744 63.4957 220.613 63.7441 220.56 64.0141C220.508 64.2841 220.536 64.5636 220.643 64.8173C220.749 65.0711 220.928 65.2877 221.157 65.4398C221.386 65.592 221.655 65.6728 221.93 65.6722C222.265 65.6701 222.589 65.5512 222.845 65.3359L222.909 65.3897V65.5646L223.985 66.6407L224.321 66.3044L223.218 65.2384ZM221.927 65.2384C221.734 65.239 221.546 65.1825 221.386 65.076C221.225 64.9694 221.1 64.8177 221.026 64.64C220.952 64.4622 220.933 64.2665 220.97 64.0777C221.008 63.8889 221.1 63.7154 221.236 63.5793C221.372 63.4431 221.546 63.3505 221.735 63.3131C221.924 63.2757 222.119 63.2953 222.297 63.3692C222.475 63.4432 222.626 63.5683 222.733 63.7286C222.84 63.889 222.896 64.0773 222.895 64.2698C222.896 64.3973 222.872 64.5236 222.823 64.6415C222.775 64.7594 222.704 64.8666 222.614 64.9567C222.524 65.0468 222.416 65.1181 222.299 65.1665C222.181 65.2148 222.054 65.2392 221.927 65.2384Z" fill="#444053"/>
<path d="M304.341 67.1081C305.641 67.1081 306.695 66.0542 306.695 64.7541C306.695 63.454 305.641 62.4001 304.341 62.4001C303.041 62.4001 301.987 63.454 301.987 64.7541C301.987 66.0542 303.041 67.1081 304.341 67.1081Z" fill="#7EC845"/>
<path d="M266.196 77.1968H245.972C245.52 77.1968 245.154 77.5627 245.154 78.014V91.1764C245.154 91.6277 245.52 91.9936 245.972 91.9936H266.196C266.647 91.9936 267.013 91.6277 267.013 91.1764V78.014C267.013 77.5627 266.647 77.1968 266.196 77.1968Z" fill="white"/>
<path d="M300.773 77.1968H272.935C272.822 77.1968 272.73 77.2887 272.73 77.402V79.3457C272.73 79.459 272.822 79.5509 272.935 79.5509H300.773C300.887 79.5509 300.978 79.459 300.978 79.3457V77.402C300.978 77.2887 300.887 77.1968 300.773 77.1968Z" fill="white"/>
<path d="M300.773 82.2411H272.935C272.822 82.2411 272.73 82.333 272.73 82.4463V84.39C272.73 84.5033 272.822 84.5952 272.935 84.5952H300.773C300.887 84.5952 300.978 84.5033 300.978 84.39V82.4463C300.978 82.333 300.887 82.2411 300.773 82.2411Z" fill="white"/>
<path d="M300.773 87.2855H272.935C272.822 87.2855 272.73 87.3773 272.73 87.4906V89.4344C272.73 89.5476 272.822 89.6395 272.935 89.6395H300.773C300.887 89.6395 300.978 89.5476 300.978 89.4344V87.4906C300.978 87.3773 300.887 87.2855 300.773 87.2855Z" fill="white"/>
<path d="M266.196 100.401H245.972C245.52 100.401 245.154 100.767 245.154 101.218V114.38C245.154 114.832 245.52 115.197 245.972 115.197H266.196C266.647 115.197 267.013 114.832 267.013 114.38V101.218C267.013 100.767 266.647 100.401 266.196 100.401Z" fill="white"/>
<path d="M300.773 100.401H272.935C272.822 100.401 272.73 100.493 272.73 100.606V102.55C272.73 102.663 272.822 102.755 272.935 102.755H300.773C300.887 102.755 300.978 102.663 300.978 102.55V100.606C300.978 100.493 300.887 100.401 300.773 100.401Z" fill="white"/>
<path d="M300.773 105.445H272.935C272.822 105.445 272.73 105.537 272.73 105.65V107.594C272.73 107.707 272.822 107.799 272.935 107.799H300.773C300.887 107.799 300.978 107.707 300.978 107.594V105.65C300.978 105.537 300.887 105.445 300.773 105.445Z" fill="white"/>
<path d="M300.756 110.489H272.952C272.829 110.489 272.73 110.589 272.73 110.711V112.622C272.73 112.744 272.829 112.843 272.952 112.843H300.756C300.879 112.843 300.978 112.744 300.978 112.622V110.711C300.978 110.589 300.879 110.489 300.756 110.489Z" fill="white"/>
<path d="M266.196 123.605H245.972C245.52 123.605 245.154 123.971 245.154 124.422V137.584C245.154 138.036 245.52 138.401 245.972 138.401H266.196C266.647 138.401 267.013 138.036 267.013 137.584V124.422C267.013 123.971 266.647 123.605 266.196 123.605Z" fill="white"/>
<path d="M300.756 123.605H272.952C272.829 123.605 272.73 123.704 272.73 123.827V125.737C272.73 125.859 272.829 125.959 272.952 125.959H300.756C300.879 125.959 300.978 125.859 300.978 125.737V123.827C300.978 123.704 300.879 123.605 300.756 123.605Z" fill="white"/>
<path d="M300.756 128.649H272.952C272.829 128.649 272.73 128.748 272.73 128.871V130.781C272.73 130.904 272.829 131.003 272.952 131.003H300.756C300.879 131.003 300.978 130.904 300.978 130.781V128.871C300.978 128.748 300.879 128.649 300.756 128.649Z" fill="white"/>
<path d="M300.756 133.693H272.952C272.829 133.693 272.73 133.793 272.73 133.915V135.825C272.73 135.948 272.829 136.047 272.952 136.047H300.756C300.879 136.047 300.978 135.948 300.978 135.825V133.915C300.978 133.793 300.879 133.693 300.756 133.693Z" fill="white"/>
<path d="M266.196 146.809H245.972C245.52 146.809 245.154 147.175 245.154 147.626V160.788C245.154 161.24 245.52 161.605 245.972 161.605H266.196C266.647 161.605 267.013 161.24 267.013 160.788V147.626C267.013 147.175 266.647 146.809 266.196 146.809Z" fill="white"/>
<path d="M300.756 146.809H272.952C272.829 146.809 272.73 146.908 272.73 147.031V148.941C272.73 149.063 272.829 149.163 272.952 149.163H300.756C300.879 149.163 300.978 149.063 300.978 148.941V147.031C300.978 146.908 300.879 146.809 300.756 146.809Z" fill="white"/>
<path d="M300.756 151.853H272.952C272.829 151.853 272.73 151.952 272.73 152.075V153.985C272.73 154.108 272.829 154.207 272.952 154.207H300.756C300.879 154.207 300.978 154.108 300.978 153.985V152.075C300.978 151.952 300.879 151.853 300.756 151.853Z" fill="white"/>
<path d="M300.756 156.897H272.952C272.829 156.897 272.73 156.997 272.73 157.119V159.029C272.73 159.152 272.829 159.251 272.952 159.251H300.756C300.879 159.251 300.978 159.152 300.978 159.029V157.119C300.978 156.997 300.879 156.897 300.756 156.897Z" fill="white"/>
<path d="M266.196 170.013H245.972C245.52 170.013 245.154 170.378 245.154 170.83V183.992C245.154 184.443 245.52 184.809 245.972 184.809H266.196C266.647 184.809 267.013 184.443 267.013 183.992V170.83C267.013 170.378 266.647 170.013 266.196 170.013Z" fill="white"/>
<path d="M300.756 170.013H272.952C272.829 170.013 272.73 170.112 272.73 170.235V172.145C272.73 172.267 272.829 172.367 272.952 172.367H300.756C300.879 172.367 300.978 172.267 300.978 172.145V170.235C300.978 170.112 300.879 170.013 300.756 170.013Z" fill="white"/>
<path d="M300.756 175.057H272.952C272.829 175.057 272.73 175.156 272.73 175.279V177.189C272.73 177.312 272.829 177.411 272.952 177.411H300.756C300.879 177.411 300.978 177.312 300.978 177.189V175.279C300.978 175.156 300.879 175.057 300.756 175.057Z" fill="white"/>
<path d="M300.756 180.101H272.952C272.829 180.101 272.73 180.201 272.73 180.323V182.233C272.73 182.356 272.829 182.455 272.952 182.455H300.756C300.879 182.455 300.978 182.356 300.978 182.233V180.323C300.978 180.201 300.879 180.101 300.756 180.101Z" fill="white"/>
<path opacity="0.1" d="M137.121 109.349H102.541V111.142H137.121V109.349Z" fill="#7EC845"/>
<path opacity="0.1" d="M108.944 99.8727H105.615V109.349H108.944V99.8727Z" fill="#7EC845"/>
<path opacity="0.1" d="M113.81 99.8727H110.481V109.349H113.81V99.8727Z" fill="#7EC845"/>
<path opacity="0.1" d="M118.676 99.8727H115.347V109.349H118.676V99.8727Z" fill="#7EC845"/>
<path opacity="0.1" d="M123.542 99.8727H120.213V109.349H123.542V99.8727Z" fill="#7EC845"/>
<path opacity="0.1" d="M128.408 99.8727H125.079V109.349H128.408V99.8727Z" fill="#7EC845"/>
<path opacity="0.1" d="M133.278 99.8727H129.948V109.349H133.278V99.8727Z" fill="#7EC845"/>
<path opacity="0.1" d="M108.944 101.665H105.615V102.691H108.944V101.665Z" fill="#7EC845"/>
<path opacity="0.1" d="M113.81 101.665H110.481V102.691H113.81V101.665Z" fill="#7EC845"/>
<path opacity="0.1" d="M118.676 101.665H115.347V102.691H118.676V101.665Z" fill="#7EC845"/>
<path opacity="0.1" d="M123.542 101.665H120.213V102.691H123.542V101.665Z" fill="#7EC845"/>
<path opacity="0.1" d="M128.408 101.665H125.079V102.691H128.408V101.665Z" fill="#7EC845"/>
<path opacity="0.1" d="M133.278 101.665H129.948V102.691H133.278V101.665Z" fill="#7EC845"/>
<path opacity="0.1" d="M108.944 106.276H105.615V107.301H108.944V106.276Z" fill="#7EC845"/>
<path opacity="0.1" d="M113.81 106.276H110.481V107.301H113.81V106.276Z" fill="#7EC845"/>
<path opacity="0.1" d="M118.676 106.276H115.347V107.301H118.676V106.276Z" fill="#7EC845"/>
<path opacity="0.1" d="M123.542 106.276H120.213V107.301H123.542V106.276Z" fill="#7EC845"/>
<path opacity="0.1" d="M128.408 106.276H125.079V107.301H128.408V106.276Z" fill="#7EC845"/>
<path opacity="0.1" d="M133.278 106.276H129.948V107.301H133.278V106.276Z" fill="#7EC845"/>
<path opacity="0.1" d="M212.938 113.96H178.357V115.752H212.938V113.96Z" fill="#7EC845"/>
<path opacity="0.1" d="M184.76 104.483H181.431V113.96H184.76V104.483Z" fill="#7EC845"/>
<path opacity="0.1" d="M189.626 104.483H186.297V113.96H189.626V104.483Z" fill="#7EC845"/>
<path opacity="0.1" d="M194.493 104.483H191.163V113.96H194.493V104.483Z" fill="#7EC845"/>
<path opacity="0.1" d="M199.362 104.483H196.033V113.96H199.362V104.483Z" fill="#7EC845"/>
<path opacity="0.1" d="M204.228 104.483H200.899V113.96H204.228V104.483Z" fill="#7EC845"/>
<path opacity="0.1" d="M209.094 104.483H205.765V113.96H209.094V104.483Z" fill="#7EC845"/>
<path opacity="0.1" d="M184.76 106.276H181.431V107.301H184.76V106.276Z" fill="#7EC845"/>
<path opacity="0.1" d="M189.626 106.276H186.297V107.301H189.626V106.276Z" fill="#7EC845"/>
<path opacity="0.1" d="M194.493 106.276H191.163V107.301H194.493V106.276Z" fill="#7EC845"/>
<path opacity="0.1" d="M199.362 106.276H196.033V107.301H199.362V106.276Z" fill="#7EC845"/>
<path opacity="0.1" d="M204.228 106.276H200.899V107.301H204.228V106.276Z" fill="#7EC845"/>
<path opacity="0.1" d="M209.094 106.276H205.765V107.301H209.094V106.276Z" fill="#7EC845"/>
<path opacity="0.1" d="M184.76 110.886H181.431V111.912H184.76V110.886Z" fill="#7EC845"/>
<path opacity="0.1" d="M189.626 110.886H186.297V111.912H189.626V110.886Z" fill="#7EC845"/>
<path opacity="0.1" d="M194.493 110.886H191.163V111.912H194.493V110.886Z" fill="#7EC845"/>
<path opacity="0.1" d="M199.362 110.886H196.033V111.912H199.362V110.886Z" fill="#7EC845"/>
<path opacity="0.1" d="M204.228 110.886H200.899V111.912H204.228V110.886Z" fill="#7EC845"/>
<path opacity="0.1" d="M209.094 110.886H205.765V111.912H209.094V110.886Z" fill="#7EC845"/>
<path opacity="0.1" d="M212.938 127.021H178.357V128.814H212.938V127.021Z" fill="#7EC845"/>
<path opacity="0.1" d="M184.76 117.545H181.431V127.021H184.76V117.545Z" fill="#7EC845"/>
<path opacity="0.1" d="M189.626 117.545H186.297V127.021H189.626V117.545Z" fill="#7EC845"/>
<path opacity="0.1" d="M194.493 117.545H191.163V127.021H194.493V117.545Z" fill="#7EC845"/>
<path opacity="0.1" d="M199.362 117.545H196.033V127.021H199.362V117.545Z" fill="#7EC845"/>
<path opacity="0.1" d="M204.228 117.545H200.899V127.021H204.228V117.545Z" fill="#7EC845"/>
<path opacity="0.1" d="M209.094 117.545H205.765V127.021H209.094V117.545Z" fill="#7EC845"/>
<path opacity="0.1" d="M184.76 119.337H181.431V120.363H184.76V119.337Z" fill="#7EC845"/>
<path opacity="0.1" d="M189.626 119.337H186.297V120.363H189.626V119.337Z" fill="#7EC845"/>
<path opacity="0.1" d="M194.493 119.337H191.163V120.363H194.493V119.337Z" fill="#7EC845"/>
<path opacity="0.1" d="M199.362 119.337H196.033V120.363H199.362V119.337Z" fill="#7EC845"/>
<path opacity="0.1" d="M204.228 119.337H200.899V120.363H204.228V119.337Z" fill="#7EC845"/>
<path opacity="0.1" d="M209.094 119.337H205.765V120.363H209.094V119.337Z" fill="#7EC845"/>
<path opacity="0.1" d="M184.76 123.948H181.431V124.973H184.76V123.948Z" fill="#7EC845"/>
<path opacity="0.1" d="M189.626 123.948H186.297V124.973H189.626V123.948Z" fill="#7EC845"/>
<path opacity="0.1" d="M194.493 123.948H191.163V124.973H194.493V123.948Z" fill="#7EC845"/>
<path opacity="0.1" d="M199.362 123.948H196.033V124.973H199.362V123.948Z" fill="#7EC845"/>
<path opacity="0.1" d="M204.228 123.948H200.899V124.973H204.228V123.948Z" fill="#7EC845"/>
<path opacity="0.1" d="M209.094 123.948H205.765V124.973H209.094V123.948Z" fill="#7EC845"/>
<path opacity="0.1" d="M123.754 129.617C123.496 129.287 123.26 128.94 123.048 128.578L128.028 127.761L122.648 127.802C122.132 126.678 121.85 125.461 121.82 124.225C121.79 122.988 122.012 121.759 122.473 120.612L129.686 124.351L123.024 119.455C123.644 118.367 124.482 117.42 125.485 116.672C126.489 115.924 127.636 115.391 128.855 115.107C130.074 114.824 131.339 114.795 132.569 115.023C133.8 115.252 134.97 115.732 136.006 116.434C137.042 117.136 137.922 118.045 138.59 119.103C139.259 120.162 139.701 121.347 139.889 122.584C140.078 123.821 140.008 125.084 139.685 126.293C139.362 127.503 138.793 128.632 138.013 129.611C138.418 130.122 138.766 130.677 139.049 131.265L132.585 134.628L139.476 132.318C139.958 133.747 140.076 135.273 139.821 136.759C139.566 138.245 138.944 139.644 138.013 140.829C139.069 142.168 139.726 143.777 139.91 145.472C140.094 147.167 139.797 148.88 139.053 150.414C138.31 151.948 137.149 153.242 135.704 154.147C134.259 155.052 132.588 155.532 130.883 155.532C129.178 155.532 127.508 155.052 126.063 154.147C124.618 153.242 123.457 151.948 122.713 150.414C121.97 148.88 121.673 147.167 121.857 145.472C122.041 143.777 122.698 142.168 123.754 140.829C122.497 139.229 121.813 137.253 121.813 135.218C121.813 133.183 122.497 131.207 123.754 129.607V129.617Z" fill="#7EC845"/>
<path opacity="0.1" d="M139.957 135.227C139.957 137.26 139.272 139.233 138.013 140.829C139.069 142.168 139.726 143.777 139.91 145.472C140.094 147.167 139.797 148.88 139.053 150.414C138.31 151.948 137.149 153.242 135.704 154.147C134.259 155.052 132.588 155.532 130.883 155.532C129.178 155.532 127.508 155.052 126.063 154.147C124.618 153.242 123.457 151.948 122.713 150.414C121.97 148.88 121.673 147.167 121.857 145.472C122.041 143.777 122.698 142.168 123.754 140.829C122.533 139.293 139.957 134.208 139.957 135.227Z" fill="#7EC845"/>
<path opacity="0.2" d="M132.336 157.94C132.352 157.964 132.367 157.988 132.38 158.014H129.299C129.316 157.99 129.326 157.963 129.343 157.94C129.078 157.479 128.941 156.955 128.946 156.423C128.945 156.059 129.007 155.697 129.131 155.354C129.303 155.381 129.515 155.411 129.76 155.438C130.475 155.509 131.195 155.509 131.909 155.438C132.115 155.418 132.327 155.391 132.545 155.357C132.543 155.363 132.543 155.368 132.545 155.374C132.667 155.711 132.729 156.068 132.726 156.427C132.733 156.957 132.598 157.479 132.336 157.94Z" fill="#3F3D56"/>
<path opacity="0.1" d="M121.265 158.014H104.115C104.078 157.916 104.044 157.812 104.014 157.711C103.41 155.768 103.479 153.678 104.212 151.779C102.538 150.621 101.301 148.935 100.7 146.99C100.1 145.045 100.17 142.955 100.9 141.055C100.555 140.817 100.228 140.556 99.9212 140.271L104.434 138.021L99.3024 139.649C98.4772 138.728 97.8488 137.649 97.4556 136.477C97.0623 135.305 96.9126 134.065 97.0156 132.832L105.023 134.279L97.214 131.565C97.4834 130.341 98.0031 129.186 98.7405 128.173C99.4779 127.16 100.417 126.311 101.499 125.678C102.58 125.046 103.781 124.644 105.026 124.499C106.27 124.353 107.531 124.466 108.73 124.832C109.928 125.197 111.038 125.807 111.99 126.622C112.941 127.437 113.713 128.441 114.258 129.569C114.803 130.697 115.108 131.926 115.155 133.178C115.202 134.43 114.989 135.679 114.53 136.844C115.071 137.221 115.571 137.655 116.019 138.139L110.834 143.254L116.736 139.01C117.62 140.234 118.185 141.659 118.38 143.156C118.575 144.654 118.394 146.176 117.852 147.585C119.481 148.713 120.696 150.343 121.312 152.226C121.928 154.109 121.912 156.141 121.265 158.014Z" fill="#7EC845"/>
<path opacity="0.1" d="M121.265 158.014H104.115C104.078 157.916 104.044 157.812 104.014 157.711C103.41 155.768 103.479 153.677 104.212 151.779C102.598 150.662 117.741 140.658 118.04 141.633C118.645 143.577 118.575 145.669 117.842 147.569C119.476 148.696 120.696 150.328 121.314 152.214C121.932 154.101 121.915 156.138 121.265 158.014Z" fill="#7EC845"/>
<path opacity="0.1" d="M198.864 145.726C197.823 147.474 196.222 148.82 194.321 149.546C194.402 150.193 194.415 150.847 194.358 151.497L187.091 151.059L194.19 152.6C193.981 153.567 193.615 154.494 193.107 155.344C192.488 156.384 191.664 157.288 190.686 158H180.792V158.259H170.703C170.723 158.172 170.744 158.088 170.767 158C171.135 156.609 171.829 155.325 172.791 154.255C173.753 153.184 174.955 152.357 176.299 151.843C176.041 149.824 176.469 147.777 177.513 146.031C178.558 144.284 180.159 142.939 182.06 142.212C182.007 141.796 181.982 141.377 181.986 140.957L186.677 142.81L182.036 140.083C182.173 138.854 182.56 137.666 183.172 136.591C183.784 135.517 184.61 134.579 185.598 133.835L189.872 140.755L186.667 133.135C188.413 132.169 190.428 131.805 192.401 132.099C194.375 132.393 196.196 133.329 197.585 134.762C198.973 136.195 199.85 138.045 200.082 140.027C200.313 142.009 199.885 144.012 198.864 145.726Z" fill="#7EC845"/>
<path opacity="0.1" d="M193.107 155.357C192.488 156.398 191.664 157.301 190.686 158.014H180.792V158.273H170.703C170.723 158.185 170.744 158.101 170.767 158.014C171.135 156.623 171.829 155.339 172.791 154.268C173.753 153.197 174.955 152.371 176.299 151.856C176.215 151.184 178.169 151.285 180.775 151.722C185.883 152.579 193.453 154.779 193.107 155.357Z" fill="#7EC845"/>
<path d="M150.223 131.141C150.223 131.141 151.468 137.867 148.69 140.063C145.912 142.259 151.044 155.421 159.512 153.884C167.979 152.347 171.43 141.307 171.43 141.307C171.43 141.307 162.949 139.552 166.093 130.63L150.223 131.141Z" fill="#EE8E9E"/>
<path opacity="0.1" d="M150.223 131.141C150.223 131.141 151.468 137.867 148.69 140.063C145.912 142.259 151.044 155.421 159.512 153.884C167.979 152.347 171.43 141.307 171.43 141.307C171.43 141.307 162.949 139.552 166.093 130.63L150.223 131.141Z" fill="black"/>
<path d="M157.719 136.078C165.473 136.078 171.759 129.792 171.759 122.038C171.759 114.283 165.473 107.997 157.719 107.997C149.965 107.997 143.679 114.283 143.679 122.038C143.679 129.792 149.965 136.078 157.719 136.078Z" fill="#EE8E9E"/>
<path d="M180.792 148.729V158.273H134.431V149.163C134.431 148.007 134.771 146.878 135.41 145.915C136.048 144.952 136.956 144.198 138.019 143.748L139.348 143.183C142.711 141.751 146.797 139.972 148.132 139.232C148.278 139.159 148.415 139.07 148.542 138.966C149.272 138.237 149.127 139.185 149.127 139.185C149.127 139.185 149.107 139.367 149.093 139.679C149.013 141.828 149.322 150.272 159.219 149.57C168.874 148.897 169.308 142.366 169.21 140.446C169.205 140.268 169.19 140.091 169.167 139.915C169.834 140.074 170.488 140.287 171.12 140.554C173.138 141.3 176.118 142.497 176.915 143.062C177.163 143.237 177.466 143.419 177.796 143.604C178.17 143.812 178.519 144.062 178.838 144.347C179.453 144.899 179.945 145.575 180.282 146.33C180.618 147.085 180.792 147.902 180.792 148.729Z" fill="#7EC845"/>
<path opacity="0.1" d="M171.12 140.554C170.303 144.34 167.737 151.433 158.489 151.618C148.636 151.813 148.064 142.013 148.128 139.232C148.277 139.161 148.415 139.072 148.542 138.966C149.275 138.237 149.127 139.185 149.127 139.185C149.127 139.185 147.886 150.373 159.216 149.57C170.545 148.766 169.153 139.918 169.153 139.918C169.153 139.864 169.997 140.157 171.12 140.554Z" fill="black"/>
<path d="M141.1 122.74C141.566 122.624 142.056 122.65 142.508 122.815C142.959 122.979 143.351 123.276 143.632 123.665C144.143 124.382 144.221 125.246 144.285 126.073C144.893 126.201 145.236 125.511 145.293 124.99C145.519 122.868 145.536 120.706 146.248 118.655C146.961 116.603 148.518 114.619 150.909 113.835C151.726 113.552 152.599 113.469 153.455 113.593C153.963 113.677 154.44 113.856 154.945 113.93C156.694 114.219 158.594 113.392 160.231 113.967C161.26 114.33 161.913 115.167 162.394 116.005C162.603 116.456 162.887 116.869 163.234 117.225C163.931 117.851 165.02 118.012 166.019 118.207C167.018 118.402 168.107 118.742 168.534 119.512C168.918 120.208 168.635 121.012 168.507 121.765C168.31 122.958 168.51 124.184 169.076 125.253C169.261 125.589 169.637 125.996 170.085 125.885C170.285 125.817 170.454 125.68 170.562 125.498C171.709 123.891 171.679 121.799 173.118 120.349C173.599 119.865 174.221 119.489 174.688 119.004C175.042 118.645 175.302 118.205 175.444 117.721C175.586 117.238 175.606 116.726 175.502 116.233C175.243 115.123 174.356 114.215 173.639 113.24C172.709 112.005 172.031 110.598 171.645 109.101C171.578 108.926 171.578 108.733 171.645 108.559C171.781 108.383 171.956 108.24 172.156 108.142C172.546 107.881 172.827 107.486 172.947 107.033C173.067 106.579 173.018 106.097 172.809 105.677C172.402 104.846 171.507 104.214 170.498 103.838C169.475 103.501 168.419 103.276 167.347 103.165C166.641 103.266 165.814 102.866 165.595 102.301C165.498 102.049 165.498 101.776 165.4 101.524C165.268 101.271 165.077 101.053 164.842 100.889C164.608 100.725 164.338 100.62 164.055 100.582C163.453 100.485 162.838 100.529 162.256 100.71C161.583 100.898 160.82 101.181 160.238 100.851C159.932 100.68 159.764 100.367 159.434 100.226C158.762 99.9434 158.069 100.515 157.588 100.986C157.125 101.48 156.556 101.863 155.924 102.106C155.59 102.233 155.232 102.286 154.876 102.263C154.52 102.239 154.173 102.138 153.859 101.968C153.398 101.675 153.166 101.204 152.799 100.831C152.107 100.214 151.221 99.857 150.294 99.8223C149.341 99.7717 148.386 99.8762 147.466 100.132C145.71 100.56 144.034 101.263 142.499 102.217C141.727 102.641 141.072 103.25 140.592 103.989C140.308 104.556 140.162 105.181 140.165 105.815C140.091 107.802 140.75 109.894 142.469 111.286C141.419 111.724 141.066 112.796 140.821 113.748C140.427 115.268 140.034 116.812 140.182 118.359C140.256 119.159 140.474 119.959 140.357 120.756C140.262 121.132 140.21 121.516 140.202 121.903C140.251 122.116 140.363 122.31 140.523 122.459C140.683 122.608 140.884 122.706 141.1 122.74Z" fill="#454B69"/>
<g opacity="0.1">
<path opacity="0.1" d="M175.284 115.608C175.133 115.937 174.928 116.24 174.678 116.502C174.211 116.993 173.589 117.373 173.108 117.847C171.669 119.287 171.699 121.392 170.552 122.999C170.445 123.181 170.275 123.318 170.075 123.383C169.637 123.497 169.261 123.1 169.066 122.751C168.843 122.325 168.675 121.873 168.565 121.405C168.541 121.523 168.518 121.641 168.497 121.742C168.3 122.935 168.499 124.16 169.066 125.229C169.251 125.565 169.627 125.972 170.075 125.861C170.275 125.793 170.444 125.656 170.552 125.474C171.699 123.867 171.669 121.775 173.108 120.326C173.589 119.842 174.211 119.465 174.678 118.981C175.032 118.622 175.292 118.181 175.434 117.697C175.576 117.214 175.596 116.703 175.492 116.21C175.441 116.003 175.371 115.802 175.284 115.608Z" fill="black"/>
<path opacity="0.1" d="M172.149 105.654C171.948 105.75 171.773 105.893 171.638 106.071C171.571 106.244 171.571 106.436 171.638 106.609C171.771 107.131 171.941 107.644 172.146 108.142C172.536 107.881 172.817 107.486 172.937 107.033C173.057 106.579 173.008 106.097 172.798 105.677C172.733 105.539 172.654 105.407 172.563 105.284C172.444 105.426 172.304 105.551 172.149 105.654Z" fill="black"/>
<path opacity="0.1" d="M142.489 108.771C141.297 107.789 140.512 106.401 140.286 104.873C140.226 105.175 140.192 105.481 140.185 105.788C140.108 107.257 140.495 108.712 141.292 109.948C141.532 109.422 141.959 109.003 142.489 108.771Z" fill="black"/>
<path opacity="0.1" d="M168.507 119.287C168.635 118.53 168.918 117.726 168.534 117.034C168.107 116.26 167.018 115.924 166.019 115.729C165.02 115.534 163.931 115.369 163.234 114.747C162.887 114.39 162.603 113.978 162.394 113.526C161.92 112.689 161.26 111.845 160.231 111.488C158.594 110.913 156.694 111.737 154.945 111.451C154.441 111.367 153.963 111.192 153.455 111.115C152.599 110.99 151.726 111.073 150.909 111.357C148.518 112.144 146.961 114.128 146.249 116.176C145.536 118.224 145.519 120.386 145.293 122.512C145.236 123.03 144.893 123.722 144.285 123.595C144.221 122.764 144.143 121.913 143.632 121.183C143.35 120.794 142.959 120.499 142.507 120.335C142.056 120.17 141.566 120.145 141.1 120.262C140.817 120.199 140.566 120.038 140.39 119.808C140.427 120.116 140.427 120.428 140.39 120.736C140.296 121.111 140.244 121.496 140.236 121.883C140.279 122.098 140.386 122.295 140.542 122.449C140.699 122.603 140.898 122.707 141.113 122.747C141.58 122.631 142.07 122.656 142.521 122.821C142.973 122.986 143.364 123.282 143.646 123.672C144.157 124.388 144.234 125.252 144.298 126.08C144.907 126.208 145.25 125.518 145.307 124.997C145.532 122.875 145.549 120.713 146.262 118.661C146.975 116.61 148.532 114.626 150.923 113.842C151.74 113.559 152.613 113.476 153.469 113.6C153.976 113.684 154.454 113.862 154.958 113.936C156.707 114.226 158.607 113.398 160.245 113.973C161.274 114.337 161.926 115.174 162.407 116.011C162.616 116.463 162.901 116.876 163.248 117.232C163.944 117.857 165.034 118.019 166.032 118.214C167.031 118.409 168.05 118.725 168.497 119.438C168.481 119.388 168.497 119.337 168.507 119.287Z" fill="black"/>
<path opacity="0.1" d="M140.377 118.241C140.432 117.614 140.395 116.983 140.266 116.368C140.167 117.018 140.146 117.677 140.202 118.332C140.202 118.5 140.239 118.668 140.262 118.833C140.299 118.634 140.35 118.439 140.377 118.241Z" fill="black"/>
</g>
<path d="M123.919 171.842V165.772C123.919 165.726 123.937 165.683 123.969 165.651C124.001 165.618 124.045 165.6 124.09 165.6H124.78C124.825 165.6 124.869 165.618 124.901 165.651C124.933 165.683 124.951 165.726 124.951 165.772V168.297L127.749 165.705C127.815 165.65 127.895 165.615 127.98 165.603C128.065 165.591 128.151 165.604 128.229 165.639C128.307 165.674 128.374 165.73 128.422 165.801C128.47 165.872 128.496 165.955 128.499 166.041V171.539C128.496 171.625 128.47 171.708 128.422 171.779C128.374 171.85 128.307 171.907 128.229 171.942C128.151 171.977 128.065 171.989 127.98 171.977C127.895 171.966 127.815 171.93 127.749 171.876L124.951 169.3V171.812C124.951 171.857 124.933 171.901 124.901 171.933C124.869 171.965 124.825 171.983 124.78 171.983H124.09C124.05 171.984 124.01 171.97 123.979 171.944C123.947 171.918 123.926 171.882 123.919 171.842Z" fill="#444053"/>
<path d="M191.523 165.772V171.842C191.523 171.865 191.519 171.887 191.51 171.908C191.501 171.929 191.488 171.948 191.472 171.964C191.455 171.98 191.436 171.993 191.415 172.001C191.394 172.01 191.371 172.014 191.348 172.013H190.676C190.63 172.013 190.587 171.995 190.554 171.963C190.522 171.931 190.504 171.887 190.504 171.842V169.316L187.706 171.906C187.64 171.96 187.56 171.995 187.475 172.007C187.39 172.018 187.304 172.006 187.225 171.971C187.147 171.936 187.08 171.88 187.032 171.809C186.984 171.738 186.956 171.655 186.953 171.57V166.051C186.956 165.965 186.984 165.882 187.032 165.812C187.08 165.741 187.147 165.685 187.225 165.65C187.304 165.615 187.39 165.602 187.475 165.614C187.56 165.625 187.64 165.66 187.706 165.715L190.504 168.291V165.782C190.504 165.737 190.522 165.693 190.554 165.661C190.587 165.629 190.63 165.611 190.676 165.611H191.348C191.393 165.61 191.436 165.626 191.468 165.656C191.501 165.686 191.52 165.728 191.523 165.772Z" fill="#444053"/>
<path d="M156.579 172.104H155.211C155.032 172.104 154.861 172.033 154.735 171.907C154.609 171.781 154.538 171.61 154.538 171.432V166.408C154.538 166.229 154.609 166.058 154.735 165.932C154.861 165.806 155.032 165.735 155.211 165.735H156.579C156.758 165.735 156.929 165.806 157.055 165.932C157.181 166.058 157.252 166.229 157.252 166.408V171.432C157.252 171.61 157.181 171.781 157.055 171.907C156.929 172.033 156.758 172.104 156.579 172.104ZM160.917 171.432V166.408C160.917 166.229 160.846 166.058 160.72 165.932C160.594 165.806 160.423 165.735 160.245 165.735H158.863C158.684 165.735 158.513 165.806 158.387 165.932C158.261 166.058 158.19 166.229 158.19 166.408V171.432C158.19 171.61 158.261 171.781 158.387 171.907C158.513 172.033 158.684 172.104 158.863 172.104H160.231C160.321 172.106 160.41 172.09 160.493 172.057C160.576 172.024 160.652 171.975 160.716 171.912C160.78 171.849 160.83 171.775 160.865 171.692C160.9 171.61 160.917 171.521 160.917 171.432Z" fill="#444053"/>
<path opacity="0.6" d="M198.074 157.59H117.365V158.488H198.074V157.59Z" fill="#444053"/>
<path d="M142.287 160.166C143.463 160.166 144.416 159.213 144.416 158.037C144.416 156.862 143.463 155.909 142.287 155.909C141.111 155.909 140.158 156.862 140.158 158.037C140.158 159.213 141.111 160.166 142.287 160.166Z" fill="#444053"/>
<path d="M142.287 157.59H117.365V158.488H142.287V157.59Z" fill="#444053"/>
<path d="M321.855 258.934C332.9 258.934 341.854 257.212 341.854 255.087C341.854 252.962 332.9 251.24 321.855 251.24C310.81 251.24 301.856 252.962 301.856 255.087C301.856 257.212 310.81 258.934 321.855 258.934Z" fill="#7EC845"/>
<path d="M321.522 256.499C322.807 256.499 323.849 255.135 323.849 253.453C323.849 251.77 322.807 250.406 321.522 250.406C320.237 250.406 319.195 251.77 319.195 253.453C319.195 255.135 320.237 256.499 321.522 256.499Z" fill="#3F3D56"/>
<path d="M321.522 252.773C322.807 252.773 323.849 251.409 323.849 249.727C323.849 248.044 322.807 246.68 321.522 246.68C320.237 246.68 319.195 248.044 319.195 249.727C319.195 251.409 320.237 252.773 321.522 252.773Z" fill="#3F3D56"/>
<path d="M321.522 249.051C322.807 249.051 323.849 247.687 323.849 246.004C323.849 244.321 322.807 242.957 321.522 242.957C320.237 242.957 319.195 244.321 319.195 246.004C319.195 247.687 320.237 249.051 321.522 249.051Z" fill="#3F3D56"/>
<path d="M321.522 245.325C322.807 245.325 323.849 243.96 323.849 242.278C323.849 240.595 322.807 239.231 321.522 239.231C320.237 239.231 319.195 240.595 319.195 242.278C319.195 243.96 320.237 245.325 321.522 245.325Z" fill="#3F3D56"/>
<path d="M321.522 241.598C322.807 241.598 323.849 240.234 323.849 238.552C323.849 236.869 322.807 235.505 321.522 235.505C320.237 235.505 319.195 236.869 319.195 238.552C319.195 240.234 320.237 241.598 321.522 241.598Z" fill="#3F3D56"/>
<path d="M321.522 237.872C322.807 237.872 323.849 236.508 323.849 234.826C323.849 233.143 322.807 231.779 321.522 231.779C320.237 231.779 319.195 233.143 319.195 234.826C319.195 236.508 320.237 237.872 321.522 237.872Z" fill="#3F3D56"/>
<path d="M321.522 234.146C322.807 234.146 323.849 232.782 323.849 231.099C323.849 229.417 322.807 228.053 321.522 228.053C320.237 228.053 319.195 229.417 319.195 231.099C319.195 232.782 320.237 234.146 321.522 234.146Z" fill="#3F3D56"/>
<path d="M330.236 205.609C330.553 205.203 330.843 204.776 331.103 204.331L324.983 203.322L331.601 203.373C332.235 201.991 332.58 200.495 332.617 198.975C332.653 197.456 332.38 195.945 331.813 194.535L322.941 199.142L331.127 193.126C330.36 191.8 329.328 190.646 328.096 189.736C326.864 188.827 325.457 188.181 323.964 187.838C322.471 187.496 320.924 187.465 319.418 187.746C317.913 188.028 316.481 188.617 315.213 189.476C313.946 190.336 312.868 191.447 312.048 192.741C311.229 194.034 310.684 195.483 310.449 196.997C310.213 198.51 310.292 200.056 310.68 201.538C311.068 203.019 311.758 204.405 312.705 205.609C312.212 206.235 311.786 206.911 311.434 207.627L319.377 211.753L310.909 208.911C310.315 210.668 310.167 212.546 310.481 214.375C310.795 216.203 311.559 217.924 312.705 219.383C311.412 221.028 310.608 223.004 310.384 225.084C310.161 227.165 310.527 229.266 311.442 231.148C312.356 233.03 313.782 234.617 315.556 235.727C317.329 236.837 319.379 237.426 321.472 237.426C323.564 237.426 325.615 236.837 327.388 235.727C329.162 234.617 330.587 233.03 331.502 231.148C332.416 229.266 332.783 227.165 332.56 225.084C332.336 223.004 331.532 221.028 330.239 219.383C331.784 217.417 332.623 214.99 332.623 212.489C332.623 209.989 331.784 207.561 330.239 205.595L330.236 205.609Z" fill="#7EC845"/>
<path opacity="0.1" d="M310.32 212.503C310.316 215.004 311.156 217.433 312.705 219.397C311.412 221.042 310.607 223.017 310.384 225.098C310.161 227.178 310.527 229.28 311.442 231.162C312.356 233.044 313.782 234.63 315.555 235.741C317.329 236.851 319.379 237.439 321.472 237.439C323.564 237.439 325.614 236.851 327.388 235.741C329.162 234.63 330.587 233.044 331.502 231.162C332.416 229.28 332.783 227.178 332.559 225.098C332.336 223.017 331.532 221.042 330.239 219.397C331.732 217.503 310.32 211.252 310.32 212.503Z" fill="black"/>
<path opacity="0.1" d="M97.5235 279.643C115.911 279.643 130.816 276.481 130.816 272.581C130.816 268.68 115.911 265.519 97.5235 265.519C79.1365 265.519 64.2309 268.68 64.2309 272.581C64.2309 276.481 79.1365 279.643 97.5235 279.643Z" fill="#7EC845"/>
<path d="M108.671 271.76C107.999 271.515 107.279 271.555 106.576 271.478C105.117 271.309 103.758 270.65 102.723 269.608C102.056 268.935 101.533 268.134 101.182 267.254C101.404 267.335 101.626 267.419 101.855 267.51C101.182 265.939 101.889 264.177 102.507 262.59C103.557 259.899 104.549 257.194 105.483 254.475C107.838 247.584 109.855 240.418 109.812 233.087C109.812 230.437 109.324 227.932 109.23 225.285C109.159 223.321 109.462 221.361 109.448 219.393C109.448 219.118 109.448 218.845 109.428 218.569C110.03 218.043 110.502 217.385 110.81 216.647C111.117 215.909 111.251 215.11 111.2 214.312C111.166 213.896 111.107 213.483 111.022 213.074C110.903 212.365 110.746 211.662 110.551 210.969C110.329 210.239 110.027 209.54 109.768 208.827C109.267 207.445 108.927 206.006 108.5 204.6C108.658 204.616 108.813 204.658 108.957 204.724C108.85 204.598 108.776 204.446 108.742 204.284C108.491 203.389 108.355 202.466 108.339 201.536L108.624 201.409C108.753 200.501 108.706 199.578 108.487 198.688C108.648 197.245 108.9 195.792 109.055 194.357C109.112 193.818 109.089 193.143 108.594 193.011C108.493 192.241 108.453 191.461 108.413 190.684C108.271 187.974 108.131 185.264 107.992 182.556C107.851 179.836 107.71 177.118 107.656 174.394C107.619 172.666 107.599 170.877 107.188 169.222C107.259 168.43 107.178 167.631 106.95 166.868C106.324 164.888 104.38 163.317 102.41 163.428C101.822 162.587 101.095 161.852 100.261 161.256C100.654 160.375 101.125 159.467 101.512 158.754C104.666 157.728 106.973 154.617 106.973 150.918C106.978 149.564 106.661 148.228 106.048 147.02C106.106 146.872 106.156 146.721 106.196 146.567C106.365 145.84 106.313 145.08 106.045 144.384C105.95 144.117 105.838 143.856 105.709 143.604C105.621 143.436 105.527 143.268 105.43 143.106L105.258 142.847C105.154 142.689 105.046 142.538 104.922 142.39C104.683 142.069 104.427 141.762 104.155 141.468C103.82 141.106 103.451 140.777 103.052 140.486C102.511 140.084 101.893 139.799 101.236 139.649C100.856 139.574 100.47 139.539 100.083 139.545C99.8506 139.545 99.6152 139.545 99.3832 139.565C98.9124 139.592 98.445 139.626 97.9775 139.622C97.8228 139.622 97.6648 139.622 97.5101 139.599C96.6872 139.489 95.8734 139.319 95.0753 139.091L94.6718 139.007C94.5339 138.98 94.3994 138.956 94.2615 138.939C93.8926 138.89 93.5206 138.868 93.1484 138.872H92.7751C92.4023 138.89 92.0307 138.928 91.662 138.987L91.2921 139.044C90.358 139.19 89.4476 139.46 88.585 139.847C88.474 139.898 88.3596 139.955 88.2487 140.016L88.1814 140.053C88.0906 140.1 87.9998 140.15 87.9124 140.204L87.8619 140.234L87.5761 140.416L87.5526 140.433C84.8824 142.228 83.3052 145.632 82.905 149.008C82.4578 152.798 83.2413 156.618 84.0249 160.348L84.7311 163.711C84.7613 163.862 84.795 164.01 84.8252 164.161C83.8322 164.976 83.0685 166.035 82.6091 167.235C81.9365 168.916 81.9197 170.736 81.9735 172.558C81.9735 172.928 81.9937 173.298 82.0307 173.668C81.9466 174.368 81.8726 175.07 81.8255 175.777C81.6137 179.039 82.0105 182.317 81.9063 185.586C81.8255 188.105 81.4455 190.63 81.6305 193.132C81.7919 195.352 82.3871 197.504 82.9757 199.646L83.8231 202.7C83.8506 202.858 83.9243 203.004 84.035 203.12C84.1741 203.214 84.3444 203.249 84.5091 203.218C83.9579 204.47 83.4971 205.76 83.1304 207.078C82.877 207.886 82.7101 208.718 82.6326 209.56C82.5217 211.1 82.8781 212.631 83.2346 214.127C83.7727 216.369 84.3085 218.62 84.8421 220.88C85.2187 222.46 85.5942 224.04 85.9686 225.618C86.7085 228.732 87.4517 231.866 87.5895 235.071C87.6664 236.681 87.5535 238.294 87.2532 239.877C86.283 244.618 86.142 249.491 86.8363 254.28C87.3975 258.32 88.3078 262.305 89.5568 266.188C89.8292 266.043 90.105 265.909 90.3875 265.784L90.2698 266.003C89.8819 266.675 89.5232 267.365 89.1936 268.071C88.9715 268.53 88.7794 269.003 88.6186 269.487C88.1881 270.832 88.1209 272.265 88.0603 273.68C88.0295 273.953 88.0536 274.228 88.131 274.491C88.3159 274.999 88.8473 275.258 89.3416 275.399C90.7944 275.812 92.3043 275.665 93.8143 275.469C93.8212 275.503 93.8314 275.536 93.8445 275.567C94.0295 276.075 94.5575 276.334 95.0552 276.475C97.1334 277.067 99.326 276.509 101.468 276.307C103.61 276.105 105.716 276.253 107.777 275.759C108.084 275.693 108.379 275.58 108.651 275.422C109.181 275.052 109.57 274.512 109.754 273.892C109.819 273.732 109.862 273.563 109.882 273.391C109.966 272.655 109.337 272.006 108.671 271.76ZM101.559 240.616C101.443 241.404 101.217 242.172 100.886 242.897C99.2687 246.336 98.1087 249.974 97.4361 253.715C96.9947 256.186 96.7395 258.688 96.6727 261.197C96.6391 263.047 96.7097 264.984 95.9396 266.645L96.2187 266.602C96.1313 266.763 96.0472 266.938 95.9665 267.066L95.9261 267.14C95.4604 266.347 95.1489 265.472 95.0081 264.564C95.0081 264.533 94.8567 264.51 94.6247 264.496C93.674 259.184 93.3445 253.78 93.6427 248.391C93.6473 247.738 93.7377 247.088 93.9118 246.458C94.0833 245.916 94.3725 245.422 94.5844 244.897C94.9203 244.016 95.1462 243.097 95.2569 242.16C95.6232 239.766 95.7651 237.343 95.6807 234.923C95.5999 232.64 96.1279 230.37 96.5785 228.096C96.7938 227.017 96.9922 225.934 97.0998 224.851L97.12 224.633C99.1208 227.933 100.519 231.563 101.25 235.354C101.656 237.077 101.76 238.857 101.559 240.616ZM87.1658 192.016L87.2734 192.11C87.5985 192.396 87.8978 192.71 88.168 193.048C88.3024 193.196 88.3993 193.373 88.4504 193.566C88.5513 194.057 88.1444 194.474 87.8115 194.834C87.6668 194.99 87.531 195.154 87.4046 195.325C87.3328 194.222 87.2566 193.119 87.1759 192.016H87.1658Z" fill="url(#paint0_linear_1_3974)"/>
<path d="M82.5116 170.937L82.1417 173.792C82.0172 174.761 81.8928 175.726 81.8256 176.698C81.6002 179.933 82.0172 183.182 81.9096 186.423C81.8222 188.919 81.4254 191.411 81.6171 193.903C81.7886 196.102 82.4141 198.241 83.0395 200.359L83.9274 203.386C83.9577 203.544 84.0351 203.689 84.1493 203.803C84.3204 203.904 84.5235 203.937 84.7176 203.894L88.6589 203.537C88.4067 202.38 88.1276 201.183 87.9864 199.996C87.8788 199.068 87.8149 198.133 87.7476 197.198C87.5391 194.286 87.3003 191.374 87.075 188.455L86.6547 183.343C86.4764 181.124 86.2915 178.894 85.7332 176.738C85.1731 174.561 84.0638 172.564 82.5116 170.937Z" fill="#7EC845"/>
<path opacity="0.1" d="M82.5116 170.937L82.1417 173.792C82.0172 174.761 81.8928 175.726 81.8256 176.698C81.6002 179.933 82.0172 183.182 81.9096 186.423C81.8222 188.919 81.4254 191.411 81.6171 193.903C81.7886 196.102 82.4141 198.241 83.0395 200.359L83.9274 203.386C83.9577 203.544 84.0351 203.689 84.1493 203.803C84.3204 203.904 84.5235 203.937 84.7176 203.894L88.6589 203.537C88.4067 202.38 88.1276 201.183 87.9864 199.996C87.8788 199.068 87.8149 198.133 87.7476 197.198C87.5391 194.286 87.3003 191.374 87.075 188.455L86.6547 183.343C86.4764 181.124 86.2915 178.894 85.7332 176.738C85.1731 174.561 84.0638 172.564 82.5116 170.937Z" fill="black"/>
<path d="M89.5333 268.132C89.3019 268.587 89.0998 269.056 88.928 269.537C88.4774 270.866 88.4101 272.292 88.3429 273.694C88.3131 273.964 88.3383 274.237 88.4168 274.498C88.6119 275.002 89.1701 275.258 89.6914 275.396C91.8739 275.984 94.1741 275.432 96.4171 275.231C98.6602 275.029 100.876 275.177 103.042 274.689C103.362 274.628 103.671 274.52 103.96 274.37C104.508 274.013 104.918 273.479 105.12 272.857C105.186 272.697 105.23 272.53 105.251 272.359C105.322 271.619 104.68 270.98 103.98 270.738C103.281 270.496 102.517 270.533 101.781 270.459C100.264 270.304 98.8409 269.652 97.7319 268.606C96.6229 267.56 95.89 266.177 95.647 264.671C95.6201 264.51 92.0017 264.607 91.6116 264.816C91.1677 265.061 90.8986 265.67 90.6464 266.084C90.2496 266.75 89.8786 267.432 89.5333 268.132Z" fill="#A26565"/>
<path opacity="0.1" d="M89.5333 268.132C89.3019 268.587 89.0998 269.056 88.928 269.537C88.4774 270.866 88.4101 272.292 88.3429 273.694C88.3131 273.964 88.3383 274.237 88.4168 274.498C88.6119 275.002 89.1701 275.258 89.6914 275.396C91.8739 275.984 94.1741 275.432 96.4171 275.231C98.6602 275.029 100.876 275.177 103.042 274.689C103.362 274.628 103.671 274.52 103.96 274.37C104.508 274.013 104.918 273.479 105.12 272.857C105.186 272.697 105.23 272.53 105.251 272.359C105.322 271.619 104.68 270.98 103.98 270.738C103.281 270.496 102.517 270.533 101.781 270.459C100.264 270.304 98.8409 269.652 97.7319 268.606C96.6229 267.56 95.89 266.177 95.647 264.671C95.6201 264.51 92.0017 264.607 91.6116 264.816C91.1677 265.061 90.8986 265.67 90.6464 266.084C90.2496 266.75 89.8786 267.432 89.5333 268.132Z" fill="black"/>
<path d="M95.5361 269.201C95.3033 269.654 95.101 270.123 94.9307 270.603C94.4767 271.949 94.4095 273.358 94.3456 274.76C94.3142 275.03 94.3394 275.304 94.4196 275.564C94.6113 276.068 95.1695 276.324 95.6907 276.465C97.8733 277.05 100.177 276.499 102.417 276.297C104.656 276.095 106.879 276.243 109.041 275.755C109.363 275.69 109.672 275.577 109.959 275.419C110.509 275.063 110.918 274.528 111.12 273.906C111.185 273.746 111.229 273.579 111.251 273.408C111.321 272.672 110.679 272.029 109.98 271.787C109.28 271.545 108.517 271.585 107.78 271.508C106.264 271.352 104.842 270.701 103.733 269.656C102.624 268.61 101.891 267.228 101.646 265.724C101.62 265.562 98.0011 265.657 97.611 265.865C97.1637 266.111 96.8947 266.719 96.6424 267.133C96.2591 267.816 95.8824 268.502 95.5361 269.201Z" fill="#A26565"/>
<path d="M111.184 233.477C111.231 240.744 109.119 247.847 106.64 254.663C105.658 257.367 104.617 260.047 103.516 262.704C102.864 264.278 102.127 266.026 102.827 267.58C100.809 266.813 98.7576 266.363 96.6357 266.716C97.4427 265.068 97.3654 263.151 97.4024 261.335C97.4709 258.846 97.7363 256.367 98.196 253.92C98.9083 250.196 100.129 246.587 101.825 243.196C102.167 242.481 102.404 241.719 102.527 240.936C102.803 239.207 102.588 237.432 102.228 235.72C101.454 231.939 99.9829 228.336 97.89 225.093L97.8698 225.309C97.7442 226.39 97.5624 227.464 97.3251 228.527C96.8509 230.777 96.296 233.03 96.3801 235.293C96.4678 237.693 96.3191 240.095 95.9362 242.466C95.8129 243.397 95.5698 244.308 95.2132 245.177C94.9811 245.698 94.6785 246.185 94.4969 246.727C94.3151 247.35 94.22 247.995 94.2144 248.644C93.9453 254.115 94.2144 259.671 95.3309 265.034C93.4577 264.886 91.5846 265.428 89.9099 266.269C88.6004 262.429 87.6437 258.478 87.0514 254.465C86.3217 249.719 86.4699 244.879 87.4886 240.186C87.8061 238.621 87.9247 237.022 87.8417 235.428C87.6971 232.25 86.9169 229.142 86.1401 226.055L84.9563 221.347C84.3959 219.105 83.8354 216.873 83.2749 214.652C82.9016 213.169 82.525 211.652 82.6427 210.125C82.7248 209.288 82.9007 208.462 83.1673 207.664C84.0069 204.948 85.2627 202.38 86.89 200.05C93.3703 200.413 99.9279 199.808 106.395 199.31C106.708 199.248 107.034 199.303 107.309 199.465C107.53 199.689 107.661 199.985 107.679 200.299L110.111 214.087C110.504 216.003 110.735 217.949 110.8 219.904C110.8 221.855 110.497 223.799 110.571 225.746C110.672 228.369 111.17 230.851 111.184 233.477Z" fill="#454B69"/>
<path opacity="0.1" d="M97.8766 225.309C97.751 226.39 97.5692 227.464 97.3319 228.527C95.9228 226.089 94.4028 223.711 93.1047 221.213C92.7684 220.57 92.4523 219.918 92.1328 219.265L91.1744 217.315C90.9962 216.948 90.8179 216.582 90.6565 216.209C90.3937 215.672 90.1918 215.108 90.0546 214.527C90.5254 214.44 91.6889 215.711 92.0387 216.044C92.7521 216.75 93.4257 217.496 94.0564 218.277C94.8224 219.145 95.5259 220.067 96.1616 221.034C96.9755 222.35 97.5557 223.796 97.8766 225.309Z" fill="black"/>
<path d="M103.274 158.417C103.274 158.417 99.6758 164.151 100.342 165.352C101.008 166.552 89.0087 164.286 89.0087 164.286C89.0087 164.286 95.5428 158.552 94.8736 156.151C94.2044 153.75 103.274 158.417 103.274 158.417Z" fill="#EFB7B9"/>
<path d="M100.076 160.153C104.569 160.153 108.211 156.51 108.211 152.018C108.211 147.525 104.569 143.883 100.076 143.883C95.5831 143.883 91.941 147.525 91.941 152.018C91.941 156.51 95.5831 160.153 100.076 160.153Z" fill="#EFB7B9"/>
<path d="M103.395 164.43C102.524 163.222 101.342 162.271 99.975 161.679C99.1872 161.397 98.3724 161.197 97.5436 161.081L94.2984 160.509C93.5048 160.368 92.654 160.237 91.9142 160.563C91.5401 160.755 91.1994 161.006 90.9053 161.306C89.7787 162.352 88.6858 163.499 87.27 164.104C86.8833 164.269 86.4797 164.39 86.093 164.555C84.5091 165.227 83.3253 166.66 82.6561 168.254C81.9499 169.915 81.9297 171.721 81.9835 173.527C81.9826 174.15 82.0446 174.772 82.1685 175.383C82.3304 175.965 82.5361 176.534 82.7839 177.085C83.231 178.264 83.6061 179.469 83.9071 180.693C84.7478 183.91 85.4473 187.161 86.0056 190.446C86.0529 190.916 86.1911 191.373 86.4125 191.791C86.726 192.209 87.1053 192.573 87.5357 192.87C87.877 193.15 88.1912 193.462 88.4739 193.802C88.6148 193.94 88.7198 194.111 88.7799 194.299C88.8842 194.784 88.4436 195.201 88.1074 195.554C87.3837 196.292 86.8605 197.203 86.5873 198.2C86.4187 198.405 86.3323 198.665 86.3452 198.93C86.4153 199.114 86.4417 199.312 86.4225 199.508C86.3563 199.687 86.2519 199.849 86.1165 199.983C85.9614 200.185 85.8511 200.418 85.7931 200.666C85.7351 200.914 85.7307 201.172 85.7802 201.422C88.3009 202.517 90.9986 203.148 93.7436 203.285C94.4161 203.319 95.0887 203.319 95.7613 203.399C96.2388 203.46 96.7096 203.557 97.1872 203.615C97.8801 203.68 98.5767 203.698 99.2722 203.668C102.894 203.594 106.62 203.504 109.946 202.068C110.259 200.363 109.583 198.624 109.159 196.943C108.486 194.252 108.318 191.498 107.814 188.784C107.478 186.931 106.973 185.105 106.687 183.239C106.401 181.372 106.351 179.439 106.849 177.623C107.303 176.015 107.441 174.374 107.911 172.77C108.382 171.166 108.712 169.427 108.18 167.84C107.508 165.876 105.467 164.319 103.395 164.43Z" fill="#7EC845"/>
<path d="M107.39 147.703C107.787 146.26 107.007 144.757 106.079 143.584C105.07 142.323 103.785 141.186 102.208 140.87C100.927 140.611 99.5985 140.924 98.2937 140.819C97.1402 140.729 96.0304 140.312 94.8837 140.147C93.8432 140.035 92.792 140.074 91.7629 140.264C90.7863 140.41 89.8317 140.676 88.9213 141.058C85.4575 142.595 83.4297 146.382 82.9589 150.138C82.4881 153.894 83.312 157.681 84.1325 161.377L84.8757 164.719C85.6492 168.2 86.4226 171.694 86.6278 175.252C86.8329 178.81 86.4495 182.462 84.9867 185.711C89.7175 183.169 93.3831 179.019 95.3209 174.011C95.8455 172.636 96.2356 171.206 96.8207 169.855C97.3218 168.691 97.9641 167.588 98.408 166.401C98.9097 165.061 99.1506 163.638 99.1176 162.207C99.0907 161.131 98.9124 160.062 98.9427 158.986C98.973 157.91 99.2487 156.79 99.9919 156.009C100.664 155.32 101.589 155.001 102.44 154.553C103.779 153.865 104.95 152.889 105.867 151.695C106.402 150.995 106.432 150.686 106.566 149.892C106.701 149.099 107.182 148.467 107.39 147.703Z" fill="#A26565"/>
<path d="M107.4 208.81C107.484 209.648 107.333 210.492 107.515 211.322C107.652 211.941 107.972 212.499 108.16 213.105C108.347 213.804 108.443 214.523 108.446 215.247C108.473 215.852 108.426 216.592 107.888 216.874C107.652 216.999 107.37 216.999 107.124 217.106C106.879 217.214 106.67 217.507 106.812 217.735C106.953 217.964 107.195 217.927 107.417 217.971C107.639 218.014 107.878 218.243 107.753 218.428C107.703 218.489 107.635 218.532 107.558 218.553C107.334 218.622 107.121 218.724 106.926 218.855C106.831 218.924 106.757 219.018 106.711 219.127C106.665 219.235 106.65 219.354 106.667 219.471C106.681 219.526 106.707 219.578 106.743 219.622C106.78 219.667 106.826 219.702 106.878 219.726C106.93 219.75 106.987 219.762 107.044 219.761C107.101 219.759 107.157 219.745 107.209 219.719C107.11 219.93 107.056 220.159 107.05 220.392C107.911 220.762 108.877 220.278 109.684 219.81C110.033 219.616 110.37 219.4 110.693 219.165C111.345 218.663 111.866 218.01 112.208 217.261C112.55 216.513 112.704 215.692 112.656 214.87C112.618 214.457 112.554 214.047 112.465 213.643C112.341 212.938 112.176 212.24 111.97 211.554C111.738 210.831 111.422 210.142 111.15 209.432C110.571 207.922 110.198 206.342 109.674 204.812C109.639 204.653 109.549 204.512 109.421 204.412C109.306 204.355 109.177 204.33 109.048 204.341C108.459 204.31 107.869 204.364 107.296 204.502C106.96 204.603 106.385 204.839 106.227 205.175C106.069 205.511 106.321 205.794 106.472 206.073C106.955 206.917 107.271 207.846 107.4 208.81Z" fill="#EFB7B9"/>
<path opacity="0.1" d="M106.852 167.948C107.025 168.125 107.17 168.326 107.283 168.546C108.44 170.648 108.453 173.16 108.507 175.558C108.567 178.248 108.715 180.939 108.863 183.646L109.304 191.717C109.347 192.487 109.388 193.257 109.499 194.02C110.017 194.151 110.037 194.824 109.98 195.365C109.606 198.654 108.682 202.041 109.643 205.205C109.681 205.368 109.758 205.518 109.869 205.642C109.38 205.489 108.858 205.482 108.366 205.622C107.885 205.723 107.421 205.901 106.936 206.012C106.324 206.15 105.631 206.211 105.214 206.685C104.742 205.264 104.366 203.812 104.088 202.34C103.859 200.995 103.795 199.609 103.251 198.365C103.032 197.864 102.736 197.4 102.467 196.919C101.058 194.404 100.365 191.562 99.6893 188.757C99.386 187.428 99.3132 186.056 99.474 184.702C99.5719 184.084 99.628 183.46 99.6422 182.835C99.6012 182.175 99.5147 181.519 99.3832 180.871C99.0976 178.97 99.2319 177.029 99.7767 175.185C100.281 173.473 100.725 171.67 101.794 170.231C102.864 168.792 105.067 167.971 106.852 167.948Z" fill="black"/>
<path d="M107.252 167.679C107.425 167.857 107.57 168.06 107.683 168.281C108.84 170.379 108.853 172.895 108.907 175.292C108.967 177.983 109.115 180.673 109.263 183.363L109.704 191.434C109.748 192.204 109.788 192.974 109.899 193.738C110.417 193.869 110.437 194.542 110.376 195.083C110.006 198.372 109.082 201.755 110.04 204.923C110.077 205.085 110.155 205.236 110.265 205.36C109.777 205.207 109.255 205.2 108.762 205.34C108.281 205.441 107.817 205.619 107.333 205.726C106.721 205.868 106.028 205.925 105.611 206.399C105.14 204.971 104.767 203.513 104.495 202.034C104.266 200.689 104.202 199.307 103.657 198.062C103.421 197.568 103.159 197.085 102.874 196.616C101.461 194.101 100.772 191.256 100.096 188.451C99.7927 187.122 99.7199 185.75 99.8808 184.396C100.134 183.128 100.103 181.82 99.79 180.565C99.5043 178.665 99.6386 176.725 100.183 174.882C100.688 173.17 101.132 171.368 102.201 169.929C103.271 168.489 105.467 167.706 107.252 167.679Z" fill="#7EC845"/>
<g opacity="0.1">
<path opacity="0.1" d="M106.079 143.584C105.07 142.323 103.785 141.186 102.208 140.87C100.927 140.611 99.5984 140.924 98.2936 140.819C97.1401 140.729 96.0303 140.312 94.8836 140.147C93.8431 140.035 92.7919 140.074 91.7628 140.265C90.7863 140.41 89.8317 140.676 88.9212 141.058C88.4294 141.278 87.9598 141.545 87.5189 141.855C88.3293 141.54 89.1716 141.315 90.0309 141.183C91.0588 140.992 92.109 140.952 93.1483 141.065C94.2984 141.213 95.4048 141.626 96.5617 141.717C97.8631 141.822 99.1915 141.512 100.476 141.768C102.053 142.084 103.345 143.224 104.343 144.485C105.275 145.655 106.052 147.158 105.658 148.604C105.45 149.364 104.966 150.03 104.834 150.814C104.703 151.597 104.67 151.917 104.132 152.616C103.442 153.513 102.607 154.29 101.663 154.913C101.922 154.792 102.188 154.671 102.44 154.54C103.779 153.852 104.95 152.876 105.867 151.682C106.401 150.982 106.432 150.673 106.566 149.879C106.701 149.085 107.182 148.433 107.39 147.67C107.787 146.261 107.007 144.757 106.079 143.584Z" fill="black"/>
<path opacity="0.1" d="M99.9918 156.03C100.131 155.885 100.283 155.754 100.446 155.636C99.669 156.013 98.8518 156.342 98.2565 156.981C97.5133 157.758 97.2477 158.881 97.2073 159.958C97.167 161.034 97.3586 162.103 97.3822 163.176C97.4152 164.607 97.1744 166.032 96.6726 167.373C96.2287 168.56 95.5864 169.659 95.0853 170.826C94.5036 172.172 94.1135 173.604 93.5888 174.98C91.9077 179.322 88.9225 183.037 85.0437 185.613C85.0236 185.657 85.0067 185.704 84.9866 185.748C89.7174 183.206 93.383 179.056 95.3207 174.048C95.8454 172.673 96.2354 171.243 96.8206 169.892C97.3217 168.728 97.964 167.625 98.4079 166.438C98.9096 165.098 99.1505 163.675 99.1174 162.244C99.0905 161.168 98.9123 160.099 98.9426 159.023C98.9728 157.947 99.2486 156.81 99.9918 156.03Z" fill="black"/>
</g>
<defs>
<linearGradient id="paint0_linear_1_3974" x1="96.407" y1="276.727" x2="96.407" y2="138.882" gradientUnits="userSpaceOnUse">
<stop stop-color="#808080" stop-opacity="0.25"/>
<stop offset="0.54" stop-color="#808080" stop-opacity="0.12"/>
<stop offset="1" stop-color="#808080" stop-opacity="0.1"/>
</linearGradient>
</defs>
</svg>
