<svg width="380" height="233" viewBox="0 0 380 233" fill="none" xmlns="http://www.w3.org/2000/svg">
<path opacity="0.1" d="M229.674 78.4678C227.619 78.0778 225.493 78.3097 223.57 79.1339C222.41 79.6482 221.154 79.9112 219.885 79.9056C218.616 79.9 217.362 79.6258 216.207 79.1011C214.844 78.5038 213.367 78.2094 211.879 78.2383C210.391 78.2672 208.927 78.6187 207.588 79.2686C206.823 79.6746 205.971 79.8882 205.105 79.891C201.611 79.891 198.703 76.3712 198.099 71.7268C198.796 71.2158 199.389 70.5758 199.846 69.8414C201.895 66.54 205.069 64.4216 208.632 64.4216C212.196 64.4216 215.33 66.5145 217.368 69.7831C217.981 70.7717 218.84 71.5849 219.86 72.1436C220.881 72.7023 222.028 72.9876 223.192 72.9716H223.283C226.074 72.9862 228.484 75.2174 229.674 78.4678Z" fill="#7EC845"/>
<path opacity="0.1" d="M240.303 63.8902L234.654 67.4755L238.082 61.2368C237.11 60.4626 235.908 60.0337 234.665 60.0174H234.574C234.181 60.0244 233.789 59.9964 233.402 59.9337L231.494 61.1458L232.317 59.6534C230.959 59.1796 229.787 58.2876 228.968 57.1056L225.539 59.2895L227.723 55.3548C225.718 52.9489 223.017 51.4711 220.047 51.4711C216.484 51.4711 213.31 53.5931 211.26 56.8944C210.654 57.8857 209.796 58.698 208.772 59.2481C207.749 59.7981 206.598 60.0662 205.437 60.0247H205.244C201.309 60.0247 198.12 64.4872 198.12 69.987C198.12 75.4868 201.309 79.9492 205.244 79.9492C206.109 79.9464 206.961 79.7341 207.726 79.3305C209.065 78.6791 210.529 78.3265 212.017 78.2969C213.505 78.2674 214.982 78.5617 216.345 79.1594C217.497 79.677 218.746 79.9461 220.009 79.9492C221.272 79.9524 222.521 79.6894 223.676 79.1776C225.029 78.5913 226.492 78.3025 227.967 78.3308C229.441 78.359 230.892 78.7037 232.222 79.3414C232.979 79.7377 233.821 79.9461 234.675 79.9492C238.61 79.9492 241.799 75.4904 241.799 69.987C241.82 67.8613 241.306 65.7645 240.303 63.8902Z" fill="#7EC845"/>
<path d="M182.163 101.978C182.385 101.945 182.607 101.901 182.826 101.847C182.798 102.066 182.735 102.28 182.64 102.48C182.379 102.867 182.023 103.18 181.606 103.39C181.553 103.34 181.484 103.31 181.411 103.306C181.338 103.301 181.265 103.322 181.206 103.364C180.737 103.641 180.362 104.049 179.863 104.289C179.688 104.376 179.499 104.445 179.335 104.54C178.928 104.794 178.59 105.146 178.352 105.563C178.27 105.663 178.216 105.783 178.195 105.911C178.175 106.039 178.189 106.17 178.236 106.291C178.288 106.365 178.357 106.426 178.436 106.469C178.639 106.61 178.881 106.683 179.128 106.677C179.277 106.677 179.419 106.611 179.564 106.586C179.71 106.56 179.958 106.586 180.154 106.549C180.439 106.514 180.718 106.442 180.984 106.335L181.956 105.996C182.233 105.908 182.502 105.797 182.76 105.665C182.913 105.585 183.059 105.486 183.219 105.41C183.395 105.331 183.578 105.267 183.765 105.217L184.318 105.053C184.399 105.024 184.484 105.013 184.569 105.021C184.646 105.021 184.711 105.082 184.788 105.104C184.91 105.128 185.036 105.117 185.152 105.071L185.796 104.886C185.931 104.856 186.061 104.803 186.178 104.729C186.307 104.603 186.406 104.447 186.465 104.276C186.524 104.105 186.543 103.923 186.52 103.743C186.517 103.193 186.454 102.645 186.331 102.109C186.25 102.142 186.178 102.196 186.123 102.265C186.058 102.171 185.982 102.083 185.912 101.999C185.617 101.657 185.398 101.255 185.272 100.82C185.505 100.648 185.701 100.43 185.847 100.18C185.508 98.8874 185.159 97.5734 184.471 96.4305C184.245 96.0665 183.987 95.7025 183.743 95.3385C183.073 94.2757 182.935 92.9326 182.171 91.9389C182.097 91.838 182.057 91.7163 182.057 91.5913C182.057 91.4664 182.097 91.3446 182.171 91.2437C182.258 91.1309 182.4 91.018 182.371 90.8797C182.342 90.7414 182.247 90.6795 182.287 90.5849C182.327 90.4902 182.353 90.5121 182.393 90.4757C182.52 90.3556 182.505 90.1481 182.516 89.9697C182.589 89.5227 182.781 89.1037 183.073 88.7577C183.124 88.6698 183.194 88.594 183.277 88.5357C183.346 88.492 183.426 88.4738 183.496 88.4301C183.743 88.2772 183.725 87.9169 183.841 87.6512C183.994 87.2872 184.38 87.1198 184.635 86.8358C184.955 86.4719 185.035 85.9659 185.363 85.6493C185.397 85.6161 185.433 85.5857 185.472 85.5583C185.327 86.0991 185.26 86.6582 185.275 87.218C185.243 89.1362 185.716 91.1236 185.494 93.0418C185.319 94.5523 186.244 96.0629 187.55 96.8163C188.063 97.0901 188.599 97.3179 189.152 97.497C189.974 97.7918 190.79 98.0939 191.594 98.4288C192.162 98.6714 192.723 98.9274 193.276 99.1968C193.956 99.5317 194.618 99.9023 195.26 100.307C196.076 100.763 196.801 101.365 197.4 102.083C197.745 102.06 198.075 101.933 198.346 101.719C198.561 101.89 198.823 102.018 199.027 102.207C199.304 102.5 199.49 102.868 199.562 103.266H199.478L199.507 103.834C199.515 103.882 199.507 103.932 199.485 103.976C199.464 104.003 199.438 104.027 199.409 104.045L198.972 104.34C198.655 104.555 198.306 104.824 198.288 105.21C198.277 105.322 198.311 105.435 198.383 105.523C198.49 105.622 198.627 105.683 198.772 105.698C199.523 105.899 200.304 105.971 201.08 105.909C201.452 105.884 201.802 105.724 202.062 105.457C202.265 105.181 202.391 104.855 202.426 104.515C202.521 103.943 202.601 103.368 202.663 102.789C202.681 102.399 202.76 102.013 202.896 101.646C202.906 101.614 202.928 101.587 202.958 101.57C202.991 101.57 203.031 101.57 203.063 101.57C203.082 101.558 203.098 101.542 203.11 101.523C203.122 101.504 203.13 101.483 203.132 101.461C203.271 100.9 203.34 100.324 203.336 99.7464C203.341 99.5965 203.318 99.4472 203.267 99.306C203.208 99.1869 203.122 99.0828 203.017 99.0014C202.912 98.9201 202.79 98.8637 202.659 98.8364C202.401 98.7842 202.14 98.7537 201.877 98.7454C201.656 98.7246 201.438 98.6831 201.225 98.6217C201.139 98.5912 201.047 98.58 200.956 98.5889C200.91 98.595 200.868 98.6175 200.837 98.6523C200.806 98.6871 200.789 98.7318 200.788 98.7782C200.794 98.8109 200.806 98.842 200.825 98.8692L200.603 98.8255C200.424 98.7927 200.17 98.7127 199.908 98.6508V98.5125C199.907 98.4616 199.893 98.4118 199.866 98.3687C199.839 98.3257 199.8 98.291 199.755 98.2686L196.009 96.2667L195.307 95.9027C193.771 95.0801 192.184 94.323 190.648 93.5004C190.542 93.5332 190.459 93.413 190.429 93.3111C190.4 93.2092 190.378 93.0782 190.28 93.0345C190.182 92.9908 190.167 93.009 190.131 92.969C190.119 92.9512 190.11 92.931 190.105 92.9097C190.101 92.8885 190.101 92.8665 190.105 92.8452C190.156 92.0954 190.691 91.4075 190.582 90.6613C190.481 90.359 190.435 90.0408 190.448 89.7222C190.525 89.5167 190.62 89.3182 190.732 89.1289C190.914 88.674 190.732 88.1243 190.932 87.673C191.066 87.3793 191.158 87.068 191.205 86.7485C191.302 86.1165 191.495 85.5028 191.776 84.9286C191.911 84.6356 192.089 84.3645 192.304 84.1242C192.417 84.0004 192.544 83.8912 192.65 83.7602C192.948 83.3452 193.134 82.8598 193.188 82.3515C193.403 81.4481 193.429 80.5102 193.265 79.5962C193.169 79.295 193.111 78.9833 193.09 78.668C193.09 78.304 193.239 77.86 193.057 77.5579C193.251 77.4083 193.381 77.1912 193.421 76.95C193.423 76.8651 193.44 76.7812 193.472 76.7025C193.532 76.6121 193.613 76.5382 193.709 76.4878C193.855 76.3753 193.966 76.2243 194.03 76.052C194.094 75.8796 194.109 75.6926 194.073 75.5123C194.266 75.5996 194.47 75.4031 194.561 75.2102C194.652 75.0173 194.724 74.777 194.925 74.697C195.065 74.6654 195.207 74.6447 195.351 74.6351C195.576 74.5768 195.714 74.3584 195.875 74.1874C196.229 73.869 196.637 73.6163 197.079 73.4412C198.335 72.8042 199.362 71.7924 200.355 70.795C200.876 70.3089 201.349 69.7738 201.768 69.1971C201.88 69.0322 201.984 68.8608 202.077 68.6839H202.102V68.713C202.102 68.7749 202.135 68.8368 202.153 68.8987C202.197 69.0479 202.252 69.1935 202.303 69.3391C202.425 69.7796 202.64 70.1891 202.932 70.5403C202.977 70.5855 203.024 70.628 203.074 70.6676C203.132 70.7134 203.193 70.7548 203.256 70.7914C203.515 70.9288 203.798 71.0141 204.09 71.0425C204.199 71.0425 204.312 71.0644 204.425 71.068H204.76L207.053 71.1299C206.266 69.9834 206.205 68.4983 206.255 67.1042C206.387 63.5299 207.082 59.9228 206.437 56.4067C206.385 55.9801 206.234 55.5715 205.997 55.2129C205.617 54.7897 205.103 54.5107 204.541 54.423C203.988 54.3368 203.444 54.1978 202.918 54.0081C202.514 53.7611 202.086 53.5573 201.64 53.4002C201.303 53.3384 200.958 53.3384 200.621 53.4002C200.206 53.4621 199.795 53.5349 199.383 53.6186L199.285 53.6404H199.22H199.201H199.14H199.118H199.06H199.034H198.979H198.95H198.903H198.87H198.827H198.794L198.754 53.6586L198.717 53.6768L198.681 53.695L198.645 53.7132L198.608 53.7351L198.575 53.7569L198.543 53.7788L198.51 53.8042L198.481 53.8261L198.448 53.8552L198.423 53.877L198.39 53.9098L198.368 53.9353C198.355 53.9469 198.344 53.9604 198.335 53.9753V53.9971L198.295 54.0554C198.263 54.1099 198.237 54.1671 198.215 54.2265C198.205 54.2551 198.196 54.2842 198.19 54.3138C198.175 54.375 198.164 54.437 198.157 54.4994C198.157 54.5322 198.157 54.5613 198.157 54.5941C198.157 54.6268 198.157 54.7215 198.157 54.7834C198.157 54.8452 198.157 55.0054 198.19 55.1C197.687 55.3975 197.267 55.8177 196.971 56.3212C196.674 56.8248 196.51 57.3953 196.493 57.9794C196.477 58.5636 196.609 59.1424 196.877 59.6617C197.145 60.1811 197.54 60.6241 198.026 60.9493C198.029 61.0062 198.029 61.0633 198.026 61.1203V61.1567C198.018 61.3568 197.997 61.5562 197.964 61.7537C197.402 61.644 196.83 61.594 196.257 61.6044C195.915 61.6044 195.573 61.6335 195.227 61.6627C194.863 61.2259 194.528 60.7454 194.2 60.2722L193.443 59.1621C193.178 58.7973 192.935 58.4169 192.715 58.0228C192.53 57.6588 192.384 57.2948 192.18 56.9309C191.754 56.2029 191.055 55.5987 190.972 54.7652L190.772 54.8088C190.662 54.6268 190.524 54.4448 190.473 54.3356C190.198 53.7433 189.987 53.1235 189.843 52.4866C189.8 52.1522 189.698 51.8281 189.541 51.5293C189.419 51.3528 189.27 51.1957 189.101 51.0634C188.827 50.8051 188.506 50.6024 188.155 50.4665C187.999 50.4092 187.832 50.3845 187.667 50.3939C187.501 50.4033 187.338 50.4466 187.19 50.5211C187.139 50.5029 187.092 50.481 187.041 50.4665C186.865 50.4 186.677 50.3766 186.491 50.3981C186.304 50.4197 186.126 50.4856 185.971 50.5903C185.689 50.8468 185.519 51.2035 185.497 51.5839C185.421 52.1005 185.51 52.6282 185.752 53.0908C186.04 53.6004 186.542 53.9425 186.964 54.3466C187.256 54.6293 187.512 54.9472 187.725 55.2929C187.791 56.0595 187.772 56.8311 187.667 57.5933C187.612 57.9209 187.528 58.2412 187.499 58.5688C187.394 59.759 188.013 60.9493 187.794 62.1213C187.757 62.2968 187.775 62.4797 187.847 62.6442C187.919 62.8088 188.04 62.9466 188.195 63.0385C188.528 63.1738 188.876 63.2691 189.232 63.3224C189.916 63.4971 190.513 63.9376 191.201 64.1014C191.521 64.1778 191.853 64.1924 192.169 64.2761H192.22C191.975 64.5532 191.8 64.8853 191.711 65.2443C191.572 65.8412 191.711 66.4782 191.561 67.0642C191.413 67.5482 191.178 68.0009 190.866 68.4L189.199 70.8096C188.826 71.3732 188.416 71.9118 187.973 72.422C187.208 73.2556 185.887 73.918 185.501 74.9226L185.468 74.8498C184.919 75.2539 184.715 76.0073 184.274 76.5314C184.063 76.7862 183.798 76.9937 183.565 77.2267C183.274 77.5853 183.016 77.969 182.793 78.3732C182.112 79.257 181.517 80.2041 181.017 81.2014C180.773 81.7291 180.584 82.2933 180.391 82.8247C179.626 84.9759 178.382 87.0178 177.865 89.2454C177.737 89.7878 177.406 90.2791 177.355 90.836C177.355 91.4342 177.528 92.0195 177.854 92.5213C178.283 93.322 178.753 94.101 179.135 94.9236C179.361 95.404 179.554 95.8991 179.801 96.3795C180.049 96.86 180.405 97.3623 180.686 97.8682C181.351 99.1694 181.848 100.55 182.163 101.978ZM191.547 61.3242L191.481 61.2914C191.226 61.1822 190.991 61.0282 190.79 60.8364C190.182 60.1812 189.916 59.1985 189.727 58.3213C189.705 58.2194 189.683 58.1138 189.665 58.0083C190.432 59.0283 191.064 60.1427 191.547 61.3242Z" fill="url(#paint0_linear_1_4125)"/>
<path d="M188.762 52.8033C188.719 52.4712 188.617 52.1495 188.46 51.8533C188.336 51.6767 188.187 51.5196 188.016 51.3874C187.742 51.1317 187.42 50.9315 187.07 50.7977C186.892 50.7282 186.699 50.7031 186.509 50.7247C186.318 50.7462 186.136 50.8138 185.978 50.9215C185.696 51.1749 185.526 51.5295 185.505 51.9079C185.428 52.421 185.517 52.9451 185.76 53.4039C186.051 53.9098 186.553 54.2483 186.972 54.6523C187.279 54.9441 187.546 55.2759 187.765 55.6387C187.866 55.8282 187.988 56.0053 188.129 56.1665C188.2 56.2463 188.289 56.3083 188.388 56.3475C188.487 56.3867 188.594 56.402 188.701 56.3922C188.878 56.3463 189.04 56.2518 189.166 56.1192C189.338 55.97 189.803 55.697 189.818 55.4568C189.833 55.2165 189.454 54.8234 189.378 54.6414C189.108 54.052 188.902 53.4359 188.762 52.8033Z" fill="#FBBEBE"/>
<path d="M198.576 62.1431C197.827 61.9418 197.054 61.8463 196.279 61.8592C194.987 61.8774 193.654 62.1904 192.424 61.7937C192.106 61.6836 191.797 61.5498 191.5 61.3933C191.246 61.284 191.013 61.1313 190.812 60.9419C190.2 60.2904 189.935 59.3149 189.745 58.445C189.576 57.5688 189.478 56.6801 189.454 55.7879C189.146 55.9603 188.799 56.0517 188.446 56.0536C188.27 56.0484 188.102 55.9795 187.972 55.8597C187.843 55.7399 187.762 55.5773 187.743 55.4021C187.822 56.2262 187.806 57.0567 187.696 57.8772C187.641 58.2011 187.558 58.5178 187.529 58.8454C187.423 60.0247 188.045 61.2077 187.823 62.3724C187.787 62.5469 187.805 62.7286 187.877 62.8919C187.949 63.0551 188.07 63.1917 188.224 63.2824C188.558 63.4181 188.908 63.5134 189.265 63.5663C189.949 63.741 190.55 64.1741 191.238 64.3379C191.558 64.4144 191.889 64.4289 192.206 64.5126C192.661 64.6328 193.072 64.8766 193.534 64.9749C193.88 65.0368 194.237 64.9931 194.59 65.0222C194.943 65.0513 195.194 65.1278 195.496 65.1387C195.872 65.1262 196.241 65.0333 196.578 64.8663C196.916 64.6993 197.213 64.462 197.451 64.1705C197.918 63.5499 198.296 62.8676 198.576 62.1431Z" fill="#F86D70"/>
<path opacity="0.1" d="M198.576 62.1431C197.827 61.9418 197.054 61.8463 196.279 61.8592C194.987 61.8774 193.654 62.1904 192.424 61.7937C192.106 61.6836 191.797 61.5498 191.5 61.3933C191.246 61.284 191.013 61.1313 190.812 60.9419C190.2 60.2904 189.935 59.3149 189.745 58.445C189.576 57.5688 189.478 56.6801 189.454 55.7879C189.146 55.9603 188.799 56.0517 188.446 56.0536C188.27 56.0484 188.102 55.9795 187.972 55.8597C187.843 55.7399 187.762 55.5773 187.743 55.4021C187.822 56.2262 187.806 57.0567 187.696 57.8772C187.641 58.2011 187.558 58.5178 187.529 58.8454C187.423 60.0247 188.045 61.2077 187.823 62.3724C187.787 62.5469 187.805 62.7286 187.877 62.8919C187.949 63.0551 188.07 63.1917 188.224 63.2824C188.558 63.4181 188.908 63.5134 189.265 63.5663C189.949 63.741 190.55 64.1741 191.238 64.3379C191.558 64.4144 191.889 64.4289 192.206 64.5126C192.661 64.6328 193.072 64.8766 193.534 64.9749C193.88 65.0368 194.237 64.9931 194.59 65.0222C194.943 65.0513 195.194 65.1278 195.496 65.1387C195.872 65.1262 196.241 65.0333 196.578 64.8663C196.916 64.6993 197.213 64.462 197.451 64.1705C197.918 63.5499 198.296 62.8676 198.576 62.1431Z" fill="black"/>
<g opacity="0.1">
<path opacity="0.1" d="M147.654 195.136V197.01C147.654 198.874 146.914 200.66 145.596 201.978C144.279 203.295 142.492 204.035 140.629 204.035C138.766 204.035 136.979 203.295 135.662 201.978C134.344 200.66 133.604 198.874 133.604 197.01V195.136C133.604 193.273 134.344 191.486 135.662 190.169C136.979 188.851 138.766 188.111 140.629 188.111C142.492 188.111 144.279 188.851 145.596 190.169C146.914 191.486 147.654 193.273 147.654 195.136Z" fill="#3F3D56"/>
<path opacity="0.1" d="M133.604 165.158V163.287C133.604 161.424 134.344 159.637 135.662 158.32C136.979 157.002 138.766 156.262 140.629 156.262C142.492 156.262 144.279 157.002 145.596 158.32C146.914 159.637 147.654 161.424 147.654 163.287V165.158C147.654 165.846 147.553 166.531 147.352 167.189C146.868 168.806 145.818 170.194 144.394 171.1C142.971 172.006 141.268 172.368 139.599 172.122C137.93 171.875 136.405 171.036 135.304 169.757C134.203 168.478 133.6 166.846 133.604 165.158Z" fill="#3F3D56"/>
<path opacity="0.1" d="M147.654 179.197V181.071C147.654 182.935 146.914 184.721 145.596 186.039C144.279 187.356 142.492 188.096 140.629 188.096C138.766 188.096 136.979 187.356 135.662 186.039C134.344 184.721 133.604 182.935 133.604 181.071V179.197C133.604 177.334 134.344 175.547 135.662 174.23C136.979 172.912 138.766 172.172 140.629 172.172C142.492 172.172 144.279 172.912 145.596 174.23C146.914 175.547 147.654 177.334 147.654 179.197Z" fill="#3F3D56"/>
<path opacity="0.1" d="M140.629 204.035C142.491 204.041 144.275 204.784 145.591 206.1C146.907 207.417 147.649 209.202 147.654 211.064V212.935C147.654 214.798 146.914 216.585 145.596 217.902C144.279 219.219 142.492 219.96 140.629 219.96C138.766 219.96 136.979 219.219 135.662 217.902C134.344 216.585 133.604 214.798 133.604 212.935V211.064C133.609 209.202 134.35 207.417 135.667 206.1C136.983 204.784 138.767 204.041 140.629 204.035Z" fill="#3F3D56"/>
<path opacity="0.1" d="M133.604 163.466V165.158C133.601 166.845 134.205 168.477 135.306 169.755C136.407 171.033 137.932 171.872 139.601 172.118C141.27 172.365 142.972 172.001 144.395 171.096C145.818 170.19 146.868 168.802 147.352 167.185L133.604 163.466Z" fill="black"/>
<path opacity="0.1" d="M133.604 179.39V181.086C133.606 182.77 134.212 184.397 135.313 185.672C136.414 186.946 137.936 187.782 139.602 188.029C141.268 188.275 142.967 187.914 144.39 187.013C145.812 186.111 146.863 184.729 147.352 183.117L133.604 179.39Z" fill="black"/>
<path opacity="0.1" d="M133.604 195.318V197.01C133.606 198.694 134.212 200.322 135.313 201.596C136.414 202.87 137.936 203.707 139.602 203.953C141.268 204.199 142.967 203.838 144.39 202.937C145.812 202.035 146.863 200.653 147.352 199.041L133.604 195.318Z" fill="black"/>
<path opacity="0.1" d="M133.604 211.228V212.92C133.6 214.607 134.203 216.24 135.304 217.519C136.405 218.798 137.93 219.637 139.599 219.884C141.268 220.13 142.971 219.768 144.394 218.862C145.818 217.956 146.868 216.568 147.352 214.951L133.604 211.228Z" fill="black"/>
<path opacity="0.1" d="M118.935 181.206L119.496 181.636C120 182.021 120.625 182.213 121.259 182.177C121.892 182.141 122.492 181.879 122.948 181.438C123.405 180.998 123.689 180.409 123.749 179.777C123.809 179.146 123.64 178.514 123.274 177.996C123.125 177.783 122.945 177.594 122.739 177.435L122.179 177.013C121.621 176.583 120.916 176.392 120.217 176.482C119.519 176.572 118.885 176.936 118.455 177.493C118.025 178.051 117.834 178.756 117.924 179.455C118.014 180.153 118.378 180.787 118.935 181.217V181.206Z" fill="#3F3D56"/>
<path opacity="0.1" d="M126.943 180.675L127.504 181.108C128.061 181.538 128.425 182.172 128.515 182.87C128.605 183.568 128.414 184.274 127.984 184.831C127.554 185.389 126.92 185.753 126.222 185.843C125.523 185.933 124.818 185.742 124.26 185.312L123.7 184.879C123.142 184.449 122.779 183.815 122.689 183.116C122.598 182.418 122.789 181.713 123.219 181.155C123.65 180.598 124.283 180.234 124.982 180.144C125.68 180.054 126.386 180.245 126.943 180.675Z" fill="#3F3D56"/>
<path opacity="0.1" d="M131.704 184.351L132.265 184.784C132.822 185.214 133.186 185.848 133.276 186.546C133.366 187.245 133.175 187.95 132.745 188.508C132.315 189.065 131.681 189.429 130.983 189.519C130.284 189.609 129.579 189.418 129.021 188.988L128.461 188.555C127.903 188.125 127.54 187.491 127.45 186.793C127.359 186.094 127.55 185.389 127.98 184.831C128.411 184.274 129.044 183.91 129.743 183.82C130.441 183.73 131.147 183.921 131.704 184.351Z" fill="#3F3D56"/>
<path opacity="0.1" d="M136.468 188.027L137.029 188.46C137.305 188.673 137.536 188.938 137.71 189.241C137.884 189.543 137.996 189.877 138.04 190.223C138.085 190.568 138.061 190.919 137.97 191.256C137.879 191.593 137.722 191.908 137.509 192.184C137.297 192.46 137.031 192.691 136.729 192.865C136.427 193.038 136.093 193.151 135.747 193.195C135.401 193.24 135.05 193.216 134.714 193.125C134.377 193.034 134.062 192.877 133.786 192.664L133.218 192.231C132.942 192.018 132.711 191.753 132.537 191.451C132.364 191.148 132.251 190.815 132.207 190.469C132.162 190.123 132.186 189.772 132.277 189.435C132.368 189.099 132.525 188.784 132.738 188.508C132.951 188.232 133.216 188 133.518 187.827C133.821 187.653 134.154 187.541 134.5 187.496C134.846 187.452 135.197 187.476 135.533 187.567C135.87 187.658 136.185 187.814 136.461 188.027H136.468Z" fill="#3F3D56"/>
<path opacity="0.1" d="M118.986 181.246L119.496 181.636C120 182.021 120.625 182.213 121.259 182.177C121.892 182.141 122.492 181.879 122.948 181.439C123.405 180.998 123.689 180.409 123.749 179.778C123.809 179.146 123.64 178.514 123.274 177.996L118.986 181.246Z" fill="black"/>
<path opacity="0.1" d="M123.755 184.922L124.264 185.312C124.768 185.697 125.394 185.889 126.027 185.853C126.66 185.817 127.26 185.555 127.717 185.115C128.174 184.675 128.458 184.085 128.517 183.454C128.577 182.822 128.409 182.19 128.042 181.672L123.755 184.922Z" fill="black"/>
<path opacity="0.1" d="M128.516 188.599L129.021 188.988C129.525 189.376 130.152 189.571 130.787 189.536C131.421 189.501 132.023 189.239 132.481 188.798C132.939 188.357 133.224 187.766 133.283 187.133C133.342 186.5 133.172 185.866 132.803 185.348L128.516 188.599Z" fill="black"/>
<path opacity="0.1" d="M121.425 93.9626C120.365 93.94 119.311 94.1292 118.326 94.5191C117.34 94.9091 116.442 95.4919 115.684 96.2335C114.926 96.9751 114.324 97.8605 113.913 98.8378C113.503 99.8151 113.291 100.865 113.291 101.925C113.291 102.985 113.503 104.034 113.913 105.012C114.324 105.989 114.926 106.874 115.684 107.616C116.442 108.358 117.34 108.941 118.326 109.33C119.311 109.72 120.365 109.91 121.425 109.887C120.365 109.864 119.311 110.053 118.326 110.443C117.34 110.833 116.442 111.416 115.684 112.158C114.926 112.899 114.324 113.785 113.913 114.762C113.503 115.739 113.291 116.789 113.291 117.849C113.291 118.909 113.503 119.959 113.913 120.936C114.324 121.913 114.926 122.799 115.684 123.54C116.442 124.282 117.34 124.865 118.326 125.255C119.311 125.645 120.365 125.834 121.425 125.811C119.313 125.811 117.287 126.65 115.794 128.144C114.3 129.637 113.461 131.663 113.461 133.775C113.461 135.887 114.3 137.913 115.794 139.407C117.287 140.9 119.313 141.739 121.425 141.739C120.365 141.717 119.311 141.906 118.326 142.296C117.34 142.686 116.442 143.269 115.684 144.01C114.926 144.752 114.324 145.637 113.913 146.614C113.503 147.592 113.291 148.641 113.291 149.701C113.291 150.762 113.503 151.811 113.913 152.788C114.324 153.766 114.926 154.651 115.684 155.393C116.442 156.134 117.34 156.717 118.326 157.107C119.311 157.497 120.365 157.686 121.425 157.664H159.833C160.893 157.686 161.946 157.497 162.932 157.107C163.918 156.717 164.816 156.134 165.574 155.393C166.331 154.651 166.933 153.766 167.344 152.788C167.755 151.811 167.967 150.762 167.967 149.701C167.967 148.641 167.755 147.592 167.344 146.614C166.933 145.637 166.331 144.752 165.574 144.01C164.816 143.269 163.918 142.686 162.932 142.296C161.946 141.906 160.893 141.717 159.833 141.739C161.945 141.739 163.971 140.9 165.464 139.407C166.958 137.913 167.797 135.887 167.797 133.775C167.797 131.663 166.958 129.637 165.464 128.144C163.971 126.65 161.945 125.811 159.833 125.811C160.893 125.834 161.946 125.645 162.932 125.255C163.918 124.865 164.816 124.282 165.574 123.54C166.331 122.799 166.933 121.913 167.344 120.936C167.755 119.959 167.967 118.909 167.967 117.849C167.967 116.789 167.755 115.739 167.344 114.762C166.933 113.785 166.331 112.899 165.574 112.158C164.816 111.416 163.918 110.833 162.932 110.443C161.946 110.053 160.893 109.864 159.833 109.887C160.893 109.91 161.946 109.72 162.932 109.33C163.918 108.941 164.816 108.358 165.574 107.616C166.331 106.874 166.933 105.989 167.344 105.012C167.755 104.034 167.967 102.985 167.967 101.925C167.967 100.865 167.755 99.8151 167.344 98.8378C166.933 97.8605 166.331 96.9751 165.574 96.2335C164.816 95.4919 163.918 94.9091 162.932 94.5191C161.946 94.1292 160.893 93.94 159.833 93.9626C161.945 93.9626 163.971 93.1236 165.464 91.63C166.958 90.1365 167.797 88.1108 167.797 85.9986C167.797 83.8865 166.958 81.8608 165.464 80.3673C163.971 78.8737 161.945 78.0347 159.833 78.0347C160.893 78.0573 161.946 77.8681 162.932 77.4782C163.918 77.0882 164.816 76.5054 165.574 75.7638C166.331 75.0222 166.933 74.1367 167.344 73.1595C167.755 72.1822 167.967 71.1327 167.967 70.0725C167.967 69.0123 167.755 67.9628 167.344 66.9855C166.933 66.0082 166.331 65.1228 165.574 64.3812C164.816 63.6396 163.918 63.0568 162.932 62.6668C161.946 62.2769 160.893 62.0877 159.833 62.1103H158.078C157.07 55.2601 149.343 49.9314 139.926 49.9314C130.51 49.9314 122.783 55.2601 121.775 62.1103H121.411C120.351 62.0877 119.297 62.2769 118.311 62.6668C117.325 63.0568 116.427 63.6396 115.669 64.3812C114.912 65.1228 114.31 66.0082 113.899 66.9855C113.488 67.9628 113.276 69.0123 113.276 70.0725C113.276 71.1327 113.488 72.1822 113.899 73.1595C114.31 74.1367 114.912 75.0222 115.669 75.7638C116.427 76.5054 117.325 77.0882 118.311 77.4782C119.297 77.8681 120.351 78.0573 121.411 78.0347C119.298 78.0347 117.273 78.8737 115.779 80.3673C114.286 81.8608 113.447 83.8865 113.447 85.9986C113.447 88.1108 114.286 90.1365 115.779 91.63C117.273 93.1236 119.298 93.9626 121.411 93.9626H121.425Z" fill="#7EC845"/>
<path opacity="0.1" d="M113.461 70.0707C113.467 72.1811 114.308 74.2034 115.8 75.6957C117.292 77.188 119.315 78.0289 121.425 78.0347H159.833L121.658 62.1104H121.425C119.315 62.1161 117.294 62.9565 115.801 64.448C114.309 65.9395 113.468 67.9609 113.461 70.0707Z" fill="black"/>
<path opacity="0.1" d="M167.564 86.0168C167.552 88.1255 166.71 90.1445 165.218 91.6356C163.727 93.1266 161.708 93.9694 159.6 93.9808H121.207L159.385 78.0529H159.618C161.723 78.0691 163.738 78.9139 165.225 80.4045C166.712 81.895 167.552 83.9113 167.564 86.0168Z" fill="black"/>
<path opacity="0.1" d="M167.564 117.851C167.557 119.961 166.716 121.982 165.224 123.474C163.731 124.965 161.71 125.806 159.6 125.811H121.207L159.385 109.887H159.618C161.725 109.898 163.743 110.741 165.231 112.232C166.72 113.724 167.558 115.744 167.564 117.851Z" fill="black"/>
<path opacity="0.1" d="M167.564 149.714C167.557 151.824 166.716 153.845 165.224 155.337C163.731 156.828 161.71 157.669 159.6 157.674H121.207L159.385 141.75H159.618C161.725 141.761 163.743 142.604 165.231 144.095C166.72 145.587 167.558 147.607 167.564 149.714Z" fill="black"/>
<path opacity="0.1" d="M113.461 101.923C113.467 104.033 114.308 106.056 115.8 107.548C117.292 109.04 119.315 109.881 121.425 109.887H159.833L121.658 93.9626H121.425C119.315 93.9684 117.294 94.8088 115.801 96.3003C114.309 97.7918 113.468 99.8132 113.461 101.923Z" fill="black"/>
<path opacity="0.1" d="M113.461 133.775C113.473 135.884 114.315 137.903 115.806 139.394C117.298 140.885 119.317 141.728 121.425 141.739H159.833L121.658 125.811H121.425C119.317 125.823 117.298 126.665 115.806 128.157C114.315 129.648 113.473 131.667 113.461 133.775Z" fill="black"/>
<path opacity="0.1" d="M117.862 189.425L130.51 182.615C131.175 182.224 131.662 181.591 131.869 180.849C132.077 180.107 131.988 179.313 131.622 178.634C131.257 177.956 130.642 177.446 129.908 177.211C129.174 176.977 128.377 177.036 127.686 177.377C128.03 177.192 128.335 176.94 128.582 176.638C128.829 176.335 129.014 175.986 129.127 175.611C129.239 175.237 129.277 174.844 129.238 174.455C129.198 174.066 129.083 173.688 128.898 173.344C128.712 173 128.461 172.695 128.158 172.448C127.855 172.2 127.507 172.015 127.132 171.903C126.758 171.79 126.365 171.752 125.976 171.792C125.587 171.831 125.209 171.947 124.865 172.132L124.286 172.445C122.739 170.367 119.245 169.984 116.147 171.651C113.05 173.319 111.448 176.445 112.329 178.88L112.216 178.942C111.872 179.127 111.567 179.379 111.32 179.681C111.073 179.984 110.888 180.333 110.775 180.708C110.662 181.082 110.625 181.475 110.664 181.864C110.703 182.253 110.819 182.631 111.004 182.975C111.189 183.319 111.441 183.624 111.744 183.871C112.047 184.119 112.395 184.304 112.77 184.416C113.144 184.529 113.537 184.567 113.926 184.527C114.315 184.488 114.693 184.372 115.037 184.187C114.342 184.562 113.823 185.197 113.596 185.954C113.369 186.71 113.452 187.526 113.827 188.222C114.201 188.917 114.837 189.436 115.594 189.663C116.35 189.89 117.166 189.807 117.862 189.432V189.425Z" fill="#7EC845"/>
<path opacity="0.1" d="M111.015 182.968C111.391 183.661 112.026 184.178 112.782 184.405C113.537 184.632 114.352 184.551 115.048 184.18L127.686 177.377L112.293 178.902L112.216 178.942C111.527 179.32 111.014 179.955 110.789 180.708C110.564 181.462 110.645 182.274 111.015 182.968Z" fill="black"/>
<path opacity="0.1" d="M131.642 178.622C132.015 179.317 132.097 180.132 131.87 180.888C131.644 181.643 131.127 182.279 130.434 182.655L117.785 189.465L127.533 177.453L127.609 177.41C128.305 177.039 129.12 176.958 129.875 177.185C130.631 177.412 131.266 177.928 131.642 178.622Z" fill="black"/>
</g>
<g opacity="0.1">
<path opacity="0.1" d="M79.3994 212.258V212.793C79.3773 213.312 79.1554 213.803 78.78 214.163C78.4046 214.523 77.9047 214.724 77.3848 214.724C76.8648 214.724 76.3649 214.523 75.9895 214.163C75.6141 213.803 75.3922 213.312 75.3701 212.793V212.258C75.3586 211.986 75.4021 211.715 75.4981 211.46C75.5942 211.206 75.7407 210.973 75.9289 210.777C76.1171 210.58 76.3432 210.424 76.5933 210.317C76.8435 210.211 77.1127 210.156 77.3848 210.156C77.6568 210.156 77.926 210.211 78.1762 210.317C78.4264 210.424 78.6524 210.58 78.8406 210.777C79.0288 210.973 79.1753 211.206 79.2714 211.46C79.3674 211.715 79.411 211.986 79.3994 212.258Z" fill="#3F3D56"/>
<path opacity="0.1" d="M75.3701 203.664V203.125C75.3922 202.606 75.6141 202.115 75.9895 201.755C76.3649 201.395 76.8648 201.195 77.3847 201.195C77.9047 201.195 78.4046 201.395 78.78 201.755C79.1554 202.115 79.3773 202.606 79.3994 203.125V203.664C79.4 203.862 79.3705 204.058 79.312 204.246C79.1738 204.711 78.873 205.109 78.4646 205.37C78.0562 205.63 77.5677 205.734 77.0887 205.663C76.6097 205.593 76.1722 205.351 75.8565 204.984C75.5409 204.617 75.3682 204.148 75.3701 203.664Z" fill="#3F3D56"/>
<path opacity="0.1" d="M79.3994 207.693V208.228C79.3773 208.748 79.1554 209.239 78.78 209.599C78.4046 209.958 77.9047 210.159 77.3848 210.159C76.8648 210.159 76.3649 209.958 75.9895 209.599C75.6141 209.239 75.3922 208.748 75.3701 208.228V207.693C75.3586 207.422 75.4021 207.15 75.4981 206.896C75.5942 206.641 75.7407 206.409 75.9289 206.213C76.1171 206.016 76.3432 205.86 76.5933 205.753C76.8435 205.646 77.1127 205.591 77.3848 205.591C77.6568 205.591 77.926 205.646 78.1762 205.753C78.4264 205.86 78.6524 206.016 78.8406 206.213C79.0288 206.409 79.1753 206.641 79.2714 206.896C79.3674 207.15 79.411 207.422 79.3994 207.693Z" fill="#3F3D56"/>
<path opacity="0.1" d="M77.3866 214.806C77.9204 214.808 78.4319 215.021 78.809 215.399C79.1862 215.776 79.3985 216.288 79.3994 216.822V217.357C79.411 217.629 79.3674 217.9 79.2714 218.155C79.1753 218.409 79.0288 218.642 78.8406 218.838C78.6524 219.034 78.4264 219.191 78.1762 219.298C77.926 219.404 77.6568 219.459 77.3848 219.459C77.1127 219.459 76.8435 219.404 76.5933 219.298C76.3432 219.191 76.1171 219.034 75.9289 218.838C75.7407 218.642 75.5942 218.409 75.4981 218.155C75.4021 217.9 75.3586 217.629 75.3701 217.357V216.822C75.3711 216.288 75.5838 215.775 75.9618 215.397C76.3397 215.019 76.8521 214.807 77.3866 214.806Z" fill="#3F3D56"/>
<path opacity="0.1" d="M75.3701 203.18V203.664C75.3682 204.148 75.5409 204.617 75.8565 204.984C76.1722 205.351 76.6097 205.592 77.0887 205.663C77.5677 205.734 78.0562 205.63 78.4646 205.369C78.873 205.109 79.1738 204.711 79.312 204.246L75.3701 203.18Z" fill="black"/>
<path opacity="0.1" d="M75.3701 207.744V208.228C75.3682 208.713 75.5409 209.181 75.8565 209.549C76.1722 209.916 76.6097 210.157 77.0887 210.228C77.5677 210.298 78.0562 210.194 78.4646 209.934C78.873 209.674 79.1738 209.275 79.312 208.811L75.3701 207.744Z" fill="black"/>
<path opacity="0.1" d="M75.3701 212.32V212.804C75.3682 213.288 75.5409 213.757 75.8565 214.124C76.1722 214.491 76.6097 214.732 77.0887 214.803C77.5677 214.874 78.0562 214.769 78.4646 214.509C78.873 214.249 79.1738 213.85 79.312 213.386L75.3701 212.32Z" fill="black"/>
<path opacity="0.1" d="M75.3701 216.873V217.357C75.3682 217.841 75.5409 218.31 75.8565 218.677C76.1722 219.044 76.6097 219.286 77.0887 219.356C77.5677 219.427 78.0562 219.323 78.4646 219.063C78.873 218.802 79.1738 218.404 79.312 217.94L75.3701 216.873Z" fill="black"/>
<path opacity="0.1" d="M71.166 208.261L71.3262 208.389C71.4699 208.508 71.6522 208.569 71.8385 208.563C72.0249 208.556 72.2023 208.481 72.337 208.352C72.4717 208.223 72.5544 208.049 72.5694 207.864C72.5844 207.678 72.5305 207.493 72.4182 207.344C72.376 207.282 72.3244 207.227 72.2653 207.18L72.1051 207.056C72.026 206.995 71.9356 206.95 71.8391 206.924C71.7426 206.898 71.6419 206.891 71.5427 206.903C71.4435 206.916 71.3478 206.948 71.261 206.998C71.1742 207.048 71.098 207.114 71.0368 207.193C70.9757 207.272 70.9306 207.362 70.9044 207.459C70.8781 207.555 70.8712 207.656 70.8838 207.755C70.8965 207.855 70.9286 207.95 70.9783 208.037C71.0279 208.124 71.0942 208.2 71.1733 208.261H71.166Z" fill="#3F3D56"/>
<path opacity="0.1" d="M73.4627 208.112L73.6229 208.236C73.7052 208.295 73.7746 208.371 73.8271 208.458C73.8797 208.545 73.9142 208.642 73.9287 208.743C73.9432 208.843 73.9374 208.946 73.9115 209.044C73.8857 209.143 73.8404 209.235 73.7784 209.315C73.7163 209.396 73.6387 209.463 73.5502 209.513C73.4617 209.563 73.364 209.595 73.263 209.607C73.1619 209.618 73.0596 209.61 72.962 209.581C72.8644 209.553 72.7735 209.505 72.6947 209.44L72.5309 209.317C72.3712 209.193 72.267 209.011 72.2414 208.811C72.2158 208.61 72.2709 208.408 72.3944 208.248C72.518 208.089 72.7 207.985 72.9003 207.959C73.1007 207.933 73.303 207.988 73.4627 208.112Z" fill="#3F3D56"/>
<path opacity="0.1" d="M74.8277 209.164L74.9878 209.288C75.147 209.412 75.2507 209.594 75.2766 209.794C75.3025 209.995 75.2484 210.197 75.1261 210.358C75.0025 210.517 74.8207 210.621 74.6208 210.646C74.4208 210.671 74.219 210.616 74.0597 210.492L73.8995 210.369C73.7461 210.244 73.6475 210.063 73.6248 209.867C73.6021 209.67 73.657 209.472 73.7779 209.315C73.8988 209.158 74.0761 209.055 74.2721 209.026C74.4681 208.998 74.6674 209.048 74.8277 209.164Z" fill="#3F3D56"/>
<path opacity="0.1" d="M76.1926 210.219L76.3528 210.343C76.435 210.403 76.5045 210.479 76.557 210.566C76.6096 210.653 76.6441 210.749 76.6586 210.85C76.6731 210.951 76.6672 211.053 76.6414 211.152C76.6156 211.25 76.5703 211.342 76.5082 211.423C76.4462 211.503 76.3686 211.571 76.2801 211.621C76.1915 211.671 76.0939 211.703 75.9929 211.714C75.8918 211.726 75.7895 211.717 75.6919 211.689C75.5943 211.66 75.5034 211.612 75.4246 211.548L75.2645 211.424C75.111 211.299 75.0125 211.119 74.9898 210.922C74.9671 210.725 75.022 210.527 75.1428 210.371C75.2637 210.214 75.441 210.11 75.637 210.082C75.8331 210.054 76.0324 210.103 76.1926 210.219Z" fill="#3F3D56"/>
<path opacity="0.1" d="M71.1807 208.276L71.3263 208.389C71.4699 208.507 71.6522 208.569 71.8386 208.563C72.0249 208.556 72.2023 208.481 72.3371 208.352C72.4718 208.223 72.5545 208.049 72.5695 207.864C72.5844 207.678 72.5306 207.493 72.4182 207.344L71.1807 208.276Z" fill="black"/>
<path opacity="0.1" d="M72.5492 209.328L72.6948 209.441C72.8385 209.559 73.0208 209.621 73.2071 209.615C73.3935 209.608 73.5708 209.533 73.7056 209.404C73.8403 209.275 73.923 209.101 73.938 208.915C73.9529 208.73 73.8991 208.545 73.7867 208.396L72.5492 209.328Z" fill="black"/>
<path opacity="0.1" d="M73.9141 210.383L74.0597 210.493C74.2191 210.616 74.4209 210.671 74.6208 210.646C74.8208 210.621 75.0025 210.517 75.1262 210.358C75.2226 210.226 75.2746 210.066 75.2746 209.903C75.2746 209.739 75.2226 209.58 75.1262 209.448L73.9141 210.383Z" fill="black"/>
<path opacity="0.1" d="M71.8795 183.255C71.2742 183.255 70.6937 183.496 70.2657 183.924C69.8377 184.352 69.5973 184.932 69.5973 185.538C69.5973 186.143 69.8377 186.723 70.2657 187.151C70.6937 187.579 71.2742 187.82 71.8795 187.82C71.2895 187.843 70.7315 188.094 70.3224 188.52C69.9133 188.946 69.6849 189.513 69.6849 190.104C69.6849 190.694 69.9133 191.262 70.3224 191.688C70.7315 192.113 71.2895 192.364 71.8795 192.388C71.2742 192.388 70.6937 192.628 70.2657 193.056C69.8377 193.484 69.5973 194.065 69.5973 194.67C69.5973 195.275 69.8377 195.856 70.2657 196.284C70.6937 196.712 71.2742 196.952 71.8795 196.952C71.2742 196.952 70.6937 197.193 70.2657 197.621C69.8377 198.049 69.5973 198.629 69.5973 199.234C69.5973 199.84 69.8377 200.42 70.2657 200.848C70.6937 201.276 71.2742 201.517 71.8795 201.517H82.89C83.4953 201.517 84.0758 201.276 84.5038 200.848C84.9318 200.42 85.1722 199.84 85.1722 199.234C85.1722 198.629 84.9318 198.049 84.5038 197.621C84.0758 197.193 83.4953 196.952 82.89 196.952C83.4953 196.952 84.0758 196.712 84.5038 196.284C84.9318 195.856 85.1722 195.275 85.1722 194.67C85.1722 194.065 84.9318 193.484 84.5038 193.056C84.0758 192.628 83.4953 192.388 82.89 192.388C83.48 192.364 84.038 192.113 84.4471 191.688C84.8562 191.262 85.0846 190.694 85.0846 190.104C85.0846 189.513 84.8562 188.946 84.4471 188.52C84.038 188.094 83.48 187.843 82.89 187.82C83.4953 187.82 84.0758 187.579 84.5038 187.151C84.9318 186.723 85.1722 186.143 85.1722 185.538C85.1722 184.932 84.9318 184.352 84.5038 183.924C84.0758 183.496 83.4953 183.255 82.89 183.255C83.4953 183.255 84.0758 183.015 84.5038 182.587C84.9318 182.159 85.1722 181.579 85.1722 180.973C85.1722 180.368 84.9318 179.788 84.5038 179.36C84.0758 178.932 83.4953 178.691 82.89 178.691C83.4953 178.691 84.0758 178.451 84.5038 178.023C84.9318 177.595 85.1722 177.014 85.1722 176.409C85.1722 175.804 84.9318 175.223 84.5038 174.795C84.0758 174.367 83.4953 174.127 82.89 174.127H82.3877C82.0965 172.165 79.8799 170.636 77.1827 170.636C74.4856 170.636 72.2689 172.165 71.9814 174.127H71.8795C71.2742 174.127 70.6937 174.367 70.2657 174.795C69.8377 175.223 69.5973 175.804 69.5973 176.409C69.5973 177.014 69.8377 177.595 70.2657 178.023C70.6937 178.451 71.2742 178.691 71.8795 178.691C71.2742 178.691 70.6937 178.932 70.2657 179.36C69.8377 179.788 69.5973 180.368 69.5973 180.973C69.5973 181.579 69.8377 182.159 70.2657 182.587C70.6937 183.015 71.2742 183.255 71.8795 183.255Z" fill="#7EC845"/>
<path opacity="0.1" d="M69.5973 176.409C69.5992 177.014 69.8403 177.593 70.2679 178.021C70.6954 178.448 71.2748 178.689 71.8795 178.691H82.89L71.9486 174.127H71.8795C71.2748 174.129 70.6954 174.37 70.2679 174.797C69.8403 175.225 69.5992 175.804 69.5973 176.409Z" fill="black"/>
<path opacity="0.1" d="M85.1066 180.973C85.1047 181.578 84.8636 182.157 84.4361 182.585C84.0085 183.013 83.4291 183.254 82.8244 183.256H71.8139L82.7553 178.691H82.8244C83.4291 178.693 84.0085 178.934 84.4361 179.362C84.8636 179.789 85.1047 180.369 85.1066 180.973Z" fill="black"/>
<path opacity="0.1" d="M85.1066 190.117C85.1038 190.721 84.8624 191.3 84.435 191.727C84.0077 192.154 83.4288 192.396 82.8244 192.399H71.8139L82.7553 187.831H82.8244C83.4295 187.834 84.0088 188.075 84.4363 188.504C84.8638 188.932 85.1047 189.512 85.1066 190.117Z" fill="black"/>
<path opacity="0.1" d="M85.1066 199.234C85.1047 199.839 84.8636 200.418 84.4361 200.846C84.0085 201.274 83.4291 201.515 82.8244 201.517H71.8139L82.7553 196.952H82.8244C83.4291 196.954 84.0085 197.195 84.4361 197.623C84.8636 198.05 85.1047 198.63 85.1066 199.234Z" fill="black"/>
<path opacity="0.1" d="M69.5973 185.538C69.5992 186.142 69.8403 186.722 70.2679 187.149C70.6954 187.577 71.2748 187.818 71.8795 187.82H82.89L71.9486 183.255H71.8795C71.2748 183.257 70.6954 183.498 70.2679 183.926C69.8403 184.354 69.5992 184.933 69.5973 185.538Z" fill="black"/>
<path opacity="0.1" d="M69.5973 194.67C69.5992 195.275 69.8403 195.854 70.2679 196.282C70.6954 196.709 71.2748 196.95 71.8795 196.952H82.89L71.9486 192.388H71.8795C71.2748 192.39 70.6954 192.631 70.2679 193.058C69.8403 193.486 69.5992 194.065 69.5973 194.67Z" fill="black"/>
<path opacity="0.1" d="M70.8603 210.62L74.5001 208.665C74.2946 208.522 74.1194 208.339 73.9848 208.127C73.8502 207.916 73.7588 207.68 73.7158 207.433C73.6728 207.186 73.6792 206.933 73.7344 206.688C73.7897 206.444 73.8929 206.213 74.0379 206.008C73.9848 205.909 73.9127 205.822 73.8258 205.751C73.7388 205.68 73.6386 205.627 73.5311 205.595C73.4235 205.562 73.3106 205.552 73.199 205.563C73.0873 205.575 72.979 205.609 72.8804 205.662L72.7166 205.75C72.2726 205.156 71.2607 205.044 70.3835 205.524C69.5063 206.004 69.0367 206.896 69.2915 207.595L69.2588 207.613C69.4643 207.757 69.6395 207.94 69.7741 208.151C69.9087 208.363 70.0001 208.599 70.0431 208.846C70.0861 209.093 70.0797 209.346 70.0245 209.59C69.9692 209.835 69.8661 210.066 69.721 210.27C69.8282 210.465 70.0071 210.611 70.2198 210.676C70.4325 210.741 70.6622 210.721 70.8603 210.62Z" fill="#7EC845"/>
<path opacity="0.1" d="M68.8948 208.767C68.9466 208.867 69.0178 208.956 69.1041 209.029C69.1904 209.101 69.2903 209.156 69.3978 209.19C69.5054 209.224 69.6186 209.236 69.7309 209.226C69.8432 209.216 69.9524 209.184 70.0523 209.131L73.6921 207.18L69.2624 207.588H69.2406C69.1391 207.641 69.0494 207.714 68.9768 207.803C68.9042 207.892 68.8501 207.994 68.8179 208.104C68.7856 208.214 68.7758 208.33 68.789 208.444C68.8022 208.557 68.8382 208.667 68.8948 208.767Z" fill="black"/>
<path opacity="0.1" d="M74.8096 207.522C74.916 207.722 74.9393 207.955 74.8745 208.172C74.8098 208.389 74.6622 208.571 74.4638 208.68L70.824 210.631L73.6157 207.187H73.6376C73.7364 207.132 73.8453 207.097 73.9578 207.084C74.0703 207.071 74.1843 207.08 74.2933 207.111C74.4022 207.142 74.5039 207.194 74.5925 207.265C74.6812 207.336 74.7549 207.423 74.8096 207.522Z" fill="black"/>
</g>
<g opacity="0.1">
<path opacity="0.1" d="M275.267 190.844V193.127C275.267 195.398 276.169 197.577 277.775 199.183C279.382 200.789 281.56 201.691 283.831 201.691C286.103 201.691 288.281 200.789 289.888 199.183C291.494 197.577 292.396 195.398 292.396 193.127V190.844C292.396 188.573 291.494 186.395 289.888 184.788C288.281 183.182 286.103 182.28 283.831 182.28C281.56 182.28 279.382 183.182 277.775 184.788C276.169 186.395 275.267 188.573 275.267 190.844Z" fill="#3F3D56"/>
<path opacity="0.1" d="M292.396 154.3V152.018C292.396 149.747 291.494 147.568 289.888 145.962C288.281 144.356 286.103 143.454 283.831 143.454C281.56 143.454 279.382 144.356 277.775 145.962C276.169 147.568 275.267 149.747 275.267 152.018V154.3C275.264 155.139 275.387 155.973 275.631 156.776C276.233 158.731 277.515 160.407 279.246 161.499C280.976 162.591 283.041 163.026 285.065 162.727C287.09 162.428 288.94 161.414 290.281 159.868C291.621 158.322 292.364 156.347 292.374 154.3H292.396Z" fill="#3F3D56"/>
<path opacity="0.1" d="M275.267 171.43V173.715C275.267 175.987 276.169 178.165 277.775 179.771C279.382 181.378 281.56 182.28 283.831 182.28C286.103 182.28 288.281 181.378 289.888 179.771C291.494 178.165 292.396 175.987 292.396 173.715V171.43C292.396 169.158 291.494 166.98 289.888 165.373C288.281 163.767 286.103 162.865 283.831 162.865C281.56 162.865 279.382 163.767 277.775 165.373C276.169 166.98 275.267 169.158 275.267 171.43Z" fill="#3F3D56"/>
<path opacity="0.1" d="M283.831 201.691C281.562 201.698 279.388 202.602 277.783 204.207C276.178 205.812 275.274 207.986 275.267 210.256V212.538C275.267 214.809 276.169 216.988 277.775 218.594C279.382 220.2 281.56 221.102 283.831 221.102C286.103 221.102 288.281 220.2 289.888 218.594C291.494 216.988 292.396 214.809 292.396 212.538V210.256C292.39 207.986 291.486 205.811 289.881 204.206C288.276 202.601 286.101 201.697 283.831 201.691Z" fill="#3F3D56"/>
<path opacity="0.1" d="M292.396 152.237V154.3C292.386 156.347 291.643 158.322 290.302 159.868C288.962 161.413 287.111 162.428 285.087 162.727C283.063 163.026 280.998 162.591 279.268 161.499C277.537 160.407 276.254 158.731 275.653 156.775L292.396 152.237Z" fill="black"/>
<path opacity="0.1" d="M292.396 171.652V173.715C292.386 175.762 291.643 177.737 290.302 179.283C288.962 180.828 287.111 181.843 285.087 182.142C283.063 182.441 280.998 182.006 279.268 180.914C277.537 179.822 276.254 178.146 275.653 176.19L292.396 171.652Z" fill="black"/>
<path opacity="0.1" d="M292.396 191.063V193.127C292.386 195.173 291.643 197.148 290.302 198.694C288.962 200.24 287.111 201.254 285.087 201.553C283.063 201.853 280.998 201.417 279.268 200.325C277.537 199.233 276.254 197.558 275.653 195.602L292.396 191.063Z" fill="black"/>
<path opacity="0.1" d="M292.396 210.474V212.538C292.386 214.584 291.643 216.559 290.302 218.105C288.962 219.651 287.111 220.665 285.087 220.965C283.063 221.264 280.998 220.828 279.268 219.736C277.537 218.645 276.254 216.969 275.653 215.013L292.396 210.474Z" fill="black"/>
<path opacity="0.1" d="M310.279 173.861L309.594 174.389C308.98 174.863 308.215 175.1 307.44 175.057C306.665 175.014 305.931 174.694 305.373 174.155C304.814 173.616 304.468 172.894 304.397 172.122C304.326 171.349 304.535 170.576 304.986 169.944C305.169 169.686 305.39 169.456 305.641 169.264L306.326 168.736C307.005 168.212 307.865 167.979 308.717 168.089C309.568 168.199 310.34 168.642 310.865 169.322C311.389 170.002 311.622 170.862 311.512 171.713C311.402 172.564 310.958 173.337 310.279 173.861Z" fill="#3F3D56"/>
<path opacity="0.1" d="M300.517 173.217L299.836 173.737C299.487 173.992 299.193 174.314 298.97 174.685C298.748 175.055 298.602 175.467 298.541 175.895C298.48 176.322 298.505 176.758 298.616 177.176C298.726 177.594 298.919 177.985 299.183 178.328C299.447 178.67 299.777 178.955 300.153 179.168C300.529 179.381 300.944 179.516 301.374 179.565C301.803 179.614 302.238 179.577 302.653 179.456C303.068 179.335 303.454 179.132 303.789 178.858L304.469 178.334C304.806 178.075 305.088 177.751 305.3 177.383C305.511 177.014 305.648 176.608 305.703 176.186C305.757 175.765 305.728 175.337 305.617 174.926C305.506 174.516 305.315 174.132 305.056 173.795C304.796 173.459 304.473 173.177 304.104 172.965C303.736 172.754 303.329 172.617 302.907 172.562C302.486 172.508 302.058 172.537 301.648 172.648C301.237 172.759 300.853 172.95 300.517 173.209V173.217Z" fill="#3F3D56"/>
<path opacity="0.1" d="M294.711 177.697L294.027 178.225C293.678 178.48 293.383 178.802 293.161 179.173C292.938 179.543 292.792 179.955 292.731 180.382C292.67 180.81 292.696 181.246 292.806 181.664C292.916 182.082 293.109 182.473 293.373 182.816C293.637 183.158 293.967 183.443 294.344 183.656C294.72 183.868 295.135 184.003 295.564 184.053C295.994 184.102 296.429 184.065 296.843 183.944C297.258 183.823 297.645 183.619 297.98 183.346L298.664 182.822C299 182.563 299.282 182.239 299.494 181.871C299.706 181.502 299.842 181.096 299.897 180.674C299.951 180.253 299.922 179.825 299.811 179.414C299.7 179.004 299.509 178.62 299.25 178.283C298.99 177.947 298.667 177.665 298.298 177.453C297.93 177.242 297.523 177.105 297.102 177.05C296.68 176.996 296.252 177.025 295.842 177.136C295.432 177.247 295.047 177.438 294.711 177.697Z" fill="#3F3D56"/>
<path opacity="0.1" d="M288.902 182.178L288.221 182.702C287.542 183.226 287.098 183.999 286.988 184.85C286.878 185.701 287.111 186.561 287.635 187.241C288.159 187.921 288.932 188.364 289.783 188.474C290.634 188.584 291.494 188.351 292.174 187.827L292.855 187.299C293.204 187.044 293.498 186.722 293.721 186.352C293.943 185.981 294.089 185.57 294.15 185.142C294.211 184.714 294.185 184.278 294.075 183.86C293.965 183.443 293.772 183.051 293.508 182.709C293.244 182.367 292.914 182.081 292.538 181.868C292.161 181.656 291.746 181.521 291.317 181.471C290.888 181.422 290.453 181.459 290.038 181.58C289.623 181.702 289.237 181.905 288.902 182.178Z" fill="#3F3D56"/>
<path opacity="0.1" d="M310.213 173.912L309.594 174.389C308.98 174.863 308.215 175.1 307.44 175.057C306.665 175.014 305.931 174.694 305.373 174.155C304.814 173.616 304.468 172.894 304.397 172.122C304.326 171.349 304.535 170.576 304.986 169.944L310.213 173.912Z" fill="black"/>
<path opacity="0.1" d="M304.404 178.392L303.789 178.866C303.173 179.326 302.414 179.553 301.646 179.504C300.879 179.456 300.154 179.136 299.601 178.601C299.049 178.067 298.704 177.353 298.63 176.588C298.555 175.823 298.756 175.056 299.195 174.425L304.404 178.392Z" fill="black"/>
<path opacity="0.1" d="M298.598 182.87L297.979 183.346C297.365 183.818 296.601 184.053 295.828 184.01C295.055 183.966 294.322 183.647 293.765 183.109C293.207 182.571 292.86 181.852 292.788 181.08C292.716 180.309 292.923 179.537 293.371 178.906L298.598 182.87Z" fill="black"/>
<path opacity="0.1" d="M307.243 67.5155C309.818 67.5155 312.287 68.5382 314.107 70.3587C315.928 72.1792 316.951 74.6484 316.951 77.223C316.951 79.7975 315.928 82.2667 314.107 84.0872C312.287 85.9077 309.818 86.9304 307.243 86.9304C309.785 86.9797 312.205 88.0238 313.985 89.8386C315.765 91.6535 316.763 94.094 316.763 96.6361C316.763 99.1781 315.765 101.619 313.985 103.434C312.205 105.248 309.785 106.293 307.243 106.342C309.785 106.391 312.205 107.435 313.985 109.25C315.765 111.065 316.763 113.505 316.763 116.047C316.763 118.589 315.765 121.03 313.985 122.845C312.205 124.66 309.785 125.704 307.243 125.753C309.818 125.753 312.287 126.776 314.107 128.596C315.928 130.417 316.951 132.886 316.951 135.461C316.951 138.035 315.928 140.504 314.107 142.325C312.287 144.145 309.818 145.168 307.243 145.168H260.424C257.849 145.168 255.38 144.145 253.559 142.325C251.739 140.504 250.716 138.035 250.716 135.461C250.716 132.886 251.739 130.417 253.559 128.596C255.38 126.776 257.849 125.753 260.424 125.753C259.133 125.778 257.851 125.545 256.651 125.069C255.452 124.592 254.36 123.881 253.438 122.978C252.517 122.074 251.785 120.996 251.285 119.806C250.786 118.616 250.528 117.338 250.528 116.047C250.528 114.757 250.786 113.479 251.285 112.289C251.785 111.099 252.517 110.021 253.438 109.117C254.36 108.213 255.452 107.502 256.651 107.026C257.851 106.549 259.133 106.317 260.424 106.342C259.133 106.367 257.851 106.134 256.651 105.658C255.452 105.181 254.36 104.47 253.438 103.566C252.517 102.663 251.785 101.584 251.285 100.394C250.786 99.2044 250.528 97.9267 250.528 96.6361C250.528 95.3455 250.786 94.0678 251.285 92.8778C251.785 91.6878 252.517 90.6095 253.438 89.7057C254.36 88.802 255.452 88.0911 256.651 87.6145C257.851 87.138 259.133 86.9054 260.424 86.9304C257.849 86.9304 255.38 85.9077 253.559 84.0872C251.739 82.2667 250.716 79.7975 250.716 77.223C250.716 74.6484 251.739 72.1792 253.559 70.3587C255.38 68.5382 257.849 67.5155 260.424 67.5155C259.133 67.5405 257.851 67.3079 256.651 66.8314C255.452 66.3548 254.36 65.6439 253.438 64.7402C252.517 63.8365 251.785 62.7581 251.285 61.5681C250.786 60.3781 250.528 59.1005 250.528 57.8098C250.528 56.5192 250.786 55.2415 251.285 54.0516C251.785 52.8616 252.517 51.7832 253.438 50.8795C254.36 49.9757 255.452 49.2648 256.651 48.7883C257.851 48.3118 259.133 48.0792 260.424 48.1042C259.133 48.1292 257.851 47.8966 256.651 47.4201C255.452 46.9435 254.36 46.2326 253.438 45.3289C252.517 44.4252 251.785 43.3468 251.285 42.1568C250.786 40.9668 250.528 39.6892 250.528 38.3985C250.528 37.1079 250.786 35.8302 251.285 34.6403C251.785 33.4503 252.517 32.3719 253.438 31.4682C254.36 30.5645 255.452 29.8535 256.651 29.377C257.851 28.9005 259.133 28.6679 260.424 28.6929H262.564C263.794 20.3431 273.229 13.8459 284.691 13.8459C296.152 13.8459 305.587 20.3431 306.817 28.6929H307.243C309.785 28.7421 312.205 29.7863 313.985 31.6011C315.765 33.4159 316.763 35.8565 316.763 38.3985C316.763 40.9406 315.765 43.3812 313.985 45.196C312.205 47.0108 309.785 48.055 307.243 48.1042C309.785 48.1534 312.205 49.1976 313.985 51.0124C315.765 52.8272 316.763 55.2678 316.763 57.8098C316.763 60.3519 315.765 62.7925 313.985 64.6073C312.205 66.4221 309.785 67.4663 307.243 67.5155Z" fill="#7EC845"/>
<path opacity="0.1" d="M316.947 38.4005C316.939 40.9717 315.914 43.4355 314.096 45.2536C312.278 47.0718 309.814 48.0966 307.243 48.1043H260.424L306.956 28.693H307.243C309.815 28.7007 312.279 29.726 314.097 31.545C315.916 33.3639 316.94 35.8286 316.947 38.4005Z" fill="black"/>
<path opacity="0.1" d="M251.004 57.8117C251.011 60.3836 252.037 62.8479 253.856 64.6662C255.675 66.4844 258.139 67.5088 260.711 67.5156H307.527L260.995 48.1042H260.711C258.139 48.1119 255.674 49.1371 253.855 50.956C252.036 52.7748 251.011 55.2395 251.004 57.8117Z" fill="black"/>
<path opacity="0.1" d="M251.004 96.6344C251.011 99.2066 252.036 101.671 253.855 103.49C255.674 105.309 258.139 106.334 260.711 106.342H307.527L260.995 86.9305H260.711C258.139 86.9373 255.675 87.9617 253.856 89.7799C252.037 91.5982 251.011 94.0625 251.004 96.6344Z" fill="black"/>
<path opacity="0.1" d="M251.004 135.461C251.011 138.033 252.036 140.497 253.855 142.316C255.674 144.135 258.139 145.16 260.711 145.168H307.527L260.995 125.753H260.711C258.139 125.761 255.674 126.786 253.855 128.605C252.036 130.424 251.011 132.888 251.004 135.461Z" fill="black"/>
<path opacity="0.1" d="M316.947 77.223C316.94 79.7949 315.916 82.2595 314.097 84.0785C312.279 85.8974 309.815 86.9228 307.243 86.9304H260.424L306.956 67.5155H307.243C309.815 67.5232 312.279 68.5485 314.097 70.3675C315.916 72.1864 316.94 74.6511 316.947 77.223Z" fill="black"/>
<path opacity="0.1" d="M316.947 116.049C316.939 118.621 315.914 121.084 314.096 122.902C312.278 124.721 309.814 125.745 307.243 125.753H260.424L306.956 106.342H307.243C309.815 106.349 312.279 107.375 314.097 109.194C315.916 111.013 316.94 113.477 316.947 116.049Z" fill="black"/>
<path opacity="0.1" d="M311.571 183.878L296.152 175.579C295.377 175.085 294.818 174.316 294.587 173.426C294.355 172.537 294.469 171.593 294.905 170.784C295.341 169.974 296.067 169.36 296.937 169.064C297.807 168.768 298.757 168.812 299.596 169.187C299.137 168.984 298.726 168.688 298.387 168.319C298.048 167.949 297.789 167.513 297.627 167.039C297.464 166.565 297.402 166.062 297.443 165.562C297.484 165.062 297.627 164.576 297.865 164.135C298.103 163.693 298.429 163.305 298.824 162.996C299.218 162.686 299.672 162.462 300.158 162.336C300.643 162.21 301.149 162.186 301.645 162.265C302.14 162.344 302.613 162.525 303.035 162.796L303.742 163.16C305.627 160.612 309.882 160.161 313.656 162.192C317.431 164.223 319.389 168.037 318.312 171.004L318.454 171.08C318.911 171.284 319.32 171.581 319.658 171.951C319.995 172.321 320.252 172.756 320.413 173.23C320.574 173.704 320.636 174.206 320.595 174.705C320.553 175.203 320.409 175.688 320.172 176.129C319.934 176.569 319.609 176.956 319.215 177.265C318.821 177.575 318.368 177.799 317.884 177.925C317.399 178.051 316.894 178.076 316.4 177.998C315.905 177.92 315.433 177.741 315.01 177.472C315.455 177.683 315.853 177.983 316.178 178.353C316.504 178.723 316.751 179.156 316.905 179.624C317.058 180.092 317.115 180.587 317.072 181.078C317.028 181.569 316.886 182.046 316.653 182.48C316.42 182.914 316.101 183.296 315.715 183.604C315.33 183.911 314.886 184.137 314.411 184.268C313.936 184.398 313.439 184.431 312.951 184.364C312.463 184.297 311.993 184.132 311.571 183.878Z" fill="#7EC845"/>
<path opacity="0.1" d="M319.942 176.012C319.481 176.855 318.705 177.48 317.784 177.753C316.862 178.026 315.871 177.923 315.025 177.468L299.61 169.169L318.374 171.026L318.468 171.076C318.889 171.304 319.262 171.611 319.564 171.982C319.866 172.353 320.092 172.78 320.228 173.239C320.365 173.697 320.411 174.178 320.361 174.654C320.312 175.13 320.17 175.591 319.942 176.012Z" fill="black"/>
<path opacity="0.1" d="M294.788 170.713C294.334 171.561 294.234 172.554 294.51 173.475C294.786 174.397 295.416 175.171 296.262 175.63L311.68 183.929L299.796 169.289L299.705 169.238C298.857 168.784 297.864 168.685 296.942 168.961C296.021 169.237 295.246 169.867 294.788 170.713Z" fill="black"/>
</g>
<path d="M190 232.455C294.934 232.455 380 228.707 380 224.084C380 219.46 294.934 215.712 190 215.712C85.0659 215.712 0 219.46 0 224.084C0 228.707 85.0659 232.455 190 232.455Z" fill="#3F3D56"/>
<path opacity="0.1" d="M182.72 229.205C205.436 229.205 223.851 226.749 223.851 223.72C223.851 220.69 205.436 218.234 182.72 218.234C160.005 218.234 141.59 220.69 141.59 223.72C141.59 226.749 160.005 229.205 182.72 229.205Z" fill="black"/>
<path d="M185.57 223.741C184.282 223.992 182.954 223.937 181.691 223.58C180.428 223.222 179.267 222.573 178.302 221.685C177.336 220.797 176.593 219.694 176.132 218.465C175.671 217.237 175.505 215.917 175.648 214.613C176.602 206.183 179.568 192.603 187.681 172.216C197.087 148.579 193.694 142.868 183.616 125.917C180.362 120.439 176.671 114.233 172.696 106.262C162.446 85.784 166.341 70.0016 171.4 60.396C176.78 50.1717 184.475 44.8175 185.334 44.2388L193.276 57.3786L192.548 58.1066C192.53 58.1066 192.912 58.1066 193.465 59.1148C190.357 61.8086 187.801 65.0808 185.942 68.7495C181.537 77.5688 182.12 87.6767 187.67 98.7673C191.387 106.2 194.91 112.129 198.019 117.36C203.602 126.75 208.01 134.168 209.47 143.534C210.98 153.227 209.106 163.655 203.249 178.404C195.529 197.8 193.057 209.939 192.304 216.454C192.102 218.224 191.341 219.884 190.132 221.193C188.923 222.502 187.33 223.392 185.581 223.734L185.57 223.741Z" fill="#3F3D56"/>
<path d="M148.87 33.6868L182.557 0L216.571 33.6868H193.454V59.446H171.986V33.8506L148.87 33.6868Z" fill="#7EC845"/>
<path opacity="0.1" d="M256.245 223.578C268.106 223.578 277.72 222.295 277.72 220.713C277.72 219.131 268.106 217.849 256.245 217.849C244.385 217.849 234.77 219.131 234.77 220.713C234.77 222.295 244.385 223.578 256.245 223.578Z" fill="black"/>
<path d="M257.734 220.724C257.062 220.855 256.368 220.827 255.709 220.641C255.049 220.454 254.443 220.116 253.939 219.652C253.435 219.188 253.047 218.612 252.806 217.971C252.566 217.329 252.479 216.64 252.554 215.959C253.049 211.559 254.6 204.468 258.837 193.825C263.747 181.483 261.974 178.502 256.715 169.65C255.015 166.792 253.075 163.549 251.004 159.385C245.661 148.695 247.692 140.458 250.334 135.442C252.076 132.105 254.567 129.217 257.614 127.005L261.76 133.866L261.374 134.23C261.374 134.23 261.57 134.23 261.854 134.758C260.23 136.164 258.895 137.872 257.923 139.788C255.626 144.393 255.932 149.667 258.829 155.461C260.77 159.342 262.608 162.439 264.231 165.169C267.143 170.072 269.447 173.945 270.211 178.837C270.998 183.896 270.026 189.341 266.961 197.036C262.932 207.162 261.639 213.499 261.246 216.902C261.143 217.827 260.747 218.695 260.116 219.379C259.485 220.064 258.651 220.528 257.738 220.706L257.734 220.724Z" fill="#3F3D56"/>
<path d="M238.57 121.491L256.158 103.903L273.92 121.491H261.851V134.94H250.64V121.578L238.57 121.491Z" fill="#7EC845"/>
<path opacity="0.1" d="M109.195 223.578C121.056 223.578 130.671 222.295 130.671 220.713C130.671 219.131 121.056 217.849 109.195 217.849C97.3351 217.849 87.7203 219.131 87.7203 220.713C87.7203 222.295 97.3351 223.578 109.195 223.578Z" fill="black"/>
<path d="M107.707 220.724C108.379 220.855 109.073 220.827 109.732 220.641C110.391 220.454 110.997 220.116 111.502 219.652C112.006 219.188 112.394 218.612 112.634 217.971C112.875 217.329 112.961 216.64 112.886 215.959C112.391 211.559 110.841 204.468 106.604 193.825C101.694 181.483 103.466 178.502 108.726 169.65C110.426 166.792 112.366 163.549 114.437 159.385C119.78 148.695 117.749 140.458 115.107 135.442C113.365 132.105 110.873 129.217 107.827 127.005L103.681 133.866L104.067 134.23C104.067 134.23 103.87 134.23 103.586 134.758C105.211 136.164 106.546 137.872 107.517 139.788C109.814 144.393 109.508 149.667 106.611 155.461C104.671 159.342 102.833 162.439 101.21 165.169C98.2977 170.072 95.9937 173.945 95.2293 178.837C94.4431 183.896 95.4149 189.341 98.4797 197.036C102.509 207.162 103.801 213.499 104.194 216.902C104.297 217.827 104.694 218.695 105.325 219.379C105.956 220.064 106.789 220.528 107.703 220.706L107.707 220.724Z" fill="#3F3D56"/>
<path d="M126.87 121.491L109.283 103.903L91.5203 121.491H103.59V134.94H114.801V121.578L126.87 121.491Z" fill="#7EC845"/>
<path opacity="0.1" d="M182.724 106.507C186.772 105.309 189.938 103.947 189.795 103.465C189.652 102.983 186.255 103.564 182.207 104.762C178.16 105.96 174.994 107.322 175.136 107.804C175.279 108.286 178.676 107.705 182.724 106.507Z" fill="black"/>
<path opacity="0.1" d="M185.999 113.788C190.047 112.59 193.212 111.228 193.07 110.746C192.927 110.264 189.53 110.844 185.482 112.043C181.434 113.241 178.269 114.603 178.411 115.085C178.554 115.567 181.951 114.986 185.999 113.788Z" fill="black"/>
<path opacity="0.1" d="M189.637 119.245C193.685 118.047 196.851 116.685 196.708 116.203C196.566 115.721 193.169 116.302 189.121 117.5C185.073 118.699 181.907 120.061 182.05 120.543C182.192 121.024 185.59 120.444 189.637 119.245Z" fill="black"/>
<path opacity="0.1" d="M192.552 124.706C196.6 123.508 199.766 122.146 199.623 121.664C199.481 121.182 196.084 121.763 192.036 122.961C187.988 124.159 184.822 125.521 184.965 126.003C185.107 126.485 188.504 125.904 192.552 124.706Z" fill="black"/>
<path d="M320.743 221.317H305.281C304.431 221.317 303.615 220.979 303.014 220.378C302.412 219.777 302.075 218.961 302.075 218.111C302.075 217.26 302.412 216.444 303.014 215.843C303.615 215.242 304.431 214.904 305.281 214.904C304.851 214.918 304.423 214.846 304.021 214.692C303.62 214.537 303.254 214.303 302.944 214.004C302.635 213.705 302.389 213.347 302.221 212.951C302.053 212.555 301.967 212.129 301.967 211.699C301.967 211.269 302.053 210.843 302.221 210.447C302.389 210.051 302.635 209.693 302.944 209.394C303.254 209.095 303.62 208.861 304.021 208.706C304.423 208.552 304.851 208.48 305.281 208.494H305.987C306.391 205.735 309.503 203.588 313.289 203.584C317.074 203.58 320.205 205.724 320.601 208.48H320.743C321.173 208.465 321.602 208.537 322.003 208.692C322.405 208.846 322.771 209.08 323.08 209.379C323.39 209.678 323.636 210.036 323.804 210.432C323.972 210.828 324.058 211.254 324.058 211.684C324.058 212.115 323.972 212.54 323.804 212.937C323.636 213.333 323.39 213.691 323.08 213.99C322.771 214.289 322.405 214.523 322.003 214.677C321.602 214.832 321.173 214.904 320.743 214.889C321.594 214.889 322.409 215.227 323.011 215.829C323.612 216.43 323.95 217.246 323.95 218.096C323.95 218.947 323.612 219.762 323.011 220.364C322.409 220.965 321.594 221.303 320.743 221.303V221.317Z" fill="#7EC845"/>
<path opacity="0.1" d="M323.946 211.697C323.945 212.547 323.608 213.361 323.007 213.962C322.407 214.563 321.593 214.902 320.743 214.904H305.285L320.645 208.479H320.74C321.591 208.481 322.408 208.821 323.009 209.425C323.61 210.028 323.947 210.845 323.946 211.697Z" fill="black"/>
<path opacity="0.1" d="M302.169 218.143C302.172 218.993 302.511 219.806 303.112 220.406C303.713 221.007 304.527 221.344 305.376 221.346H320.838L305.467 214.951H305.383C304.535 214.952 303.721 215.288 303.119 215.886C302.517 216.484 302.176 217.295 302.169 218.143Z" fill="black"/>
<path d="M226.762 217.488H217.987C217.504 217.488 217.041 217.296 216.7 216.955C216.359 216.614 216.167 216.151 216.167 215.668C216.167 215.186 216.359 214.723 216.7 214.381C217.041 214.04 217.504 213.848 217.987 213.848C217.504 213.848 217.041 213.657 216.7 213.315C216.359 212.974 216.167 212.511 216.167 212.028C216.167 211.546 216.359 211.083 216.7 210.741C217.041 210.4 217.504 210.208 217.987 210.208H218.391C218.616 208.643 220.385 207.424 222.533 207.424C224.68 207.424 226.449 208.636 226.682 210.201H226.762C227.245 210.201 227.708 210.393 228.049 210.734C228.391 211.076 228.582 211.538 228.582 212.021C228.582 212.504 228.391 212.967 228.049 213.308C227.708 213.649 227.245 213.841 226.762 213.841C227.245 213.841 227.708 214.033 228.049 214.374C228.391 214.715 228.582 215.178 228.582 215.661C228.582 216.144 228.391 216.606 228.049 216.948C227.708 217.289 227.245 217.481 226.762 217.481V217.488Z" fill="#7EC845"/>
<path opacity="0.1" d="M228.582 212.028C228.582 212.511 228.391 212.974 228.049 213.315C227.708 213.657 227.245 213.848 226.762 213.848H217.987L226.722 210.208H226.762C227.245 210.208 227.708 210.4 228.049 210.742C228.391 211.083 228.582 211.546 228.582 212.028Z" fill="black"/>
<path opacity="0.1" d="M216.225 215.679C216.225 216.162 216.417 216.625 216.758 216.966C217.099 217.307 217.562 217.499 218.045 217.499H226.817L218.081 213.859H218.027C217.547 213.864 217.089 214.058 216.752 214.399C216.414 214.739 216.225 215.2 216.225 215.679Z" fill="black"/>
<path d="M62.4051 227.814H43.8419C43.3269 227.83 42.814 227.742 42.3336 227.556C41.8532 227.37 41.4151 227.09 41.0452 226.731C40.6754 226.372 40.3813 225.943 40.1805 225.468C39.9797 224.994 39.8762 224.484 39.8762 223.969C39.8762 223.454 39.9797 222.944 40.1805 222.469C40.3813 221.995 40.6754 221.566 41.0452 221.207C41.4151 220.848 41.8532 220.568 42.3336 220.381C42.814 220.195 43.3269 220.108 43.8419 220.123C43.3269 220.139 42.814 220.051 42.3336 219.865C41.8532 219.679 41.4151 219.399 41.0452 219.04C40.6754 218.681 40.3813 218.252 40.1805 217.777C39.9797 217.303 39.8762 216.793 39.8762 216.278C39.8762 215.763 39.9797 215.253 40.1805 214.778C40.3813 214.304 40.6754 213.875 41.0452 213.516C41.4151 213.157 41.8532 212.877 42.3336 212.69C42.814 212.504 43.3269 212.417 43.8419 212.432H44.6863C45.1704 209.124 48.9085 206.547 53.4474 206.543C57.9863 206.539 61.7281 209.109 62.2195 212.414H62.3869C63.3863 212.445 64.3345 212.864 65.0305 213.581C65.7266 214.299 66.1159 215.26 66.1159 216.26C66.1159 217.26 65.7266 218.22 65.0305 218.938C64.3345 219.656 63.3863 220.074 62.3869 220.105C63.3863 220.136 64.3345 220.555 65.0305 221.272C65.7266 221.99 66.1159 222.951 66.1159 223.951C66.1159 224.951 65.7266 225.911 65.0305 226.629C64.3345 227.347 63.3863 227.765 62.3869 227.796L62.4051 227.814Z" fill="#7EC845"/>
<path opacity="0.1" d="M66.2453 216.276C66.2434 217.295 65.8384 218.271 65.1189 218.992C64.3994 219.713 63.4238 220.12 62.4053 220.123H43.842L62.2669 212.414H62.3798C62.8872 212.414 63.3898 212.513 63.8588 212.707C64.3277 212.901 64.7539 213.185 65.1129 213.544C65.4719 213.903 65.7567 214.329 65.951 214.797C66.1453 215.266 66.2453 215.769 66.2453 216.276Z" fill="black"/>
<path opacity="0.1" d="M40.1185 223.992C40.1233 225.011 40.5309 225.987 41.2524 226.706C41.9738 227.426 42.9506 227.831 43.9694 227.832H62.5326L44.0895 220.16H43.9767C42.9581 220.161 41.9812 220.564 41.2585 221.282C40.5359 222 40.1261 222.974 40.1185 223.992Z" fill="black"/>
<path opacity="0.1" d="M100.46 55.7116C99.0156 55.4344 97.5215 55.5941 96.1684 56.1702C95.3611 56.5312 94.4867 56.7178 93.6023 56.7178C92.718 56.7178 91.8436 56.5312 91.0362 56.1702C90.0817 55.7522 89.0479 55.5461 88.006 55.5662C86.9642 55.5863 85.9391 55.8321 85.0014 56.2867C84.4665 56.5705 83.8707 56.7203 83.2652 56.7234C80.8192 56.7234 78.7845 54.2593 78.3623 51.0052C78.8508 50.6486 79.266 50.2013 79.5853 49.6876C81.0194 47.3763 83.2251 45.8949 85.733 45.8949C88.2408 45.8949 90.4248 47.3508 91.8589 49.6476C92.2877 50.3366 92.8866 50.9038 93.598 51.2946C94.3094 51.6853 95.1093 51.8865 95.9209 51.8788H95.9864C97.9338 51.8752 99.619 53.4367 100.46 55.7116Z" fill="#7EC845"/>
<path opacity="0.1" d="M107.892 45.5089L103.939 48.0168L106.338 43.649C105.659 43.1044 104.817 42.8032 103.947 42.7936H103.885C103.611 42.8 103.336 42.7805 103.066 42.7354L101.723 43.5835L102.298 42.5388C101.349 42.2069 100.528 41.5841 99.9538 40.7589L97.5478 42.284L99.062 39.5287C97.6607 37.8471 95.768 36.8134 93.6896 36.8134C91.1963 36.8134 88.9578 38.2948 87.5383 40.6061C87.1127 41.2957 86.5127 41.8607 85.7988 42.2442C85.0849 42.6277 84.2825 42.8159 83.4725 42.79H83.3524C80.6007 42.79 78.3658 45.913 78.3658 49.7639C78.3658 53.6149 80.6007 56.7379 83.3524 56.7379C83.9582 56.7365 84.5544 56.5865 85.0886 56.3011C86.0263 55.8465 87.0514 55.6007 88.0933 55.5806C89.1352 55.5605 90.169 55.7666 91.1235 56.1846C91.9357 56.5472 92.8148 56.7356 93.7042 56.7379C94.582 56.7368 95.4499 56.552 96.2521 56.1955C97.199 55.7854 98.2231 55.5836 99.2549 55.6037C100.287 55.6238 101.302 55.8654 102.232 56.312C102.762 56.5899 103.352 56.7359 103.95 56.7379C106.706 56.7379 108.937 53.6149 108.937 49.7639C108.95 48.2805 108.591 46.8175 107.892 45.5089Z" fill="#7EC845"/>
<path opacity="0.1" d="M48.2717 95.7499C49.7101 95.4764 51.1972 95.6361 52.5448 96.2085C53.3515 96.5697 54.2253 96.7564 55.1091 96.7564C55.9929 96.7564 56.8668 96.5697 57.6734 96.2085C58.6279 95.7905 59.6617 95.5844 60.7036 95.6045C61.7455 95.6246 62.7706 95.8704 63.7083 96.325C64.2433 96.6084 64.839 96.7582 65.4445 96.7618C67.8904 96.7618 69.9288 94.2976 70.351 91.0436C69.8616 90.688 69.4462 90.2404 69.128 89.726C67.6939 87.4147 65.4699 85.9332 62.9767 85.9332C60.4834 85.9332 58.2885 87.3892 56.8544 89.6859C56.4238 90.3764 55.8224 90.9442 55.1083 91.3344C54.3942 91.7246 53.5915 91.9241 52.7778 91.9135H52.7159C50.7795 91.9135 49.0906 93.475 48.2717 95.7499Z" fill="#7EC845"/>
<path opacity="0.1" d="M40.8172 85.5473L44.7701 88.0551L42.3678 83.6873C43.0471 83.1432 43.8889 82.8421 44.7592 82.8319H44.8247C45.0989 82.8383 45.3731 82.8188 45.6436 82.7737L46.9831 83.6218L46.408 82.5771C47.3582 82.2454 48.1797 81.6226 48.7557 80.7973L51.1544 82.3187L49.6365 79.5633C51.0415 77.8817 52.9306 76.848 55.0126 76.848C57.5059 76.848 59.7262 78.3294 61.1639 80.6407C61.5892 81.3306 62.1892 81.8959 62.9032 82.2794C63.6171 82.6629 64.4197 82.851 65.2297 82.8247H65.3607C68.1161 82.8247 70.3473 85.9476 70.3473 89.7986C70.3473 93.6496 68.1161 96.7725 65.3607 96.7725C64.755 96.7703 64.1591 96.6204 63.6245 96.3358C62.6868 95.8812 61.6617 95.6354 60.6198 95.6153C59.578 95.5952 58.5441 95.8013 57.5896 96.2193C56.7787 96.5819 55.9008 96.7703 55.0126 96.7725C54.1347 96.7722 53.2667 96.5874 52.4647 96.2302C51.5171 95.82 50.4925 95.6182 49.4601 95.6383C48.4277 95.6584 47.4117 95.8999 46.4808 96.3467C45.9508 96.6249 45.3614 96.771 44.7628 96.7725C42.0111 96.7725 39.7762 93.6496 39.7762 89.7986C39.7623 88.3167 40.1202 86.8551 40.8172 85.5473Z" fill="#7EC845"/>
<path d="M200.625 98.6653C200.856 98.6933 201.081 98.7636 201.287 98.8728C201.557 99.0638 201.759 99.3352 201.866 99.6481C202.14 100.427 202.271 101.25 202.252 102.076C202.295 102.742 202.21 103.411 202.001 104.045C201.936 104.241 201.823 104.417 201.673 104.558C201.541 104.664 201.387 104.738 201.222 104.777C201.047 104.838 200.86 104.858 200.677 104.835C200.493 104.812 200.317 104.747 200.162 104.646C199.878 104.351 199.711 103.963 199.693 103.554C199.655 102.991 199.434 102.457 199.063 102.032C198.761 101.752 198.335 101.61 198.113 101.264C197.851 100.849 197.989 100.311 198.157 99.8519C198.299 99.4515 198.521 98.6435 198.929 98.4397C199.336 98.2358 200.192 98.5853 200.625 98.6653Z" fill="#FBBEBE"/>
<path d="M185.268 100.624C185.393 101.069 185.616 101.48 185.92 101.828C186.105 102.043 186.335 102.302 186.236 102.556C186.198 102.648 186.138 102.729 186.062 102.793C184.693 104.132 182.786 104.784 180.875 105.021C180.845 105.028 180.814 105.028 180.784 105.021C180.729 104.995 180.715 104.926 180.707 104.864C180.677 104.666 180.677 104.465 180.707 104.267C180.78 104.041 180.897 103.832 181.051 103.652C181.205 103.472 181.394 103.325 181.607 103.219C182.029 103.004 182.392 102.688 182.662 102.298C182.939 101.777 182.822 101.1 183.15 100.613C183.302 100.428 183.49 100.277 183.703 100.167C183.916 100.058 184.149 99.9925 184.387 99.9757C184.548 99.9502 184.897 99.7682 185.035 99.8519C185.174 99.9356 185.214 100.46 185.268 100.624Z" fill="#FBBEBE"/>
<path d="M200.81 98.618C200.811 98.5716 200.828 98.5269 200.859 98.4921C200.89 98.4574 200.932 98.4349 200.978 98.4287C201.069 98.419 201.162 98.4315 201.247 98.4651C201.461 98.5231 201.679 98.5633 201.899 98.5852C202.163 98.5936 202.426 98.624 202.685 98.6762C202.815 98.7036 202.936 98.7597 203.042 98.8403C203.147 98.9209 203.233 99.024 203.293 99.1421C203.343 99.282 203.367 99.4303 203.362 99.5789C203.365 100.153 203.296 100.725 203.158 101.282C203.158 101.322 203.129 101.373 203.089 101.388C203.049 101.402 203.016 101.388 202.983 101.388C202.955 101.404 202.933 101.43 202.922 101.461C202.785 101.826 202.707 102.21 202.689 102.6C202.623 103.171 202.547 103.743 202.452 104.311C202.416 104.649 202.291 104.972 202.088 105.246C201.825 105.51 201.476 105.67 201.105 105.698C200.327 105.758 199.544 105.687 198.79 105.486C198.645 105.472 198.508 105.411 198.401 105.312C198.332 105.224 198.298 105.114 198.306 105.002C198.306 104.638 198.67 104.351 198.99 104.14L199.464 103.852C199.494 103.835 199.52 103.811 199.54 103.783C199.56 103.739 199.568 103.689 199.562 103.641L199.533 103.08C199.822 103.088 200.104 103.174 200.348 103.33C200.592 103.485 200.79 103.703 200.92 103.961C200.981 104.081 201.04 104.223 201.163 104.271C201.245 104.288 201.33 104.274 201.401 104.231C201.472 104.187 201.524 104.118 201.546 104.038C201.587 103.877 201.587 103.707 201.546 103.546C201.291 102.174 201.353 100.762 201.182 99.3751C201.172 99.2199 201.123 99.0696 201.04 98.9383C200.967 98.8364 200.829 98.7563 200.81 98.618Z" fill="#F86D70"/>
<path d="M181.73 103.936C181.665 104.041 181.563 104.122 181.505 104.234C181.47 104.286 181.456 104.348 181.465 104.409C181.474 104.47 181.505 104.526 181.552 104.566C181.616 104.595 181.687 104.602 181.756 104.587C183.128 104.416 184.415 103.833 185.45 102.917C185.622 102.771 185.774 102.604 185.902 102.418C186.022 102.236 186.124 102.014 186.327 101.938C186.452 102.47 186.516 103.014 186.52 103.561C186.541 103.741 186.519 103.924 186.456 104.094C186.392 104.264 186.29 104.417 186.156 104.54C186.045 104.613 185.922 104.665 185.792 104.697L185.148 104.879C185.032 104.924 184.906 104.935 184.784 104.911C184.712 104.879 184.638 104.853 184.562 104.831C184.478 104.821 184.394 104.831 184.315 104.86L183.761 105.024C183.573 105.07 183.389 105.134 183.212 105.213C183.052 105.29 182.906 105.388 182.753 105.472C182.494 105.6 182.225 105.708 181.949 105.796L180.973 106.134C180.707 106.24 180.428 106.312 180.143 106.349C179.947 106.349 179.75 106.349 179.554 106.382C179.357 106.415 179.266 106.458 179.113 106.473C178.867 106.479 178.625 106.407 178.422 106.269C178.344 106.222 178.275 106.16 178.222 106.087C178.083 105.872 178.222 105.585 178.342 105.359C178.578 104.941 178.918 104.59 179.328 104.34C179.499 104.245 179.692 104.176 179.856 104.092C180.354 103.852 180.729 103.448 181.199 103.172C181.668 102.895 181.938 103.594 181.73 103.936Z" fill="#F86D70"/>
<path d="M195.431 64.6546C195.946 65.0087 196.537 65.2391 197.156 65.328C197.48 65.3667 197.805 65.3838 198.131 65.3789C199.492 65.3756 200.851 65.2624 202.193 65.0404C201.616 64.4888 201.178 63.8076 200.916 63.0531C200.817 62.6457 200.796 62.2234 200.854 61.8083C200.932 61.2762 201.054 60.7515 201.218 60.2395C200.645 60.2722 200.07 60.2576 199.5 60.1958C199.176 60.163 198.379 59.8682 198.095 60.0939C197.811 60.3196 198.029 61.0366 198.037 61.3788C198.038 61.3908 198.038 61.4031 198.037 61.4152C198.023 61.9312 197.912 62.44 197.709 62.9148C197.52 63.3819 197.208 63.7897 196.807 64.0957C196.407 64.4017 195.931 64.5947 195.431 64.6546Z" fill="#FBBEBE"/>
<path opacity="0.1" d="M198.055 61.3788C198.464 61.6456 198.925 61.8219 199.408 61.896C199.891 61.97 200.384 61.9401 200.854 61.8083C200.932 61.2762 201.054 60.7515 201.218 60.2395C200.645 60.2722 200.07 60.2576 199.5 60.1958C199.176 60.163 198.379 59.8682 198.095 60.0939C197.811 60.3196 198.048 61.0366 198.055 61.3788Z" fill="black"/>
<path d="M199.926 61.7791C201.816 61.7791 203.347 60.2472 203.347 58.3576C203.347 56.468 201.816 54.9362 199.926 54.9362C198.036 54.9362 196.504 56.468 196.504 58.3576C196.504 60.2472 198.036 61.7791 199.926 61.7791Z" fill="#FBBEBE"/>
<path d="M185.414 75.6615C185.413 75.9374 185.484 76.2088 185.619 76.4493C185.754 76.6897 185.949 76.8911 186.185 77.0337C186.448 77.1738 186.73 77.2732 187.023 77.3286C188.577 77.7579 190.186 77.9566 191.798 77.9182C192.146 77.9146 192.49 77.8429 192.81 77.7071C192.969 77.6361 193.109 77.528 193.218 77.3919C193.327 77.2557 193.402 77.0955 193.436 76.9245C193.426 76.8275 193.449 76.7301 193.5 76.6472C193.552 76.5643 193.629 76.5006 193.72 76.4659C193.866 76.3555 193.978 76.2059 194.042 76.0345C194.106 75.8631 194.121 75.677 194.084 75.4977C194.28 75.5851 194.484 75.3885 194.575 75.1956C194.666 75.0027 194.739 74.7661 194.939 74.686C195.079 74.6542 195.222 74.6335 195.365 74.6242C195.591 74.5659 195.729 74.3475 195.889 74.1801C196.245 73.8667 196.654 73.6201 197.098 73.4521C198.357 72.8152 199.38 71.8106 200.374 70.8205C200.894 70.3394 201.367 69.8092 201.786 69.2372C201.899 69.0697 202.004 68.8987 202.099 68.724C202.403 68.142 202.667 67.5401 202.889 66.9222C203.042 66.6003 203.111 66.2445 203.089 65.8885C203.091 65.857 203.091 65.8254 203.089 65.7939C203.024 65.5685 202.919 65.3565 202.779 65.1678C202.465 64.6286 201.968 64.2194 201.378 64.014C200.788 63.8575 200.184 64.0468 199.558 64.1742C199.357 64.2199 199.152 64.2515 198.947 64.2688C198.3 64.2783 197.656 64.1773 197.043 63.9703L196.362 63.7847C196.024 63.6901 195.853 63.2787 195.511 63.206C195.356 63.1854 195.2 63.194 195.048 63.2314C194.344 63.3351 193.662 63.5579 193.032 63.8902C192.896 63.9687 192.765 64.0575 192.642 64.156C192.198 64.4895 191.877 64.9623 191.733 65.4991C191.591 66.0924 191.733 66.7221 191.58 67.319C191.433 67.8002 191.197 68.2496 190.884 68.6439L189.217 71.0389C188.845 71.5993 188.434 72.1332 187.987 72.6368C187.088 73.5977 185.439 74.3366 185.414 75.6615Z" fill="#F86D70"/>
<path d="M189.876 52.8033C189.833 52.4712 189.73 52.1495 189.574 51.8533C189.45 51.6767 189.301 51.5196 189.13 51.3874C188.856 51.1317 188.534 50.9315 188.184 50.7977C188.005 50.7282 187.813 50.7031 187.622 50.7247C187.432 50.7462 187.25 50.8138 187.092 50.9215C186.81 51.1749 186.64 51.5295 186.619 51.9079C186.542 52.421 186.631 52.9451 186.873 53.4039C187.165 53.9098 187.667 54.2483 188.085 54.6523C188.393 54.9441 188.66 55.2759 188.879 55.6387C188.979 55.8282 189.101 56.0053 189.243 56.1665C189.314 56.2463 189.402 56.3083 189.502 56.3475C189.601 56.3867 189.708 56.402 189.814 56.3922C189.992 56.3463 190.153 56.2518 190.28 56.1192C190.451 55.97 190.917 55.697 190.932 55.4568C190.946 55.2165 190.568 54.8234 190.491 54.6414C190.222 54.052 190.016 53.4359 189.876 52.8033Z" fill="#FBBEBE"/>
<path d="M177.854 92.4194C178.283 93.2129 178.757 93.9846 179.139 94.8035C179.361 95.2804 179.557 95.7717 179.805 96.234C180.052 96.6963 180.409 97.2131 180.693 97.7118C181.357 99.0074 181.854 100.382 182.171 101.803C183.197 101.649 184.185 101.302 185.083 100.78C185.141 100.744 185.199 100.707 185.254 100.667C185.494 100.495 185.695 100.275 185.843 100.019C185.505 98.7346 185.155 97.4315 184.464 96.2995C184.242 95.9355 183.983 95.5715 183.736 95.2076C183.063 94.152 182.924 92.8198 182.16 91.8298C182.086 91.7302 182.047 91.6096 182.047 91.4858C182.047 91.362 182.086 91.2414 182.16 91.1419C182.247 91.029 182.389 90.9198 182.36 90.7779C182.331 90.6359 182.233 90.5777 182.276 90.483C182.32 90.3884 182.342 90.4103 182.382 90.3775C182.509 90.2574 182.495 90.0499 182.506 89.8752C182.578 89.4293 182.771 89.0115 183.063 88.6668C183.116 88.5815 183.185 88.5073 183.266 88.4484C183.336 88.4047 183.419 88.3865 183.488 88.3428C183.732 88.1899 183.714 87.8332 183.831 87.5675C183.987 87.2035 184.373 87.0434 184.624 86.7595C184.948 86.3955 185.028 85.8968 185.352 85.5838C185.387 85.5506 185.425 85.5202 185.465 85.4928C185.316 86.0293 185.249 86.5851 185.265 87.1417C185.232 89.0453 185.709 91.0181 185.483 92.9108C185.308 94.4141 186.233 95.9137 187.543 96.6635C188.057 96.9349 188.594 97.1602 189.148 97.3369C189.971 97.6281 190.79 97.9302 191.594 98.265C192.162 98.5077 192.723 98.7613 193.276 99.0258C193.958 99.3532 194.621 99.7178 195.263 100.118C196.079 100.569 196.806 101.166 197.407 101.879C197.679 101.858 197.942 101.779 198.181 101.648C198.419 101.517 198.627 101.337 198.79 101.119C199.116 100.682 199.372 100.199 199.551 99.6846C199.752 99.2597 199.875 98.8024 199.915 98.3342C199.917 98.2834 199.904 98.2331 199.877 98.1897C199.851 98.1464 199.812 98.1118 199.766 98.0903L196.013 96.0993L195.311 95.7353C193.775 94.92 192.18 94.1666 190.644 93.3512C190.542 93.3804 190.455 93.2639 190.426 93.162C190.397 93.0601 190.375 92.9327 190.277 92.8853C190.178 92.838 190.164 92.8635 190.127 92.8235C190.115 92.8056 190.106 92.7855 190.102 92.7642C190.098 92.7429 190.098 92.721 190.102 92.6997C190.153 91.9717 190.688 91.2729 190.579 90.534C190.478 90.2342 190.432 89.9184 190.444 89.6022C190.524 89.3988 190.619 89.2017 190.728 89.0125C190.914 88.5612 190.728 88.0152 190.932 87.5566C191.066 87.2645 191.157 86.9542 191.201 86.6357C191.299 86.0033 191.493 85.3896 191.776 84.8158C191.912 84.5244 192.09 84.2546 192.304 84.015C192.417 83.8949 192.544 83.7857 192.668 83.6511C192.966 83.2401 193.152 82.7583 193.207 82.2534C193.421 81.356 193.447 80.4241 193.283 79.5162C193.189 79.2171 193.131 78.908 193.109 78.5953C193.109 78.1804 193.294 77.6963 193.007 77.3978C192.888 77.2912 192.744 77.2172 192.588 77.183C191.92 77.009 191.24 76.8873 190.553 76.8191L187.416 76.4114C187.054 76.3875 186.7 76.2961 186.371 76.142C185.956 75.8819 185.645 75.4837 185.494 75.0173C184.941 75.4177 184.737 76.1675 184.296 76.6844C184.082 76.9392 183.82 77.143 183.568 77.376C183.283 77.6787 183.02 78.0023 182.782 78.3442C182.101 79.2211 181.506 80.1622 181.006 81.1541C180.762 81.6783 180.573 82.2242 180.376 82.7666C179.612 84.9032 178.363 86.9305 177.828 89.1399C177.701 89.6823 177.37 90.17 177.319 90.7196C177.325 91.3268 177.511 91.9184 177.854 92.4194Z" fill="#434175"/>
<path opacity="0.1" d="M194.273 74.6714C194.35 74.8132 194.389 74.9725 194.386 75.1337C194.317 74.7697 193.84 74.595 193.811 74.2528C193.811 74.0963 193.811 74.1036 193.924 74.1873C194.036 74.2711 194.135 74.5368 194.273 74.6714Z" fill="black"/>
<path opacity="0.1" d="M192.824 75.7197C192.923 75.8052 192.998 75.9159 193.039 76.04C193.12 76.2156 193.136 76.4145 193.083 76.6006C193.014 76.5678 192.992 76.4805 192.97 76.4077C192.935 76.2911 192.885 76.1797 192.821 76.0764C192.766 75.9854 192.504 75.7743 192.508 75.676C192.511 75.5778 192.755 75.6688 192.824 75.7197Z" fill="black"/>
<path opacity="0.1" d="M192.657 64.145C192.88 64.3337 193.124 64.495 193.385 64.6254C194.062 64.9676 194.812 65.1496 195.496 65.4808C195.835 65.6482 196.155 65.8448 196.475 66.0522L198.503 67.3371C198.664 67.4322 198.815 67.5458 198.95 67.6756C199.191 67.9377 199.191 68.4036 199.413 68.6729C199.536 68.8129 199.688 68.9257 199.858 69.004C200.028 69.0823 200.212 69.1245 200.399 69.1279C200.771 69.1292 201.14 69.0664 201.491 68.9423C201.704 68.8783 201.913 68.8018 202.117 68.713C202.33 68.6227 202.531 68.5078 202.718 68.3708C202.907 68.2418 203.069 68.0762 203.194 67.8837C203.319 67.6912 203.405 67.4757 203.445 67.2498C203.469 66.9402 203.428 66.6291 203.325 66.3362C203.269 66.1458 203.196 65.9606 203.107 65.7829C203.059 65.6807 203.002 65.5832 202.936 65.4917C202.47 64.8329 201.651 64.5235 200.858 64.367C200.439 64.2869 200.013 64.236 199.595 64.1632C199.393 64.2089 199.189 64.2405 198.983 64.2578C198.336 64.2673 197.692 64.1663 197.079 63.9593L196.399 63.7737C196.06 63.6791 195.889 63.2678 195.547 63.195C195.393 63.1744 195.236 63.183 195.085 63.2204C194.38 63.3242 193.698 63.5469 193.068 63.8793C192.924 63.9567 192.787 64.0456 192.657 64.145Z" fill="black"/>
<path d="M191.005 55.0781C191.092 55.9044 191.787 56.5122 192.213 57.2256C192.421 57.5896 192.577 57.9536 192.752 58.3176C192.971 58.7081 193.214 59.0849 193.48 59.4459L194.24 60.5379C194.661 61.2014 195.149 61.8199 195.696 62.3833C196.694 62.5544 197.516 63.2933 198.47 63.65C199.246 63.878 200.04 64.0388 200.843 64.1304C201.637 64.2869 202.456 64.5963 202.922 65.2551C203.093 65.5165 203.225 65.8025 203.311 66.1032C203.414 66.3961 203.455 66.7072 203.431 67.0168C203.39 67.2421 203.304 67.4569 203.179 67.6487C203.054 67.8406 202.893 68.0056 202.703 68.1343C202.332 68.3969 201.916 68.5905 201.477 68.7057C201.126 68.8316 200.757 68.8944 200.385 68.8913C200.197 68.8888 200.013 68.847 199.843 68.7687C199.673 68.6903 199.522 68.5771 199.398 68.4364C199.176 68.1597 199.18 67.7084 198.936 67.4427C198.802 67.3114 198.651 67.1977 198.488 67.1042L196.461 65.8193C196.146 65.6101 195.819 65.4193 195.482 65.2479C194.797 64.913 194.048 64.7346 193.371 64.3888C192.694 64.0431 192.06 63.4825 191.915 62.7327C191.503 60.436 189.913 58.4996 188.555 56.6032C188.599 56.6032 188.584 56.494 188.602 56.4503C188.798 56.0039 189.152 55.6459 189.596 55.4458C190.048 55.2648 190.522 55.1413 191.005 55.0781Z" fill="#F86D70"/>
<path d="M198.171 55.0781C198.142 54.8266 198.192 54.5724 198.313 54.3502C198.451 54.1799 198.621 54.0394 198.814 53.9374C199.008 53.8354 199.22 53.7739 199.438 53.7569C199.849 53.6695 200.261 53.6004 200.676 53.5385C201.013 53.4706 201.359 53.4645 201.698 53.5203C202.144 53.6775 202.572 53.88 202.976 54.1245C203.503 54.3138 204.046 54.4528 204.599 54.5394C205.16 54.6243 205.675 54.9008 206.055 55.322C206.294 55.6857 206.443 56.1013 206.488 56.5341C207.136 60.0283 206.437 63.6099 206.306 67.1624C206.255 68.5419 206.306 70.0197 207.107 71.1663L204.807 71.108C204.221 71.0898 203.587 71.0607 203.122 70.6967C202.745 70.338 202.477 69.8799 202.35 69.3755C202.193 68.9981 202.094 68.5993 202.055 68.1925C202.019 67.3553 202.492 66.5364 202.339 65.7174C202.177 65.0971 201.803 64.5527 201.283 64.1778C200.78 63.81 200.313 63.3944 199.889 62.9366C199.201 62.063 199.07 60.8728 199.161 59.7626C199.253 59.1092 199.291 58.4494 199.274 57.7898C199.245 57.2855 199.064 56.8018 198.754 56.403C198.394 56.0542 198.185 55.5788 198.171 55.0781Z" fill="#434175"/>
<path opacity="0.1" d="M198.313 54.3502C198.446 54.1831 198.611 54.0447 198.799 53.9433C198.987 53.842 199.193 53.7798 199.405 53.7605C199.181 53.839 198.989 53.9901 198.859 54.19C198.738 54.4122 198.688 54.6665 198.717 54.918C198.732 55.42 198.944 55.8961 199.307 56.2429C199.617 56.6406 199.798 57.1229 199.828 57.626C199.844 58.2868 199.807 58.9479 199.715 59.6024C199.631 60.6944 199.762 61.8992 200.443 62.7728C200.866 63.2306 201.333 63.6462 201.837 64.0139C202.345 64.3846 202.712 64.9173 202.878 65.5245C203.031 66.3471 202.557 67.1661 202.594 67.9996C202.632 68.4065 202.731 68.8053 202.889 69.1825C203.016 69.687 203.283 70.1451 203.66 70.5038C204.126 70.8678 204.752 70.9005 205.346 70.9151L206.976 70.9588C207.013 71.017 207.049 71.0752 207.089 71.1335L204.789 71.0753C204.203 71.0571 203.569 71.0279 203.103 70.6639C202.727 70.3052 202.459 69.8471 202.332 69.3427C202.175 68.9653 202.076 68.5666 202.037 68.1597C202.001 67.3226 202.474 66.5036 202.321 65.6846C202.156 65.079 201.791 64.5474 201.283 64.1777C200.78 63.81 200.313 63.3944 199.889 62.9365C199.201 62.063 199.07 60.8728 199.161 59.7626C199.253 59.1092 199.291 58.4494 199.274 57.7898C199.245 57.2854 199.064 56.8018 198.754 56.403C198.392 56.0553 198.18 55.5798 198.164 55.0781C198.137 54.8259 198.19 54.5715 198.313 54.3502Z" fill="black"/>
<path opacity="0.1" d="M181.035 90.3847L185.268 100.667C185.508 100.495 185.709 100.274 185.858 100.019C185.519 98.7345 185.17 97.4314 184.478 96.2994C184.256 95.9354 183.998 95.5715 183.75 95.2075C183.077 94.1519 182.939 92.8197 182.174 91.8297C182.101 91.7301 182.061 91.6095 182.061 91.4857C182.061 91.3619 182.101 91.2413 182.174 91.1418C182.262 91.0289 182.404 90.9197 182.375 90.7778C182.345 90.6358 182.247 90.5776 182.291 90.4829C182.335 90.3883 182.356 90.4102 182.396 90.3774C182.524 90.2573 182.509 90.0498 182.52 89.8751C182.593 89.4292 182.785 89.0114 183.077 88.6667C183.13 88.5814 183.199 88.5072 183.281 88.4483C183.35 88.4046 183.434 88.3864 183.503 88.3427C183.747 88.1899 183.729 87.8331 183.845 87.5674C184.002 87.2035 184.387 87.0433 184.639 86.7594C184.962 86.3954 185.043 85.8967 185.367 85.5837L185.396 85.5109L185.075 83.5236L181.035 90.3847Z" fill="black"/>
<defs>
<linearGradient id="paint0_linear_1_4125" x1="192.206" y1="106.68" x2="192.206" y2="50.5502" gradientUnits="userSpaceOnUse">
<stop stop-color="#808080" stop-opacity="0.25"/>
<stop offset="0.54" stop-color="#808080" stop-opacity="0.12"/>
<stop offset="1" stop-color="#808080" stop-opacity="0.1"/>
</linearGradient>
</defs>
</svg>
