<svg width="150" height="150" viewBox="0 0 150 150" fill="none" xmlns="http://www.w3.org/2000/svg">
<circle cx="1.92308" cy="1.92308" r="1.92308" fill="#BED441" fill-opacity="0.25"/>
<circle cx="9.61546" cy="1.92308" r="1.92308" fill="#BED441" fill-opacity="0.25"/>
<circle cx="17.3076" cy="1.92308" r="1.92308" fill="#BED441" fill-opacity="0.25"/>
<circle cx="25" cy="1.92308" r="1.92308" fill="#BED441" fill-opacity="0.25"/>
<circle cx="32.6924" cy="1.92308" r="1.92308" fill="#BED441" fill-opacity="0.25"/>
<circle cx="40.3845" cy="1.92308" r="1.92308" fill="#BED441" fill-opacity="0.25"/>
<circle cx="48.0769" cy="1.92308" r="1.92308" fill="#BED441" fill-opacity="0.25"/>
<circle cx="55.7693" cy="1.92308" r="1.92308" fill="#BED441" fill-opacity="0.25"/>
<circle cx="63.4617" cy="1.92308" r="1.92308" fill="#BED441" fill-opacity="0.25"/>
<circle cx="71.1538" cy="1.92308" r="1.92308" fill="#BED441" fill-opacity="0.25"/>
<circle cx="78.8462" cy="1.92308" r="1.92308" fill="#BED441" fill-opacity="0.25"/>
<circle cx="86.5386" cy="1.92308" r="1.92308" fill="#BED441" fill-opacity="0.25"/>
<circle cx="94.2307" cy="1.92308" r="1.92308" fill="#BED441" fill-opacity="0.25"/>
<circle cx="101.923" cy="1.92308" r="1.92308" fill="#BED441" fill-opacity="0.25"/>
<circle cx="109.615" cy="1.92308" r="1.92308" fill="#BED441" fill-opacity="0.25"/>
<circle cx="117.308" cy="1.92308" r="1.92308" fill="#BED441" fill-opacity="0.25"/>
<circle cx="125" cy="1.92308" r="1.92308" fill="#BED441" fill-opacity="0.25"/>
<circle cx="132.692" cy="1.92308" r="1.92308" fill="#BED441" fill-opacity="0.25"/>
<circle cx="140.385" cy="1.92308" r="1.92308" fill="#BED441" fill-opacity="0.25"/>
<circle cx="148.077" cy="1.92308" r="1.92308" fill="#BED441" fill-opacity="0.25"/>
<circle cx="1.92308" cy="9.61546" r="1.92308" fill="#BED441" fill-opacity="0.25"/>
<circle cx="9.61546" cy="9.61546" r="1.92308" fill="#BED441" fill-opacity="0.25"/>
<circle cx="17.3076" cy="9.61546" r="1.92308" fill="#BED441" fill-opacity="0.25"/>
<circle cx="25" cy="9.61546" r="1.92308" fill="#BED441" fill-opacity="0.25"/>
<circle cx="32.6924" cy="9.61546" r="1.92308" fill="#BED441" fill-opacity="0.25"/>
<circle cx="40.3845" cy="9.61546" r="1.92308" fill="#BED441" fill-opacity="0.25"/>
<circle cx="48.0769" cy="9.61546" r="1.92308" fill="#BED441" fill-opacity="0.25"/>
<circle cx="55.7693" cy="9.61546" r="1.92308" fill="#BED441" fill-opacity="0.25"/>
<circle cx="63.4617" cy="9.61546" r="1.92308" fill="#BED441" fill-opacity="0.25"/>
<circle cx="71.1538" cy="9.61546" r="1.92308" fill="#BED441" fill-opacity="0.25"/>
<circle cx="78.8462" cy="9.61546" r="1.92308" fill="#BED441" fill-opacity="0.25"/>
<circle cx="86.5386" cy="9.61546" r="1.92308" fill="#BED441" fill-opacity="0.25"/>
<circle cx="94.2307" cy="9.61546" r="1.92308" fill="#BED441" fill-opacity="0.25"/>
<circle cx="101.923" cy="9.61546" r="1.92308" fill="#BED441" fill-opacity="0.25"/>
<circle cx="109.615" cy="9.61546" r="1.92308" fill="#BED441" fill-opacity="0.25"/>
<circle cx="117.308" cy="9.61546" r="1.92308" fill="#BED441" fill-opacity="0.25"/>
<circle cx="125" cy="9.61546" r="1.92308" fill="#BED441" fill-opacity="0.25"/>
<circle cx="132.692" cy="9.61546" r="1.92308" fill="#BED441" fill-opacity="0.25"/>
<circle cx="140.385" cy="9.61546" r="1.92308" fill="#BED441" fill-opacity="0.25"/>
<circle cx="148.077" cy="9.61546" r="1.92308" fill="#BED441" fill-opacity="0.25"/>
<circle cx="1.92308" cy="17.3077" r="1.92308" fill="#BED441" fill-opacity="0.25"/>
<circle cx="9.61546" cy="17.3077" r="1.92308" fill="#BED441" fill-opacity="0.25"/>
<circle cx="17.3076" cy="17.3077" r="1.92308" fill="#BED441" fill-opacity="0.25"/>
<circle cx="25" cy="17.3077" r="1.92308" fill="#BED441" fill-opacity="0.25"/>
<circle cx="32.6924" cy="17.3077" r="1.92308" fill="#BED441" fill-opacity="0.25"/>
<circle cx="40.3845" cy="17.3077" r="1.92308" fill="#BED441" fill-opacity="0.25"/>
<circle cx="48.0769" cy="17.3077" r="1.92308" fill="#BED441" fill-opacity="0.25"/>
<circle cx="55.7693" cy="17.3077" r="1.92308" fill="#BED441" fill-opacity="0.25"/>
<circle cx="63.4617" cy="17.3077" r="1.92308" fill="#BED441" fill-opacity="0.25"/>
<circle cx="71.1538" cy="17.3077" r="1.92308" fill="#BED441" fill-opacity="0.25"/>
<circle cx="78.8462" cy="17.3077" r="1.92308" fill="#BED441" fill-opacity="0.25"/>
<circle cx="86.5386" cy="17.3077" r="1.92308" fill="#BED441" fill-opacity="0.25"/>
<circle cx="94.2307" cy="17.3077" r="1.92308" fill="#BED441" fill-opacity="0.25"/>
<circle cx="101.923" cy="17.3077" r="1.92308" fill="#BED441" fill-opacity="0.25"/>
<circle cx="109.615" cy="17.3077" r="1.92308" fill="#BED441" fill-opacity="0.25"/>
<circle cx="117.308" cy="17.3077" r="1.92308" fill="#BED441" fill-opacity="0.25"/>
<circle cx="125" cy="17.3077" r="1.92308" fill="#BED441" fill-opacity="0.25"/>
<circle cx="132.692" cy="17.3077" r="1.92308" fill="#BED441" fill-opacity="0.25"/>
<circle cx="140.385" cy="17.3077" r="1.92308" fill="#BED441" fill-opacity="0.25"/>
<circle cx="148.077" cy="17.3077" r="1.92308" fill="#BED441" fill-opacity="0.25"/>
<circle cx="1.92308" cy="25" r="1.92308" fill="#BED441" fill-opacity="0.25"/>
<circle cx="9.61546" cy="25" r="1.92308" fill="#BED441" fill-opacity="0.25"/>
<circle cx="17.3076" cy="25" r="1.92308" fill="#BED441" fill-opacity="0.25"/>
<circle cx="25" cy="25" r="1.92308" fill="#BED441" fill-opacity="0.25"/>
<circle cx="32.6924" cy="25" r="1.92308" fill="#BED441" fill-opacity="0.25"/>
<circle cx="40.3845" cy="25" r="1.92308" fill="#BED441" fill-opacity="0.25"/>
<circle cx="48.0769" cy="25" r="1.92308" fill="#BED441" fill-opacity="0.25"/>
<circle cx="55.7693" cy="25" r="1.92308" fill="#BED441" fill-opacity="0.25"/>
<circle cx="63.4617" cy="25" r="1.92308" fill="#BED441" fill-opacity="0.25"/>
<circle cx="71.1538" cy="25" r="1.92308" fill="#BED441" fill-opacity="0.25"/>
<circle cx="78.8462" cy="25" r="1.92308" fill="#BED441" fill-opacity="0.25"/>
<circle cx="86.5386" cy="25" r="1.92308" fill="#BED441" fill-opacity="0.25"/>
<circle cx="94.2307" cy="25" r="1.92308" fill="#BED441" fill-opacity="0.25"/>
<circle cx="101.923" cy="25" r="1.92308" fill="#BED441" fill-opacity="0.25"/>
<circle cx="109.615" cy="25" r="1.92308" fill="#BED441" fill-opacity="0.25"/>
<circle cx="117.308" cy="25" r="1.92308" fill="#BED441" fill-opacity="0.25"/>
<circle cx="125" cy="25" r="1.92308" fill="#BED441" fill-opacity="0.25"/>
<circle cx="132.692" cy="25" r="1.92308" fill="#BED441" fill-opacity="0.25"/>
<circle cx="140.385" cy="25" r="1.92308" fill="#BED441" fill-opacity="0.25"/>
<circle cx="148.077" cy="25" r="1.92308" fill="#BED441" fill-opacity="0.25"/>
<circle cx="1.92308" cy="32.6924" r="1.92308" fill="#BED441" fill-opacity="0.25"/>
<circle cx="9.61546" cy="32.6924" r="1.92308" fill="#BED441" fill-opacity="0.25"/>
<circle cx="17.3076" cy="32.6924" r="1.92308" fill="#BED441" fill-opacity="0.25"/>
<circle cx="25" cy="32.6924" r="1.92308" fill="#BED441" fill-opacity="0.25"/>
<circle cx="32.6924" cy="32.6924" r="1.92308" fill="#BED441" fill-opacity="0.25"/>
<circle cx="40.3845" cy="32.6924" r="1.92308" fill="#BED441" fill-opacity="0.25"/>
<circle cx="48.0769" cy="32.6924" r="1.92308" fill="#BED441" fill-opacity="0.25"/>
<circle cx="55.7693" cy="32.6924" r="1.92308" fill="#BED441" fill-opacity="0.25"/>
<circle cx="63.4617" cy="32.6924" r="1.92308" fill="#BED441" fill-opacity="0.25"/>
<circle cx="71.1538" cy="32.6924" r="1.92308" fill="#BED441" fill-opacity="0.25"/>
<circle cx="78.8462" cy="32.6924" r="1.92308" fill="#BED441" fill-opacity="0.25"/>
<circle cx="86.5386" cy="32.6924" r="1.92308" fill="#BED441" fill-opacity="0.25"/>
<circle cx="94.2307" cy="32.6924" r="1.92308" fill="#BED441" fill-opacity="0.25"/>
<circle cx="101.923" cy="32.6924" r="1.92308" fill="#BED441" fill-opacity="0.25"/>
<circle cx="109.615" cy="32.6924" r="1.92308" fill="#BED441" fill-opacity="0.25"/>
<circle cx="117.308" cy="32.6924" r="1.92308" fill="#BED441" fill-opacity="0.25"/>
<circle cx="125" cy="32.6924" r="1.92308" fill="#BED441" fill-opacity="0.25"/>
<circle cx="132.692" cy="32.6924" r="1.92308" fill="#BED441" fill-opacity="0.25"/>
<circle cx="140.385" cy="32.6924" r="1.92308" fill="#BED441" fill-opacity="0.25"/>
<circle cx="148.077" cy="32.6924" r="1.92308" fill="#BED441" fill-opacity="0.25"/>
<circle cx="1.92308" cy="40.3846" r="1.92308" fill="#BED441" fill-opacity="0.25"/>
<circle cx="9.61546" cy="40.3846" r="1.92308" fill="#BED441" fill-opacity="0.25"/>
<circle cx="17.3076" cy="40.3846" r="1.92308" fill="#BED441" fill-opacity="0.25"/>
<circle cx="25" cy="40.3846" r="1.92308" fill="#BED441" fill-opacity="0.25"/>
<circle cx="32.6924" cy="40.3846" r="1.92308" fill="#BED441" fill-opacity="0.25"/>
<circle cx="40.3845" cy="40.3846" r="1.92308" fill="#BED441" fill-opacity="0.25"/>
<circle cx="48.0769" cy="40.3846" r="1.92308" fill="#BED441" fill-opacity="0.25"/>
<circle cx="55.7693" cy="40.3846" r="1.92308" fill="#BED441" fill-opacity="0.25"/>
<circle cx="63.4617" cy="40.3846" r="1.92308" fill="#BED441" fill-opacity="0.25"/>
<circle cx="71.1538" cy="40.3846" r="1.92308" fill="#BED441" fill-opacity="0.25"/>
<circle cx="78.8462" cy="40.3846" r="1.92308" fill="#BED441" fill-opacity="0.25"/>
<circle cx="86.5386" cy="40.3846" r="1.92308" fill="#BED441" fill-opacity="0.25"/>
<circle cx="94.2307" cy="40.3846" r="1.92308" fill="#BED441" fill-opacity="0.25"/>
<circle cx="101.923" cy="40.3846" r="1.92308" fill="#BED441" fill-opacity="0.25"/>
<circle cx="109.615" cy="40.3846" r="1.92308" fill="#BED441" fill-opacity="0.25"/>
<circle cx="117.308" cy="40.3846" r="1.92308" fill="#BED441" fill-opacity="0.25"/>
<circle cx="125" cy="40.3846" r="1.92308" fill="#BED441" fill-opacity="0.25"/>
<circle cx="132.692" cy="40.3846" r="1.92308" fill="#BED441" fill-opacity="0.25"/>
<circle cx="140.385" cy="40.3846" r="1.92308" fill="#BED441" fill-opacity="0.25"/>
<circle cx="148.077" cy="40.3846" r="1.92308" fill="#BED441" fill-opacity="0.25"/>
<circle cx="1.92308" cy="48.0769" r="1.92308" fill="#BED441" fill-opacity="0.25"/>
<circle cx="9.61546" cy="48.0769" r="1.92308" fill="#BED441" fill-opacity="0.25"/>
<circle cx="17.3076" cy="48.0769" r="1.92308" fill="#BED441" fill-opacity="0.25"/>
<circle cx="25" cy="48.0769" r="1.92308" fill="#BED441" fill-opacity="0.25"/>
<circle cx="32.6924" cy="48.0769" r="1.92308" fill="#BED441" fill-opacity="0.25"/>
<circle cx="40.3845" cy="48.0769" r="1.92308" fill="#BED441" fill-opacity="0.25"/>
<circle cx="48.0769" cy="48.0769" r="1.92308" fill="#BED441" fill-opacity="0.25"/>
<circle cx="55.7693" cy="48.0769" r="1.92308" fill="#BED441" fill-opacity="0.25"/>
<circle cx="63.4617" cy="48.0769" r="1.92308" fill="#BED441" fill-opacity="0.25"/>
<circle cx="71.1538" cy="48.0769" r="1.92308" fill="#BED441" fill-opacity="0.25"/>
<circle cx="78.8462" cy="48.0769" r="1.92308" fill="#BED441" fill-opacity="0.25"/>
<circle cx="86.5386" cy="48.0769" r="1.92308" fill="#BED441" fill-opacity="0.25"/>
<circle cx="94.2307" cy="48.0769" r="1.92308" fill="#BED441" fill-opacity="0.25"/>
<circle cx="101.923" cy="48.0769" r="1.92308" fill="#BED441" fill-opacity="0.25"/>
<circle cx="109.615" cy="48.0769" r="1.92308" fill="#BED441" fill-opacity="0.25"/>
<circle cx="117.308" cy="48.0769" r="1.92308" fill="#BED441" fill-opacity="0.25"/>
<circle cx="125" cy="48.0769" r="1.92308" fill="#BED441" fill-opacity="0.25"/>
<circle cx="132.692" cy="48.0769" r="1.92308" fill="#BED441" fill-opacity="0.25"/>
<circle cx="140.385" cy="48.0769" r="1.92308" fill="#BED441" fill-opacity="0.25"/>
<circle cx="148.077" cy="48.0769" r="1.92308" fill="#BED441" fill-opacity="0.25"/>
<circle cx="1.92308" cy="55.7693" r="1.92308" fill="#BED441" fill-opacity="0.25"/>
<circle cx="9.61546" cy="55.7693" r="1.92308" fill="#BED441" fill-opacity="0.25"/>
<circle cx="17.3076" cy="55.7693" r="1.92308" fill="#BED441" fill-opacity="0.25"/>
<circle cx="25" cy="55.7693" r="1.92308" fill="#BED441" fill-opacity="0.25"/>
<circle cx="32.6924" cy="55.7693" r="1.92308" fill="#BED441" fill-opacity="0.25"/>
<circle cx="40.3845" cy="55.7693" r="1.92308" fill="#BED441" fill-opacity="0.25"/>
<circle cx="48.0769" cy="55.7693" r="1.92308" fill="#BED441" fill-opacity="0.25"/>
<circle cx="55.7693" cy="55.7693" r="1.92308" fill="#BED441" fill-opacity="0.25"/>
<circle cx="63.4617" cy="55.7693" r="1.92308" fill="#BED441" fill-opacity="0.25"/>
<circle cx="71.1538" cy="55.7693" r="1.92308" fill="#BED441" fill-opacity="0.25"/>
<circle cx="78.8462" cy="55.7693" r="1.92308" fill="#BED441" fill-opacity="0.25"/>
<circle cx="86.5386" cy="55.7693" r="1.92308" fill="#BED441" fill-opacity="0.25"/>
<circle cx="94.2307" cy="55.7693" r="1.92308" fill="#BED441" fill-opacity="0.25"/>
<circle cx="101.923" cy="55.7693" r="1.92308" fill="#BED441" fill-opacity="0.25"/>
<circle cx="109.615" cy="55.7693" r="1.92308" fill="#BED441" fill-opacity="0.25"/>
<circle cx="117.308" cy="55.7693" r="1.92308" fill="#BED441" fill-opacity="0.25"/>
<circle cx="125" cy="55.7693" r="1.92308" fill="#BED441" fill-opacity="0.25"/>
<circle cx="132.692" cy="55.7693" r="1.92308" fill="#BED441" fill-opacity="0.25"/>
<circle cx="140.385" cy="55.7693" r="1.92308" fill="#BED441" fill-opacity="0.25"/>
<circle cx="148.077" cy="55.7693" r="1.92308" fill="#BED441" fill-opacity="0.25"/>
<circle cx="1.92308" cy="63.4615" r="1.92308" fill="#BED441" fill-opacity="0.25"/>
<circle cx="9.61546" cy="63.4615" r="1.92308" fill="#BED441" fill-opacity="0.25"/>
<circle cx="17.3076" cy="63.4615" r="1.92308" fill="#BED441" fill-opacity="0.25"/>
<circle cx="25" cy="63.4615" r="1.92308" fill="#BED441" fill-opacity="0.25"/>
<circle cx="32.6924" cy="63.4615" r="1.92308" fill="#BED441" fill-opacity="0.25"/>
<circle cx="40.3845" cy="63.4615" r="1.92308" fill="#BED441" fill-opacity="0.25"/>
<circle cx="48.0769" cy="63.4615" r="1.92308" fill="#BED441" fill-opacity="0.25"/>
<circle cx="55.7693" cy="63.4615" r="1.92308" fill="#BED441" fill-opacity="0.25"/>
<circle cx="63.4617" cy="63.4615" r="1.92308" fill="#BED441" fill-opacity="0.25"/>
<circle cx="71.1538" cy="63.4615" r="1.92308" fill="#BED441" fill-opacity="0.25"/>
<circle cx="78.8462" cy="63.4615" r="1.92308" fill="#BED441" fill-opacity="0.25"/>
<circle cx="86.5386" cy="63.4615" r="1.92308" fill="#BED441" fill-opacity="0.25"/>
<circle cx="94.2307" cy="63.4615" r="1.92308" fill="#BED441" fill-opacity="0.25"/>
<circle cx="101.923" cy="63.4615" r="1.92308" fill="#BED441" fill-opacity="0.25"/>
<circle cx="109.615" cy="63.4615" r="1.92308" fill="#BED441" fill-opacity="0.25"/>
<circle cx="117.308" cy="63.4615" r="1.92308" fill="#BED441" fill-opacity="0.25"/>
<circle cx="125" cy="63.4615" r="1.92308" fill="#BED441" fill-opacity="0.25"/>
<circle cx="132.692" cy="63.4615" r="1.92308" fill="#BED441" fill-opacity="0.25"/>
<circle cx="140.385" cy="63.4615" r="1.92308" fill="#BED441" fill-opacity="0.25"/>
<circle cx="148.077" cy="63.4615" r="1.92308" fill="#BED441" fill-opacity="0.25"/>
<circle cx="1.92308" cy="71.1538" r="1.92308" fill="#BED441" fill-opacity="0.25"/>
<circle cx="9.61546" cy="71.1538" r="1.92308" fill="#BED441" fill-opacity="0.25"/>
<circle cx="17.3076" cy="71.1538" r="1.92308" fill="#BED441" fill-opacity="0.25"/>
<circle cx="25" cy="71.1538" r="1.92308" fill="#BED441" fill-opacity="0.25"/>
<circle cx="32.6924" cy="71.1538" r="1.92308" fill="#BED441" fill-opacity="0.25"/>
<circle cx="40.3845" cy="71.1538" r="1.92308" fill="#BED441" fill-opacity="0.25"/>
<circle cx="48.0769" cy="71.1538" r="1.92308" fill="#BED441" fill-opacity="0.25"/>
<circle cx="55.7693" cy="71.1538" r="1.92308" fill="#BED441" fill-opacity="0.25"/>
<circle cx="63.4617" cy="71.1538" r="1.92308" fill="#BED441" fill-opacity="0.25"/>
<circle cx="71.1538" cy="71.1538" r="1.92308" fill="#BED441" fill-opacity="0.25"/>
<circle cx="78.8462" cy="71.1538" r="1.92308" fill="#BED441" fill-opacity="0.25"/>
<circle cx="86.5386" cy="71.1538" r="1.92308" fill="#BED441" fill-opacity="0.25"/>
<circle cx="94.2307" cy="71.1538" r="1.92308" fill="#BED441" fill-opacity="0.25"/>
<circle cx="101.923" cy="71.1538" r="1.92308" fill="#BED441" fill-opacity="0.25"/>
<circle cx="109.615" cy="71.1538" r="1.92308" fill="#BED441" fill-opacity="0.25"/>
<circle cx="117.308" cy="71.1538" r="1.92308" fill="#BED441" fill-opacity="0.25"/>
<circle cx="125" cy="71.1538" r="1.92308" fill="#BED441" fill-opacity="0.25"/>
<circle cx="132.692" cy="71.1538" r="1.92308" fill="#BED441" fill-opacity="0.25"/>
<circle cx="140.385" cy="71.1538" r="1.92308" fill="#BED441" fill-opacity="0.25"/>
<circle cx="148.077" cy="71.1538" r="1.92308" fill="#BED441" fill-opacity="0.25"/>
<circle cx="1.92308" cy="78.8462" r="1.92308" fill="#BED441" fill-opacity="0.25"/>
<circle cx="9.61546" cy="78.8462" r="1.92308" fill="#BED441" fill-opacity="0.25"/>
<circle cx="17.3076" cy="78.8462" r="1.92308" fill="#BED441" fill-opacity="0.25"/>
<circle cx="25" cy="78.8462" r="1.92308" fill="#BED441" fill-opacity="0.25"/>
<circle cx="32.6924" cy="78.8462" r="1.92308" fill="#BED441" fill-opacity="0.25"/>
<circle cx="40.3845" cy="78.8462" r="1.92308" fill="#BED441" fill-opacity="0.25"/>
<circle cx="48.0769" cy="78.8462" r="1.92308" fill="#BED441" fill-opacity="0.25"/>
<circle cx="55.7693" cy="78.8462" r="1.92308" fill="#BED441" fill-opacity="0.25"/>
<circle cx="63.4617" cy="78.8462" r="1.92308" fill="#BED441" fill-opacity="0.25"/>
<circle cx="71.1538" cy="78.8462" r="1.92308" fill="#BED441" fill-opacity="0.25"/>
<circle cx="78.8462" cy="78.8462" r="1.92308" fill="#BED441" fill-opacity="0.25"/>
<circle cx="86.5386" cy="78.8462" r="1.92308" fill="#BED441" fill-opacity="0.25"/>
<circle cx="94.2307" cy="78.8462" r="1.92308" fill="#BED441" fill-opacity="0.25"/>
<circle cx="101.923" cy="78.8462" r="1.92308" fill="#BED441" fill-opacity="0.25"/>
<circle cx="109.615" cy="78.8462" r="1.92308" fill="#BED441" fill-opacity="0.25"/>
<circle cx="117.308" cy="78.8462" r="1.92308" fill="#BED441" fill-opacity="0.25"/>
<circle cx="125" cy="78.8462" r="1.92308" fill="#BED441" fill-opacity="0.25"/>
<circle cx="132.692" cy="78.8462" r="1.92308" fill="#BED441" fill-opacity="0.25"/>
<circle cx="140.385" cy="78.8462" r="1.92308" fill="#BED441" fill-opacity="0.25"/>
<circle cx="148.077" cy="78.8462" r="1.92308" fill="#BED441" fill-opacity="0.25"/>
<circle cx="1.92308" cy="86.5384" r="1.92308" fill="#BED441" fill-opacity="0.25"/>
<circle cx="9.61546" cy="86.5384" r="1.92308" fill="#BED441" fill-opacity="0.25"/>
<circle cx="17.3076" cy="86.5384" r="1.92308" fill="#BED441" fill-opacity="0.25"/>
<circle cx="25" cy="86.5384" r="1.92308" fill="#BED441" fill-opacity="0.25"/>
<circle cx="32.6924" cy="86.5384" r="1.92308" fill="#BED441" fill-opacity="0.25"/>
<circle cx="40.3845" cy="86.5384" r="1.92308" fill="#BED441" fill-opacity="0.25"/>
<circle cx="48.0769" cy="86.5384" r="1.92308" fill="#BED441" fill-opacity="0.25"/>
<circle cx="55.7693" cy="86.5384" r="1.92308" fill="#BED441" fill-opacity="0.25"/>
<circle cx="63.4617" cy="86.5384" r="1.92308" fill="#BED441" fill-opacity="0.25"/>
<circle cx="71.1538" cy="86.5384" r="1.92308" fill="#BED441" fill-opacity="0.25"/>
<circle cx="78.8462" cy="86.5384" r="1.92308" fill="#BED441" fill-opacity="0.25"/>
<circle cx="86.5386" cy="86.5384" r="1.92308" fill="#BED441" fill-opacity="0.25"/>
<circle cx="94.2307" cy="86.5384" r="1.92308" fill="#BED441" fill-opacity="0.25"/>
<circle cx="101.923" cy="86.5384" r="1.92308" fill="#BED441" fill-opacity="0.25"/>
<circle cx="109.615" cy="86.5384" r="1.92308" fill="#BED441" fill-opacity="0.25"/>
<circle cx="117.308" cy="86.5384" r="1.92308" fill="#BED441" fill-opacity="0.25"/>
<circle cx="125" cy="86.5384" r="1.92308" fill="#BED441" fill-opacity="0.25"/>
<circle cx="132.692" cy="86.5384" r="1.92308" fill="#BED441" fill-opacity="0.25"/>
<circle cx="140.385" cy="86.5384" r="1.92308" fill="#BED441" fill-opacity="0.25"/>
<circle cx="148.077" cy="86.5384" r="1.92308" fill="#BED441" fill-opacity="0.25"/>
<circle cx="1.92308" cy="94.2307" r="1.92308" fill="#BED441" fill-opacity="0.25"/>
<circle cx="9.61546" cy="94.2307" r="1.92308" fill="#BED441" fill-opacity="0.25"/>
<circle cx="17.3076" cy="94.2307" r="1.92308" fill="#BED441" fill-opacity="0.25"/>
<circle cx="25" cy="94.2307" r="1.92308" fill="#BED441" fill-opacity="0.25"/>
<circle cx="32.6924" cy="94.2307" r="1.92308" fill="#BED441" fill-opacity="0.25"/>
<circle cx="40.3845" cy="94.2307" r="1.92308" fill="#BED441" fill-opacity="0.25"/>
<circle cx="48.0769" cy="94.2307" r="1.92308" fill="#BED441" fill-opacity="0.25"/>
<circle cx="55.7693" cy="94.2307" r="1.92308" fill="#BED441" fill-opacity="0.25"/>
<circle cx="63.4617" cy="94.2307" r="1.92308" fill="#BED441" fill-opacity="0.25"/>
<circle cx="71.1538" cy="94.2307" r="1.92308" fill="#BED441" fill-opacity="0.25"/>
<circle cx="78.8462" cy="94.2307" r="1.92308" fill="#BED441" fill-opacity="0.25"/>
<circle cx="86.5386" cy="94.2307" r="1.92308" fill="#BED441" fill-opacity="0.25"/>
<circle cx="94.2307" cy="94.2307" r="1.92308" fill="#BED441" fill-opacity="0.25"/>
<circle cx="101.923" cy="94.2307" r="1.92308" fill="#BED441" fill-opacity="0.25"/>
<circle cx="109.615" cy="94.2307" r="1.92308" fill="#BED441" fill-opacity="0.25"/>
<circle cx="117.308" cy="94.2307" r="1.92308" fill="#BED441" fill-opacity="0.25"/>
<circle cx="125" cy="94.2307" r="1.92308" fill="#BED441" fill-opacity="0.25"/>
<circle cx="132.692" cy="94.2307" r="1.92308" fill="#BED441" fill-opacity="0.25"/>
<circle cx="140.385" cy="94.2307" r="1.92308" fill="#BED441" fill-opacity="0.25"/>
<circle cx="148.077" cy="94.2307" r="1.92308" fill="#BED441" fill-opacity="0.25"/>
<circle cx="1.92308" cy="101.923" r="1.92308" fill="#BED441" fill-opacity="0.25"/>
<circle cx="9.61546" cy="101.923" r="1.92308" fill="#BED441" fill-opacity="0.25"/>
<circle cx="17.3076" cy="101.923" r="1.92308" fill="#BED441" fill-opacity="0.25"/>
<circle cx="25" cy="101.923" r="1.92308" fill="#BED441" fill-opacity="0.25"/>
<circle cx="32.6924" cy="101.923" r="1.92308" fill="#BED441" fill-opacity="0.25"/>
<circle cx="40.3845" cy="101.923" r="1.92308" fill="#BED441" fill-opacity="0.25"/>
<circle cx="48.0769" cy="101.923" r="1.92308" fill="#BED441" fill-opacity="0.25"/>
<circle cx="55.7693" cy="101.923" r="1.92308" fill="#BED441" fill-opacity="0.25"/>
<circle cx="63.4617" cy="101.923" r="1.92308" fill="#BED441" fill-opacity="0.25"/>
<circle cx="71.1538" cy="101.923" r="1.92308" fill="#BED441" fill-opacity="0.25"/>
<circle cx="78.8462" cy="101.923" r="1.92308" fill="#BED441" fill-opacity="0.25"/>
<circle cx="86.5386" cy="101.923" r="1.92308" fill="#BED441" fill-opacity="0.25"/>
<circle cx="94.2307" cy="101.923" r="1.92308" fill="#BED441" fill-opacity="0.25"/>
<circle cx="101.923" cy="101.923" r="1.92308" fill="#BED441" fill-opacity="0.25"/>
<circle cx="109.615" cy="101.923" r="1.92308" fill="#BED441" fill-opacity="0.25"/>
<circle cx="117.308" cy="101.923" r="1.92308" fill="#BED441" fill-opacity="0.25"/>
<circle cx="125" cy="101.923" r="1.92308" fill="#BED441" fill-opacity="0.25"/>
<circle cx="132.692" cy="101.923" r="1.92308" fill="#BED441" fill-opacity="0.25"/>
<circle cx="140.385" cy="101.923" r="1.92308" fill="#BED441" fill-opacity="0.25"/>
<circle cx="148.077" cy="101.923" r="1.92308" fill="#BED441" fill-opacity="0.25"/>
<circle cx="1.92308" cy="109.615" r="1.92308" fill="#BED441" fill-opacity="0.25"/>
<circle cx="9.61546" cy="109.615" r="1.92308" fill="#BED441" fill-opacity="0.25"/>
<circle cx="17.3076" cy="109.615" r="1.92308" fill="#BED441" fill-opacity="0.25"/>
<circle cx="25" cy="109.615" r="1.92308" fill="#BED441" fill-opacity="0.25"/>
<circle cx="32.6924" cy="109.615" r="1.92308" fill="#BED441" fill-opacity="0.25"/>
<circle cx="40.3845" cy="109.615" r="1.92308" fill="#BED441" fill-opacity="0.25"/>
<circle cx="48.0769" cy="109.615" r="1.92308" fill="#BED441" fill-opacity="0.25"/>
<circle cx="55.7693" cy="109.615" r="1.92308" fill="#BED441" fill-opacity="0.25"/>
<circle cx="63.4617" cy="109.615" r="1.92308" fill="#BED441" fill-opacity="0.25"/>
<circle cx="71.1538" cy="109.615" r="1.92308" fill="#BED441" fill-opacity="0.25"/>
<circle cx="78.8462" cy="109.615" r="1.92308" fill="#BED441" fill-opacity="0.25"/>
<circle cx="86.5386" cy="109.615" r="1.92308" fill="#BED441" fill-opacity="0.25"/>
<circle cx="94.2307" cy="109.615" r="1.92308" fill="#BED441" fill-opacity="0.25"/>
<circle cx="101.923" cy="109.615" r="1.92308" fill="#BED441" fill-opacity="0.25"/>
<circle cx="109.615" cy="109.615" r="1.92308" fill="#BED441" fill-opacity="0.25"/>
<circle cx="117.308" cy="109.615" r="1.92308" fill="#BED441" fill-opacity="0.25"/>
<circle cx="125" cy="109.615" r="1.92308" fill="#BED441" fill-opacity="0.25"/>
<circle cx="132.692" cy="109.615" r="1.92308" fill="#BED441" fill-opacity="0.25"/>
<circle cx="140.385" cy="109.615" r="1.92308" fill="#BED441" fill-opacity="0.25"/>
<circle cx="148.077" cy="109.615" r="1.92308" fill="#BED441" fill-opacity="0.25"/>
<circle cx="1.92308" cy="117.308" r="1.92308" fill="#BED441" fill-opacity="0.25"/>
<circle cx="9.61546" cy="117.308" r="1.92308" fill="#BED441" fill-opacity="0.25"/>
<circle cx="17.3076" cy="117.308" r="1.92308" fill="#BED441" fill-opacity="0.25"/>
<circle cx="25" cy="117.308" r="1.92308" fill="#BED441" fill-opacity="0.25"/>
<circle cx="32.6924" cy="117.308" r="1.92308" fill="#BED441" fill-opacity="0.25"/>
<circle cx="40.3845" cy="117.308" r="1.92308" fill="#BED441" fill-opacity="0.25"/>
<circle cx="48.0769" cy="117.308" r="1.92308" fill="#BED441" fill-opacity="0.25"/>
<circle cx="55.7693" cy="117.308" r="1.92308" fill="#BED441" fill-opacity="0.25"/>
<circle cx="63.4617" cy="117.308" r="1.92308" fill="#BED441" fill-opacity="0.25"/>
<circle cx="71.1538" cy="117.308" r="1.92308" fill="#BED441" fill-opacity="0.25"/>
<circle cx="78.8462" cy="117.308" r="1.92308" fill="#BED441" fill-opacity="0.25"/>
<circle cx="86.5386" cy="117.308" r="1.92308" fill="#BED441" fill-opacity="0.25"/>
<circle cx="94.2307" cy="117.308" r="1.92308" fill="#BED441" fill-opacity="0.25"/>
<circle cx="101.923" cy="117.308" r="1.92308" fill="#BED441" fill-opacity="0.25"/>
<circle cx="109.615" cy="117.308" r="1.92308" fill="#BED441" fill-opacity="0.25"/>
<circle cx="117.308" cy="117.308" r="1.92308" fill="#BED441" fill-opacity="0.25"/>
<circle cx="125" cy="117.308" r="1.92308" fill="#BED441" fill-opacity="0.25"/>
<circle cx="132.692" cy="117.308" r="1.92308" fill="#BED441" fill-opacity="0.25"/>
<circle cx="140.385" cy="117.308" r="1.92308" fill="#BED441" fill-opacity="0.25"/>
<circle cx="148.077" cy="117.308" r="1.92308" fill="#BED441" fill-opacity="0.25"/>
<circle cx="1.92308" cy="125" r="1.92308" fill="#BED441" fill-opacity="0.25"/>
<circle cx="9.61546" cy="125" r="1.92308" fill="#BED441" fill-opacity="0.25"/>
<circle cx="17.3076" cy="125" r="1.92308" fill="#BED441" fill-opacity="0.25"/>
<circle cx="25" cy="125" r="1.92308" fill="#BED441" fill-opacity="0.25"/>
<circle cx="32.6924" cy="125" r="1.92308" fill="#BED441" fill-opacity="0.25"/>
<circle cx="40.3845" cy="125" r="1.92308" fill="#BED441" fill-opacity="0.25"/>
<circle cx="48.0769" cy="125" r="1.92308" fill="#BED441" fill-opacity="0.25"/>
<circle cx="55.7693" cy="125" r="1.92308" fill="#BED441" fill-opacity="0.25"/>
<circle cx="63.4617" cy="125" r="1.92308" fill="#BED441" fill-opacity="0.25"/>
<circle cx="71.1538" cy="125" r="1.92308" fill="#BED441" fill-opacity="0.25"/>
<circle cx="78.8462" cy="125" r="1.92308" fill="#BED441" fill-opacity="0.25"/>
<circle cx="86.5386" cy="125" r="1.92308" fill="#BED441" fill-opacity="0.25"/>
<circle cx="94.2307" cy="125" r="1.92308" fill="#BED441" fill-opacity="0.25"/>
<circle cx="101.923" cy="125" r="1.92308" fill="#BED441" fill-opacity="0.25"/>
<circle cx="109.615" cy="125" r="1.92308" fill="#BED441" fill-opacity="0.25"/>
<circle cx="117.308" cy="125" r="1.92308" fill="#BED441" fill-opacity="0.25"/>
<circle cx="125" cy="125" r="1.92308" fill="#BED441" fill-opacity="0.25"/>
<circle cx="132.692" cy="125" r="1.92308" fill="#BED441" fill-opacity="0.25"/>
<circle cx="140.385" cy="125" r="1.92308" fill="#BED441" fill-opacity="0.25"/>
<circle cx="148.077" cy="125" r="1.92308" fill="#BED441" fill-opacity="0.25"/>
<circle cx="1.92308" cy="132.692" r="1.92308" fill="#BED441" fill-opacity="0.25"/>
<circle cx="9.61546" cy="132.692" r="1.92308" fill="#BED441" fill-opacity="0.25"/>
<circle cx="17.3076" cy="132.692" r="1.92308" fill="#BED441" fill-opacity="0.25"/>
<circle cx="25" cy="132.692" r="1.92308" fill="#BED441" fill-opacity="0.25"/>
<circle cx="32.6924" cy="132.692" r="1.92308" fill="#BED441" fill-opacity="0.25"/>
<circle cx="40.3845" cy="132.692" r="1.92308" fill="#BED441" fill-opacity="0.25"/>
<circle cx="48.0769" cy="132.692" r="1.92308" fill="#BED441" fill-opacity="0.25"/>
<circle cx="55.7693" cy="132.692" r="1.92308" fill="#BED441" fill-opacity="0.25"/>
<circle cx="63.4617" cy="132.692" r="1.92308" fill="#BED441" fill-opacity="0.25"/>
<circle cx="71.1538" cy="132.692" r="1.92308" fill="#BED441" fill-opacity="0.25"/>
<circle cx="78.8462" cy="132.692" r="1.92308" fill="#BED441" fill-opacity="0.25"/>
<circle cx="86.5386" cy="132.692" r="1.92308" fill="#BED441" fill-opacity="0.25"/>
<circle cx="94.2307" cy="132.692" r="1.92308" fill="#BED441" fill-opacity="0.25"/>
<circle cx="101.923" cy="132.692" r="1.92308" fill="#BED441" fill-opacity="0.25"/>
<circle cx="109.615" cy="132.692" r="1.92308" fill="#BED441" fill-opacity="0.25"/>
<circle cx="117.308" cy="132.692" r="1.92308" fill="#BED441" fill-opacity="0.25"/>
<circle cx="125" cy="132.692" r="1.92308" fill="#BED441" fill-opacity="0.25"/>
<circle cx="132.692" cy="132.692" r="1.92308" fill="#BED441" fill-opacity="0.25"/>
<circle cx="140.385" cy="132.692" r="1.92308" fill="#BED441" fill-opacity="0.25"/>
<circle cx="148.077" cy="132.692" r="1.92308" fill="#BED441" fill-opacity="0.25"/>
<circle cx="1.92308" cy="140.385" r="1.92308" fill="#BED441" fill-opacity="0.25"/>
<circle cx="9.61546" cy="140.385" r="1.92308" fill="#BED441" fill-opacity="0.25"/>
<circle cx="17.3076" cy="140.385" r="1.92308" fill="#BED441" fill-opacity="0.25"/>
<circle cx="25" cy="140.385" r="1.92308" fill="#BED441" fill-opacity="0.25"/>
<circle cx="32.6924" cy="140.385" r="1.92308" fill="#BED441" fill-opacity="0.25"/>
<circle cx="40.3845" cy="140.385" r="1.92308" fill="#BED441" fill-opacity="0.25"/>
<circle cx="48.0769" cy="140.385" r="1.92308" fill="#BED441" fill-opacity="0.25"/>
<circle cx="55.7693" cy="140.385" r="1.92308" fill="#BED441" fill-opacity="0.25"/>
<circle cx="63.4617" cy="140.385" r="1.92308" fill="#BED441" fill-opacity="0.25"/>
<circle cx="71.1538" cy="140.385" r="1.92308" fill="#BED441" fill-opacity="0.25"/>
<circle cx="78.8462" cy="140.385" r="1.92308" fill="#BED441" fill-opacity="0.25"/>
<circle cx="86.5386" cy="140.385" r="1.92308" fill="#BED441" fill-opacity="0.25"/>
<circle cx="94.2307" cy="140.385" r="1.92308" fill="#BED441" fill-opacity="0.25"/>
<circle cx="101.923" cy="140.385" r="1.92308" fill="#BED441" fill-opacity="0.25"/>
<circle cx="109.615" cy="140.385" r="1.92308" fill="#BED441" fill-opacity="0.25"/>
<circle cx="117.308" cy="140.385" r="1.92308" fill="#BED441" fill-opacity="0.25"/>
<circle cx="125" cy="140.385" r="1.92308" fill="#BED441" fill-opacity="0.25"/>
<circle cx="132.692" cy="140.385" r="1.92308" fill="#BED441" fill-opacity="0.25"/>
<circle cx="140.385" cy="140.385" r="1.92308" fill="#BED441" fill-opacity="0.25"/>
<circle cx="148.077" cy="140.385" r="1.92308" fill="#BED441" fill-opacity="0.25"/>
<circle cx="1.92308" cy="148.077" r="1.92308" fill="#BED441" fill-opacity="0.25"/>
<circle cx="9.61546" cy="148.077" r="1.92308" fill="#BED441" fill-opacity="0.25"/>
<circle cx="17.3076" cy="148.077" r="1.92308" fill="#BED441" fill-opacity="0.25"/>
<circle cx="25" cy="148.077" r="1.92308" fill="#BED441" fill-opacity="0.25"/>
<circle cx="32.6924" cy="148.077" r="1.92308" fill="#BED441" fill-opacity="0.25"/>
<circle cx="40.3845" cy="148.077" r="1.92308" fill="#BED441" fill-opacity="0.25"/>
<circle cx="48.0769" cy="148.077" r="1.92308" fill="#BED441" fill-opacity="0.25"/>
<circle cx="55.7693" cy="148.077" r="1.92308" fill="#BED441" fill-opacity="0.25"/>
<circle cx="63.4617" cy="148.077" r="1.92308" fill="#BED441" fill-opacity="0.25"/>
<circle cx="71.1538" cy="148.077" r="1.92308" fill="#BED441" fill-opacity="0.25"/>
<circle cx="78.8462" cy="148.077" r="1.92308" fill="#BED441" fill-opacity="0.25"/>
<circle cx="86.5386" cy="148.077" r="1.92308" fill="#BED441" fill-opacity="0.25"/>
<circle cx="94.2307" cy="148.077" r="1.92308" fill="#BED441" fill-opacity="0.25"/>
<circle cx="101.923" cy="148.077" r="1.92308" fill="#BED441" fill-opacity="0.25"/>
<circle cx="109.615" cy="148.077" r="1.92308" fill="#BED441" fill-opacity="0.25"/>
<circle cx="117.308" cy="148.077" r="1.92308" fill="#BED441" fill-opacity="0.25"/>
<circle cx="125" cy="148.077" r="1.92308" fill="#BED441" fill-opacity="0.25"/>
<circle cx="132.692" cy="148.077" r="1.92308" fill="#BED441" fill-opacity="0.25"/>
<circle cx="140.385" cy="148.077" r="1.92308" fill="#BED441" fill-opacity="0.25"/>
<circle cx="148.077" cy="148.077" r="1.92308" fill="#BED441" fill-opacity="0.25"/>
</svg>
